<svg xmlns="http://www.w3.org/2000/svg" xmlns:xlink="http://www.w3.org/1999/xlink" width="894" height="822" viewBox="0 0 894 822"><clipPath id="cl_9"><rect width="894" height="822"/></clipPath><g clip-path="url(#cl_9)"><defs><linearGradient id="gradient_0" gradientUnits="userSpaceOnUse" x1="341.86572" y1="399.66098" x2="713.36493" y2="779.3653"><stop offset="0" stop-color="#FF7000"/><stop offset="1" stop-color="#F42848"/></linearGradient></defs><path fill="url(#gradient_0)" transform="translate(-180 -202)" d="M435.463 1012.27C429.596 1012.33 423.246 1011.57 417.484 1010.66C348.911 999.851 289.568 938.766 290.823 867.578C291.03 855.841 290.8 843.827 290.805 832.065L290.835 772.126L290.828 608.955L290.843 565.702C290.862 559.112 293.361 534.743 281.135 540.778C259.383 551.516 240.249 578.816 216.731 585.682C204.067 589.38 189.585 576.863 187.954 563.487C187.106 556.288 189.191 549.052 193.741 543.408C197.432 538.916 225.06 517.59 231.038 512.85L316.997 444.546L496.197 301.267L561.905 248.966C573.958 239.429 585.911 229.819 598.237 220.652C613.058 209.176 636.181 208.104 652.147 218.037C664.271 225.581 676.617 236.109 688.121 245.051C711.14 262.816 734.045 280.729 756.833 298.789C808.522 339.805 859.85 381.274 910.811 423.191C941.024 447.833 972.802 472.962 1002.36 498.131L1035.96 525.847C1046.41 534.466 1060.08 542.787 1061.5 557.293C1062.23 564.477 1059.9 571.636 1055.1 577.024C1047.43 585.599 1033.18 589.107 1023.3 583.065C1008.57 574.06 995.201 559.601 981.632 548.732C977.615 545.515 971.36 538.691 965.879 541.492C964.404 543.05 963.235 545.12 963.151 547.227C962.659 559.449 962.912 573.624 962.899 585.788L962.93 759.469L962.989 824.657C963.009 840.559 963.384 857.044 962.7 872.854C959.435 948.386 888.904 1011.59 814.372 1012.54C783.077 1012.94 751.461 1012.63 720.096 1012.62L542.422 1012.62L465.821 1012.65C460.93 1012.65 438.162 1013.15 435.463 1012.27ZM915.946 567.217C915.54 555.011 914.553 536.417 919.114 524.604C921.029 519.647 929.137 513.574 931.529 508.718C932.362 507.301 928.156 503.394 927.073 502.479C911.328 489.181 895.304 476.131 879.319 463.121L789.922 390.582C757.748 364.594 725.418 338.8 692.933 313.201L660.346 287.574C651.662 280.765 641.045 271.071 630.532 267.436C625.706 265.766 617.507 269.377 613.726 272.224C598.518 283.8 583.602 295.84 568.67 307.784L487.966 372.117L378.306 459.87C360.8 473.939 339.418 490.2 322.805 504.787C322.272 506.663 322.206 507.924 323.121 509.716C326.684 516.696 332.879 517.538 335.978 527.346C340.61 542.003 338.473 580.08 338.487 597.545L338.512 782.995L338.494 841.175C338.487 850.756 338.06 865.486 338.833 874.784C339.457 882.46 341.076 890.022 343.648 897.281C355.057 929.997 382.546 954.193 415.743 963.479C431.84 967.982 445.311 967.354 461.726 967.23C465.239 967.203 474.003 967.008 477.314 967.426C486.942 966.961 499.085 967.245 508.825 967.241L565.842 967.293L732.259 967.302L787.488 967.319C800.36 967.283 816.619 967.751 828.984 965.391C848.35 961.542 866.299 952.483 880.899 939.189C896.895 924.964 908.208 906.226 913.345 885.445C916.555 871.908 915.78 856.763 915.781 842.788L915.785 799.79L915.807 644.276L915.776 596.288C915.757 587.654 915.422 576.385 915.9 567.955L915.946 567.217Z"/><defs><linearGradient id="gradient_1" gradientUnits="userSpaceOnUse" x1="521.76129" y1="628.88977" x2="648.36041" y2="815.9632"><stop offset="0" stop-color="#FF7200"/><stop offset="1" stop-color="#F72D43"/></linearGradient></defs><path fill="url(#gradient_1)" transform="translate(-180 -202)" d="M494.24 910.782C491.17 895.256 492.754 863.287 492.748 846.689L492.761 746.087L492.721 695.596C492.718 679.195 490.685 662.651 499.551 648.189C509.595 631.807 524.747 625.22 543.463 625.2C581.756 625.159 619.99 625.284 658.253 625.233L693.277 625.168C713.18 625.124 729.675 623.82 745.094 639.085C761.204 655.033 759.188 673.435 759.152 694.325L759.058 729.016L759.112 847.317L759.202 880.647C759.246 899.693 760.459 917.523 745.531 931.901C735.491 941.572 725.523 945.656 711.524 945.846C695.786 946.059 680.043 945.985 664.296 945.984L547.413 945.908C530.324 945.812 519.033 944.455 506.247 931.936C500.08 925.898 496.839 918.906 494.24 910.782ZM599.346 840.804C625.822 849.66 654.973 844.677 677.004 827.528C699.034 810.379 711.019 783.342 708.93 755.502C705.804 713.833 672.315 680.915 630.599 678.507C588.882 676.098 551.827 704.942 543.926 745.974C536.024 787.006 559.718 827.549 599.346 840.804ZM637.562 903.188C641.07 902.666 643.418 901.905 645.685 898.911C647.592 896.377 648.375 893.171 647.85 890.043C647.37 887.231 645.71 884.758 643.289 883.249C638.059 879.921 623.307 881.57 616.165 881.379C608.849 881.544 602.821 885.384 603.249 893.449C603.36 895.918 604.468 898.236 606.32 899.872C612.169 905.119 629.052 903.079 637.562 903.188Z"/><defs><linearGradient id="gradient_2" gradientUnits="userSpaceOnUse" x1="590.94733" y1="712.56073" x2="659.98871" y2="810.49377"><stop offset="0" stop-color="#FE5319"/><stop offset="1" stop-color="#F62D44"/></linearGradient></defs><path fill="url(#gradient_2)" transform="translate(-180 -202)" d="M617.634 701.284C651.196 696.759 682.04 720.381 686.419 753.962C690.797 787.543 667.041 818.284 633.441 822.516C600.049 826.721 569.538 803.143 565.186 769.769C560.835 736.395 584.28 705.782 617.634 701.284ZM627.315 786.954C641.039 786.064 651.502 774.313 650.8 760.577C650.098 746.841 638.491 736.218 624.747 736.733C615.687 737.072 607.512 742.261 603.349 750.314C599.186 758.368 599.68 768.039 604.643 775.626C609.605 783.213 618.268 787.541 627.315 786.954Z"/><defs><linearGradient id="gradient_3" gradientUnits="userSpaceOnUse" x1="622.41608" y1="820.8653" x2="713.98755" y2="952.76459"><stop offset="0" stop-color="#F63140"/><stop offset="1" stop-color="#E9097D"/></linearGradient></defs><path fill="url(#gradient_3)" transform="translate(-180 -202)" d="M708.93 755.502C711.63 758.86 709.247 760.899 714.022 763.962C715.704 764.327 721.568 764.129 722.724 763.306C732.908 756.053 741.474 748.337 750.583 739.834C752.907 737.664 753.357 736.11 754.924 734.694L755.063 737.411C756.366 739.229 755.684 739.06 757.137 739.33C758.788 735.682 757.353 733.139 759.058 729.016L759.112 847.317L759.202 880.647C759.246 899.693 760.459 917.523 745.531 931.901C735.491 941.572 725.523 945.656 711.524 945.846C695.786 946.059 680.043 945.985 664.296 945.984L547.413 945.908C530.324 945.812 519.033 944.455 506.247 931.936C500.08 925.898 496.839 918.906 494.24 910.782L495.327 909.917C499.173 910.559 513.976 906.023 518.007 903.963C522.322 901.758 529.509 893.878 534.222 891.001C545.859 883.898 556.356 876.128 566.871 867.488C571.294 863.872 578.462 861.319 582.832 857.185C588.546 851.781 593.649 846.228 599.346 840.804C625.822 849.66 654.973 844.677 677.004 827.528C699.034 810.379 711.019 783.342 708.93 755.502ZM637.562 903.188C641.07 902.666 643.418 901.905 645.685 898.911C647.592 896.377 648.375 893.171 647.85 890.043C647.37 887.231 645.71 884.758 643.289 883.249C638.059 879.921 623.307 881.57 616.165 881.379C608.849 881.544 602.821 885.384 603.249 893.449C603.36 895.918 604.468 898.236 606.32 899.872C612.169 905.119 629.052 903.079 637.562 903.188Z"/><defs><linearGradient id="gradient_4" gradientUnits="userSpaceOnUse" x1="538.49084" y1="383.2468" x2="714.80872" y2="563.27338"><stop offset="0" stop-color="#FF6C00"/><stop offset="1" stop-color="#F83C34"/></linearGradient></defs><path fill="url(#gradient_4)" transform="translate(-180 -202)" d="M618.77 390.912C620.595 390.722 623.648 390.712 625.573 390.709C688.632 390.622 749.098 414.842 794.425 458.688C798.752 462.873 802.069 467.723 801.891 473.916C801.773 478.612 799.694 483.043 796.159 486.136C780.38 499.689 763.941 476.653 751.565 467.601C716.538 441.984 681.385 428.737 637.258 425.998C595.186 422.09 542.328 439.235 508.002 463.255C502.573 467.106 497.357 471.248 492.377 475.664C486.144 481.204 478.915 489.302 470.315 490.271C465.708 490.811 461.093 489.334 457.655 486.221C454.397 483.335 452.462 479.242 452.299 474.893C452.068 469.632 454.684 463.91 458.36 460.217C501.832 416.546 557.809 394.273 618.77 390.912Z"/><defs><linearGradient id="gradient_5" gradientUnits="userSpaceOnUse" x1="564.23334" y1="467.35553" x2="689.00592" y2="587.18768"><stop offset="0" stop-color="#FF5E0C"/><stop offset="1" stop-color="#FA3933"/></linearGradient></defs><path fill="url(#gradient_5)" transform="translate(-180 -202)" d="M616.696 468.155C622.988 467.576 630.235 467.629 636.527 468.057C668.85 470.134 699.651 482.54 724.39 503.447C732.53 510.232 743.356 517.795 742.113 529.627C741.703 533.842 739.584 537.705 736.249 540.316C731.231 544.293 723.815 545.17 718.038 542.744C713.053 540.651 707.994 534.341 703.328 530.562C684.005 514.912 662.054 505.45 637.258 503.121C607.225 499.681 575.099 510.607 551.688 529.261C545.36 534.303 540.554 542.325 532.092 543.905C513.86 547.307 505.301 527.592 517.374 514.792C521.988 509.812 526.431 505.999 531.543 501.772C556.418 481.207 584.765 470.685 616.696 468.155Z"/><path fill="#FB4C21" transform="translate(-180 -202)" d="M622.509 547.581L623.366 547.535C636.989 546.887 645.634 550.103 656.53 559.4C670.947 571.701 669.598 591.358 648.123 593.228C640.551 593.887 636.113 587.733 631.178 582.822C618.149 579.047 618.129 591.577 605.677 593.31C589.837 595.514 581.776 576.298 591.66 564.565C600.716 553.815 609.001 549.569 622.509 547.581Z"/><defs><linearGradient id="gradient_6" gradientUnits="userSpaceOnUse" x1="714.07983" y1="738.89209" x2="914.86084" y2="968.90955"><stop offset="0" stop-color="#F32946"/><stop offset="1" stop-color="#E50588"/></linearGradient></defs><path fill="url(#gradient_6)" transform="translate(-180 -202)" d="M996.707 497.618C998.276 498.595 998.443 498.632 1000.2 499.253L1002.36 498.131L1035.96 525.847C1046.41 534.466 1060.08 542.787 1061.5 557.293C1062.23 564.477 1059.9 571.636 1055.1 577.024C1047.43 585.599 1033.18 589.107 1023.3 583.065C1008.57 574.06 995.201 559.601 981.632 548.732C977.615 545.515 971.36 538.691 965.879 541.492C964.404 543.05 963.235 545.12 963.151 547.227C962.659 559.449 962.912 573.624 962.899 585.788L962.93 759.469L962.989 824.657C963.009 840.559 963.384 857.044 962.7 872.854C959.435 948.386 888.904 1011.59 814.372 1012.54C783.077 1012.94 751.461 1012.63 720.096 1012.62L542.422 1012.62L465.821 1012.65C460.93 1012.65 438.162 1013.15 435.463 1012.27C437.277 1010.69 437.62 1011.29 440.839 1011.28L441.131 1010.32C439.946 1007.37 440.869 1007.21 442.27 1004.52C447.111 995.217 458.738 992.02 466.189 985.065C469.524 981.952 469.398 979.279 472.514 976.554C473.407 975.809 473.803 975.406 474.661 974.561C474.746 972.736 474.572 972.671 475.593 971.221C477.811 970.519 480.898 968.569 482.221 968.454C480.561 968.063 478.983 967.751 477.314 967.426C486.942 966.961 499.085 967.245 508.825 967.241L565.842 967.293L732.259 967.302L787.488 967.319C800.36 967.283 816.619 967.751 828.984 965.391C848.35 961.542 866.299 952.483 880.899 939.189C896.895 924.964 908.208 906.226 913.345 885.445C916.555 871.908 915.78 856.763 915.781 842.788L915.785 799.79L915.807 644.276L915.776 596.288C915.757 587.654 915.422 576.385 915.9 567.955L915.946 567.217C916.393 565.651 916.408 565.002 916.601 563.402C924.154 562.527 933.007 562.672 937.707 555.228C941.181 549.726 952.189 538.235 957.204 534.871C958.453 534.82 960.37 534.418 961.663 534.197C968.876 523.305 973.347 522.736 982.783 514.408C985.607 511.916 988.032 507.608 990.062 505.481C994.188 501.157 993.68 503.879 996.707 497.618Z"/></g></svg>
