<svg xmlns="http://www.w3.org/2000/svg" viewBox="0 0 96 156">
  <!--
    MichiPeek: original production silhouette adapted from the user's
    peeking-cat reference. The card hides the left portion behind its cover;
    only the ear, almond eye, muzzle and whiskers cross the cover edge.
  -->
  <path
    fill="#05070B"
    d="M10 156V66c0-15 4-28 12-38L20 7c0-4 4-6 7-3l17 15c5-2 10-3 16-2L80 6c4-2 7 1 6 6l-5 24c7 9 10 20 8 33-2 17-11 32-26 43-8 6-13 11-16 20-4 12-8 20-16 24H10Z"/>
  <path
    fill="none"
    stroke="#29313E"
    stroke-linecap="round"
    stroke-width="1.15"
    opacity=".72"
    d="M80 7c4-2 7 1 6 6l-5 23c7 9 10 20 8 33-2 17-11 32-26 43"/>
  <path
    fill="#F4F6FA"
    opacity=".9"
    d="M54 52c5-6 13-7 20-1-5 7-13 8-20 1Z"/>
  <path
    fill="#05070B"
    d="M65 47c3 2 4 8 1 12-3-2-4-8-1-12Z"/>
  <path
    fill="#343A46"
    d="m76 68 3 2-3 2-3-2 3-2Z"/>
  <g
    fill="none"
    stroke="#F4F6FA"
    stroke-linecap="round"
    stroke-width="1.05"
    opacity=".62">
    <path d="m79 73 16-5"/>
    <path d="m79 77 17 1"/>
    <path d="m78 81 15 7"/>
  </g>
  <path
    fill="#05070B"
    stroke="#29313E"
    stroke-width="1"
    d="M57 112c2-5 8-7 12-4 4 3 4 10 1 15H56c-1-4-1-8 1-11Z"/>
  <path
    fill="none"
    stroke="#F4F6FA"
    stroke-linecap="round"
    stroke-width=".75"
    opacity=".38"
    d="M61 111v5m5-6v6"/>
</svg>
