<?xml version="1.0" encoding="utf-8" ?><svg xmlns="http://www.w3.org/2000/svg" xmlns:xlink="http://www.w3.org/1999/xlink" width="854" height="763" viewBox="0 0 854 763"><clipPath id="cl_3"><rect y="-6.1035156e-05" width="854" height="763"/></clipPath><g clip-path="url(#cl_3)"><defs><linearGradient id="gradient_0" gradientUnits="userSpaceOnUse" x1="364.63986" y1="336.91708" x2="809.50269" y2="949.32349"><stop offset="0" stop-color="#FF9123"/><stop offset="1" stop-color="#EA1361"/></linearGradient></defs><path fill="url(#gradient_0)" transform="translate(-187 -190)" d="M193.768 489.704C193.773 489.592 193.777 489.481 193.782 489.37C198.017 469.185 208.733 450.568 224.123 437.013C245.271 418.385 272.547 410.402 300.267 412.012C335.319 412.25 372.371 412.697 407.335 412.104C442.53 411.967 480.74 411.406 515.839 412.141C614.61 411.034 715.557 412.027 814.439 412.026L900.689 412.031C915.48 412.026 941.609 411.276 955.322 413.628C974.894 416.801 992.996 425.977 1007.13 439.886C1029.3 461.707 1037.33 485.974 1037.43 516.459L1037.15 657.573C1037.09 683.646 1037.76 716.652 1036.58 742.38C1037.27 762.169 1036.64 784.148 1036.61 804.132C1036.54 848.151 1041.33 883.305 1008.77 918.412C991.337 937.431 967.016 948.675 941.236 949.634C927.24 950.1 911.948 949.808 897.811 949.811L829.051 949.887L784.259 949.972C777.701 949.984 767.102 950.256 760.886 949.789C755.688 950.514 730.216 949.901 723.486 949.914L634.57 949.965L383.261 949.797L327.055 949.905C308.729 950.047 283.725 950.963 266.36 946.871C240.562 940.535 219.32 923.282 205.636 901C186.981 870.619 191.083 835.527 191.075 801.152L191.047 696.931L191.047 572.3L190.983 534.097C190.954 519.636 190.201 503.648 193.768 489.704Z"/><path fill="#D91D67" transform="translate(-187 -190)" d="M943.979 828.105C946.802 826.49 951.609 814.966 956.466 813.474C963.351 811.359 963.656 809.562 966.927 803.642C970.315 797.51 981.804 794.462 986.948 789.399C988.773 787.606 988.746 783.965 990.683 782.21C993.441 779.893 997.285 780.27 998.494 777.177C998.24 776.004 998.302 776.582 998.289 775.443C999.617 773.025 1004 768.05 1006.33 766.853C1007.06 767.983 1007.12 768.12 1008.07 769.055C1007.81 766.564 1009.02 764.229 1010.51 762.251C1013.87 764 1014.4 765.018 1017.76 763.28C1018.86 761.921 1019.86 757.744 1020.42 755.852C1026.8 753.428 1020.43 750.762 1023.89 745.512C1025.78 744.662 1026.54 744.622 1028.54 744.289C1027.79 734.876 1031.5 741.673 1035.47 738.822C1035.83 737.059 1035.73 736.218 1035.66 734.455C1036.05 737.494 1035.99 739.193 1036.58 742.38C1037.27 762.169 1036.64 784.148 1036.61 804.132C1036.54 848.151 1041.33 883.305 1008.77 918.412C991.337 937.431 967.016 948.675 941.236 949.634C927.24 950.1 911.948 949.808 897.811 949.811L829.051 949.887L784.259 949.972C777.701 949.984 767.102 950.256 760.886 949.789C765.456 948.079 803.547 949.245 810.812 948.881C812.439 946.753 808.939 942.902 808.231 940.742C808.057 940.213 809.427 940.654 810.026 938.102C807.385 934.585 806.871 937.572 803.915 935.024L804.602 933.779C805.645 934.313 806.258 934.572 807.352 934.997C808.858 930.612 811.479 930.485 816.31 927.948C819.729 922.009 825.489 914.084 829.933 908.547C830.682 907.614 835.814 906.183 837.212 905.447C838.99 904.511 839.19 903.799 840.049 901.755C840.102 901.629 840.601 899.916 841.242 899.294C848.567 892.191 857.154 883.851 866.068 878.87C866.068 878.87 871.625 880.14 871.625 880.14C872.404 879.376 875.299 876.722 875.923 876.759C878.047 876.885 882.876 877.633 884.812 877.16C888.609 876.232 886.462 871.564 887.885 868.498L889.384 869.915L887.686 868.53L889.4 869.858C890.499 863.727 891.637 860.868 895.08 855.612C897.256 852.29 897.786 851.194 897.513 847.245L898.531 846.703C899.937 836.691 906.556 828.179 915.913 824.35C925.27 820.521 935.957 821.951 943.979 828.105Z"/><path fill="#FE6063" transform="translate(-187 -190)" d="M898.531 846.703C899.937 836.691 906.556 828.179 915.913 824.35C925.27 820.521 935.957 821.951 943.979 828.105C954.947 836.521 958.27 851.607 951.852 863.852C945.433 876.096 931.136 881.947 917.975 877.714C904.814 873.481 896.608 860.393 898.531 846.703Z"/><path fill="#FFA54F" transform="translate(-187 -190)" d="M193.768 489.704C193.773 489.592 193.777 489.481 193.782 489.37C198.017 469.185 208.733 450.568 224.123 437.013C245.271 418.385 272.547 410.402 300.267 412.012C335.319 412.25 372.371 412.697 407.335 412.104C442.53 411.967 480.74 411.406 515.839 412.141C519.49 412.741 526.418 412.49 529.019 413.224C455.16 413.686 381.299 413.475 307.444 412.591L307.345 412.963C311.822 414.16 315.702 413.168 319.995 414.609C322.054 415.301 324.307 414.396 326.307 415.203C324.413 418.193 323.314 420.677 320.259 422.27C322.496 423.738 365.805 423.087 371.17 423.085L466.68 423.077C471.323 423.076 498.802 422.825 500.955 423.383L350.514 423.857L312.251 423.867C298.934 423.851 284.996 423.199 271.933 426.013C248.107 431.147 229.805 443.808 215.76 463.539L215.451 462.806C217.057 459.468 219.453 457.347 221.731 454.585C239.316 433.252 266.86 422.877 294.08 423.044C295.685 423.054 299.526 423.532 300.157 422.293C298.83 419.647 295.155 413.07 300.741 412.838C298.362 412.831 292.673 412.466 290.41 413.101C288.361 413.676 287.918 413.538 285.888 413.468L285.711 413.913L289.165 415.068C289.322 417.521 282.769 420.661 280.595 421.232C277.781 420.633 274.414 420.211 272.751 417.728C273.206 415.751 273.175 416.305 275.105 414.672C268.282 415.075 250.434 420.771 245.052 424.298C242.954 427.352 243.959 430.342 241.034 431.987C238.697 433.302 235.26 433.979 232.68 434.814C228.41 438.359 230.08 446.004 221.958 444.575C220.384 444.297 218.942 444.224 217.474 445.763C208.267 455.414 200.929 469.605 196.637 482.22C195.803 484.674 196.391 489.047 193.768 489.704Z"/><path fill="#FED7CA" transform="translate(-187 -190)" d="M673.831 727.621C645.592 665.668 662.6 592.467 715.261 549.311C767.922 506.155 843.038 503.859 898.236 543.719C953.434 583.579 974.88 655.605 950.477 719.167L951.503 719.464L951.279 720.221C948.827 728.737 949.112 737.245 946.498 746.314C942.119 761.504 930.77 780.517 922.218 793.833C921.49 794.965 912.538 801.087 910.766 802.625C904.526 808.007 898.67 813.78 891.891 818.514C886.761 822.098 879.595 822.934 873.896 825.391C869.397 827.329 862.899 831.883 857.74 830.68C846.128 839.46 809.862 834.95 796.395 831.469C787.866 829.264 775.928 826.842 768.033 822.768C758.088 817.635 747.555 811.555 737.429 806.523C734.218 804.927 729.05 796.942 726.015 794.515C722.816 791.805 715.358 789.739 712.564 785.538C712.635 783.872 712.768 782.7 712.46 781.042C694.934 764.882 682.652 750.424 672.961 727.942L673.831 727.621Z"/><path fill="#D91D67" transform="translate(-187 -190)" d="M950.477 719.167L951.503 719.464L951.279 720.221C948.827 728.737 949.112 737.245 946.498 746.314C942.119 761.504 930.77 780.517 922.218 793.833C921.49 794.965 912.538 801.087 910.766 802.625C904.526 808.007 898.67 813.78 891.891 818.514C886.761 822.098 879.595 822.934 873.896 825.391C869.397 827.329 862.899 831.883 857.74 830.68C846.128 839.46 809.862 834.95 796.395 831.469C787.866 829.264 775.928 826.842 768.033 822.768C758.088 817.635 747.555 811.555 737.429 806.523C734.218 804.927 729.05 796.942 726.015 794.515C722.816 791.805 715.358 789.739 712.564 785.538C712.635 783.872 712.768 782.7 712.46 781.042C694.934 764.882 682.652 750.424 672.961 727.942L673.831 727.621C698.905 782.631 754.539 817.223 814.965 815.376C875.391 813.53 928.809 775.605 950.477 719.167Z"/><defs><linearGradient id="gradient_1" gradientUnits="userSpaceOnUse" x1="744.87402" y1="567.60022" x2="875.19183" y2="762.79425"><stop offset="0" stop-color="#FF6E33"/><stop offset="1" stop-color="#FF2E3F"/></linearGradient></defs><path fill="url(#gradient_1)" transform="translate(-187 -190)" d="M801.192 547.321C866.363 542.253 923.34 590.891 928.563 656.05C933.785 721.209 885.282 778.302 820.136 783.678C754.77 789.073 697.444 740.372 692.204 674.994C686.964 609.616 735.802 552.406 801.192 547.321Z"/><path fill="#FED7CA" transform="translate(-187 -190)" d="M865.149 583.055C867.331 582.803 869.548 582.539 871.68 583.229C874.563 584.16 877.433 586.468 878.712 589.242C879.882 591.782 879.76 594.568 878.749 597.133C876.653 602.447 844.717 634.441 838.61 639.442C837.427 640.41 836.091 641.079 834.695 641.678C824.493 642.561 817.157 633.447 821.172 627.959C827.967 618.673 856.792 586.946 865.149 583.055Z"/><defs><linearGradient id="gradient_2" gradientUnits="userSpaceOnUse" x1="441.3038" y1="501.7543" x2="439.86047" y2="546.55261"><stop offset="0" stop-color="#AD2216"/><stop offset="1" stop-color="#EF2C1F"/></linearGradient></defs><path fill="url(#gradient_2)" transform="translate(-187 -190)" d="M281.82 534.818C280.372 531.536 279.679 529.979 279.247 526.249C277.89 517.922 285.265 506.681 294.098 506.291C318.861 505.198 344.667 505.676 369.494 505.688L493.601 505.712L555.932 505.702C566.027 505.702 577.044 505.459 587.121 506.12C590.302 506.328 595.27 508.939 597.411 511.311C602.628 517.09 602.732 522.243 602.507 529.29C603.313 532.806 599.358 539.606 597.106 542.263C591.968 548.325 581.878 547.76 574.776 547.807C567.157 547.858 559.744 547.873 552.231 547.896L474.519 548.007L355.516 547.965L317.454 547.935C306.172 547.935 283.561 550.678 281.502 535.508L281.82 534.818Z"/><defs><linearGradient id="gradient_3" gradientUnits="userSpaceOnUse" x1="438.98688" y1="560.14117" x2="442.63092" y2="522.44458"><stop offset="0" stop-color="#FF8F4A"/><stop offset="1" stop-color="#F9815F"/></linearGradient></defs><path fill="url(#gradient_3)" transform="translate(-187 -190)" d="M602.507 529.29C603.313 532.806 599.358 539.606 597.106 542.263C591.968 548.325 581.878 547.76 574.776 547.807C567.157 547.858 559.744 547.873 552.231 547.896L474.519 548.007L355.516 547.965L317.454 547.935C306.172 547.935 283.561 550.678 281.502 535.508L281.82 534.818C286.257 540.063 290.531 543.214 297.577 543.272C313.206 543.4 328.839 543.357 344.47 543.364L436.959 543.356L534.683 543.386C551.051 543.384 567.493 543.469 583.86 543.332C586.122 543.313 588.639 543.122 590.706 542.234C597.686 539.235 599.774 535.766 602.507 529.29Z"/><defs><linearGradient id="gradient_4" gradientUnits="userSpaceOnUse" x1="440.78" y1="813.94061" x2="440.34012" y2="852.17584"><stop offset="0" stop-color="#A01024"/><stop offset="1" stop-color="#D51730"/></linearGradient></defs><path fill="url(#gradient_4)" transform="translate(-187 -190)" d="M281.306 843.279C275.835 828.588 282.206 815.466 298.759 815.06C314.843 814.665 330.903 814.834 346.991 814.835L440.999 814.836L535.627 814.813C552.239 814.809 569.331 814.37 585.89 815.198C598.517 815.829 603.41 827.656 602.221 838.746C602.632 842.83 601.054 846.847 598.469 849.902C594.227 854.915 588.164 856.753 581.754 856.859C563.77 857.157 545.566 856.808 527.585 856.851L414.965 857.05L337.608 857.091C324.494 857.107 311.31 857.224 298.205 856.848C290.677 856.632 281.579 851.687 281.306 843.279Z"/><path fill="#FE6063" transform="translate(-187 -190)" d="M602.221 838.746C602.632 842.83 601.054 846.847 598.469 849.902C594.227 854.915 588.164 856.753 581.754 856.859C563.77 857.157 545.566 856.808 527.585 856.851L414.965 857.05L337.608 857.091C324.494 857.107 311.31 857.224 298.205 856.848C290.677 856.632 281.579 851.687 281.306 843.279C286.126 849.082 290.837 852.191 298.655 852.258C312.712 852.381 326.776 852.308 340.835 852.294L422.141 852.265L526.578 852.321C544.944 852.329 563.376 852.405 581.738 852.244C584.451 852.22 588.946 852.091 591.376 850.953C597.332 848.164 599.895 844.637 602.221 838.746Z"/><defs><linearGradient id="gradient_5" gradientUnits="userSpaceOnUse" x1="441.29785" y1="656.54541" x2="439.85049" y2="700.87549"><stop offset="0" stop-color="#A4181A"/><stop offset="1" stop-color="#E72126"/></linearGradient></defs><path fill="url(#gradient_5)" transform="translate(-187 -190)" d="M280.564 686.878C277.786 677.292 279.405 668.124 288.448 662.743C291.639 660.844 298.03 660.299 301.774 660.271C321.71 660.123 341.657 660.229 361.594 660.241L475.106 660.2L549.229 660.214C561.2 660.217 574.399 659.619 586.241 660.491C599.107 661.438 603.765 673.33 602.213 684.517C602.323 688.623 600.786 692.602 597.944 695.568C589.398 704.537 565.791 702.159 553.684 702.186L495.846 702.288L308.645 702.343C299.322 702.299 282.292 703.218 280.509 687.394C280.527 687.222 280.546 687.05 280.564 686.878Z"/><path fill="#F95348" transform="translate(-187 -190)" d="M602.213 684.517C602.323 688.623 600.786 692.602 597.944 695.568C589.398 704.537 565.791 702.159 553.684 702.186L495.846 702.288L308.645 702.343C299.322 702.299 282.292 703.218 280.509 687.394C280.527 687.222 280.546 687.05 280.564 686.878C282.446 690.572 285.451 693.574 289.147 695.453C291.541 696.648 294.404 697.348 297.071 697.369C313.03 697.494 329.083 697.438 345.037 697.44L438.341 697.449L534.93 697.503C551.439 697.525 568.027 697.567 584.54 697.518C586.614 697.512 588.647 697.223 590.567 696.44C596.882 693.865 599.607 690.53 602.213 684.517Z"/><defs><linearGradient id="gradient_6" gradientUnits="userSpaceOnUse" x1="440.95764" y1="735.711" x2="440.19443" y2="776.1048"><stop offset="0" stop-color="#A1141E"/><stop offset="1" stop-color="#DE1D2A"/></linearGradient></defs><path fill="url(#gradient_6)" transform="translate(-187 -190)" d="M281.1 765.47C275.972 751.458 282.268 738.419 297.955 737.901C312.795 737.412 327.575 737.576 342.426 737.574L429.366 737.555L530.222 737.532C547.272 737.53 569.399 736.859 585.808 737.945C590.812 738.312 595.446 740.72 598.622 744.605C603.095 750.029 602.947 755.342 602.201 761.694C603.025 768.937 594.646 778.345 587.497 778.804C571.916 779.807 556.009 779.401 540.379 779.435L450.459 779.554L347.294 779.552C330.474 779.536 313.612 779.794 296.81 779.301C289.043 779.072 281.796 773.448 281.1 765.47Z"/><path fill="#FE6063" transform="translate(-187 -190)" d="M602.201 761.694C603.025 768.937 594.646 778.345 587.497 778.804C571.916 779.807 556.009 779.401 540.379 779.435L450.459 779.554L347.294 779.552C330.474 779.536 313.612 779.794 296.81 779.301C289.043 779.072 281.796 773.448 281.1 765.47C286.16 773.29 291.537 774.93 300.294 774.973C316.608 775.052 332.92 775.019 349.234 775.037L452.117 775.05L537.311 775.134C552.667 775.152 568.015 775.263 583.369 775.037C593.304 774.891 598.457 770.807 602.201 761.694Z"/><defs><linearGradient id="gradient_7" gradientUnits="userSpaceOnUse" x1="441.22937" y1="579.8241" x2="439.93176" y2="623.35626"><stop offset="0" stop-color="#AA1D17"/><stop offset="1" stop-color="#EA2622"/></linearGradient></defs><path fill="url(#gradient_7)" transform="translate(-187 -190)" d="M280.603 609.91C276.809 596.49 282.519 583.951 297.596 583.417C314.367 582.822 331.247 583.129 348.043 583.134L445.462 583.14L537.725 583.161C553.221 583.168 569.149 582.744 584.62 583.467C598.382 584.11 603.74 594.373 602.198 607.247C603.488 614.306 594.387 623.793 587.617 624.378C575.862 625.395 563.647 624.794 551.82 624.897C522.921 625.118 494.021 625.154 465.122 625.004L355.956 625.084C336.184 625.098 316.362 625.379 296.614 624.609C289.038 624.313 280.093 617.994 280.603 609.91Z"/><defs><linearGradient id="gradient_8" gradientUnits="userSpaceOnUse" x1="441.99109" y1="605.05981" x2="440.59299" y2="631.15308"><stop offset="0" stop-color="#FD7055"/><stop offset="1" stop-color="#FF8E5F"/></linearGradient></defs><path fill="url(#gradient_8)" transform="translate(-187 -190)" d="M602.198 607.247C603.488 614.306 594.387 623.793 587.617 624.378C575.862 625.395 563.647 624.794 551.82 624.897C522.921 625.118 494.021 625.154 465.122 625.004L355.956 625.084C336.184 625.098 316.362 625.379 296.614 624.609C289.038 624.313 280.093 617.994 280.603 609.91C284.107 616.386 290.166 620.355 297.557 620.403C310.753 620.488 323.947 620.453 337.145 620.455L415.094 620.465L527.129 620.489C546.481 620.508 566.2 620.652 585.562 620.317C587.009 620.292 589.223 619.819 590.567 619.26C597.14 616.525 599.483 613.281 602.198 607.247Z"/><path fill="#F95348" transform="translate(-187 -190)" d="M757.885 234.158C757.946 230.999 757.975 227.95 758.506 224.828C763.693 194.327 801.912 184.047 822.424 206.895C829.084 214.273 832.467 224.036 831.8 233.953C830.981 244.152 826.136 253.606 818.336 260.227C811.044 266.417 801.582 269.438 792.053 268.62C780.566 267.564 772.389 261.691 764.918 253.374C758.605 256.259 749.429 259.234 742.738 261.62L703.861 275.466L581.717 319.12C542.213 333.612 502.608 347.828 462.906 361.767L426.725 374.757C422.237 376.364 413.398 379.873 409.069 380.982C406.257 382.148 403.405 383.214 400.518 384.178C409.55 392.482 407.296 400.773 407.335 412.104C372.371 412.697 335.319 412.25 300.267 412.012C300.042 404.958 299.134 395.285 302.487 388.937C309.819 375.056 329.348 382.006 341.803 379.996C346.367 379.259 354.398 375.987 358.923 374.366C408.56 356.52 458.3 338.963 508.141 321.695C527.283 315.083 548.322 306.898 567.504 300.974C580.119 295.926 594.818 291.082 607.742 286.584L679.415 261.69L733.466 242.508C739.31 240.467 752.213 235.567 757.885 234.158Z"/><path fill="#FE7923" transform="translate(-187 -190)" d="M300.267 412.012C300.042 404.958 299.134 395.285 302.487 388.937C309.819 375.056 329.348 382.006 341.803 379.996C346.367 379.259 354.398 375.987 358.923 374.366C408.56 356.52 458.3 338.963 508.141 321.695C527.283 315.083 548.322 306.898 567.504 300.974L566.928 302.367C545.78 309.436 506.325 323.683 483.731 331.654C483.658 331.68 480.164 336.449 479.183 337.058C468.847 343.477 459.066 349.466 447.924 354.277C436.041 359.409 424.508 364.676 412.632 369.487C404.014 372.978 397.304 374.789 388.664 378.856L388.632 379.277C392.402 379.378 397.762 381.75 401.572 382.508C401.487 382.491 408.2 380.264 408.76 380.086L409.069 380.982C406.257 382.148 403.405 383.214 400.518 384.178C409.55 392.482 407.296 400.773 407.335 412.104C372.371 412.697 335.319 412.25 300.267 412.012Z"/><path fill="#FE6063" transform="translate(-187 -190)" d="M787.509 202.668C802.929 205.533 796.351 226.921 778.952 228.934C760.964 227.675 768.294 204.775 787.509 202.668Z"/></g></svg>
