<?xml version="1.0" encoding="UTF-8"?>
<svg xmlns="http://www.w3.org/2000/svg" xmlns:xlink="http://www.w3.org/1999/xlink" width="24px" height="24px" viewBox="0 0 24 24" version="1.1">
<defs>
<linearGradient id="linear0" gradientUnits="userSpaceOnUse" x1="635.499023" y1="568.763733" x2="958.359741" y2="762.832764" gradientTransform="matrix(0.0191388,0,0,0.0191388,0,0)">
<stop offset="0" style="stop-color:rgb(100%,36.078431%,10.980392%);stop-opacity:1;"/>
<stop offset="1" style="stop-color:rgb(81.960784%,1.960784%,41.176471%);stop-opacity:1;"/>
</linearGradient>
<linearGradient id="linear1" gradientUnits="userSpaceOnUse" x1="376.915802" y1="490.470947" x2="647.205139" y2="661.56665" gradientTransform="matrix(0.0191388,0,0,0.0191388,0,0)">
<stop offset="0" style="stop-color:rgb(100%,41.568627%,9.411765%);stop-opacity:1;"/>
<stop offset="1" style="stop-color:rgb(100%,14.117647%,27.058824%);stop-opacity:1;"/>
</linearGradient>
<linearGradient id="linear2" gradientUnits="userSpaceOnUse" x1="374.023041" y1="602.484253" x2="607.62262" y2="801.196167" gradientTransform="matrix(0.0191388,0,0,0.0191388,0,0)">
<stop offset="0" style="stop-color:rgb(100%,39.215686%,11.764706%);stop-opacity:1;"/>
<stop offset="1" style="stop-color:rgb(98.823529%,10.588235%,30.980392%);stop-opacity:1;"/>
</linearGradient>
<linearGradient id="linear3" gradientUnits="userSpaceOnUse" x1="354.830566" y1="767.427734" x2="546.883057" y2="941.684875" gradientTransform="matrix(0.0191388,0,0,0.0191388,0,0)">
<stop offset="0" style="stop-color:rgb(100%,30.980392%,17.647059%);stop-opacity:1;"/>
<stop offset="1" style="stop-color:rgb(92.54902%,7.45098%,35.294118%);stop-opacity:1;"/>
</linearGradient>
<linearGradient id="linear4" gradientUnits="userSpaceOnUse" x1="470.79184" y1="292.277161" x2="621.584595" y2="420.839783" gradientTransform="matrix(0.0191388,0,0,0.0191388,0,0)">
<stop offset="0" style="stop-color:rgb(100%,40.784314%,9.803922%);stop-opacity:1;"/>
<stop offset="1" style="stop-color:rgb(100%,22.352941%,23.137255%);stop-opacity:1;"/>
</linearGradient>
<linearGradient id="linear5" gradientUnits="userSpaceOnUse" x1="498.088959" y1="360.752258" x2="594.252686" y2="444.877808" gradientTransform="matrix(0.0191388,0,0,0.0191388,0,0)">
<stop offset="0" style="stop-color:rgb(100%,33.72549%,15.686275%);stop-opacity:1;"/>
<stop offset="1" style="stop-color:rgb(100%,20.392157%,23.137255%);stop-opacity:1;"/>
</linearGradient>
</defs>
<g id="surface1">
<path style=" stroke:none;fill-rule:nonzero;fill:url(#linear0);" d="M 17.542969 7.527344 C 17.769531 7.53125 17.949219 7.617188 18.0625 7.824219 C 18.113281 7.917969 18.121094 8.050781 18.125 8.160156 C 18.136719 8.539062 18.128906 8.917969 18.125 9.296875 L 18.128906 11.375 L 18.128906 13.460938 C 18.128906 13.957031 18.175781 14.628906 18.035156 15.089844 C 17.765625 15.976562 16.707031 16.539062 15.820312 16.234375 C 15.453125 16.105469 15.152344 15.839844 14.984375 15.488281 C 14.8125 15.128906 14.792969 14.742188 14.929688 14.367188 C 15.09375 13.917969 15.433594 13.554688 15.871094 13.355469 C 16.351562 13.132812 16.785156 13.15625 17.269531 13.339844 C 17.289062 12.492188 17.257812 11.625 17.269531 10.777344 C 17.273438 10.4375 17.285156 10.039062 17.253906 9.710938 C 17.140625 9.703125 17.03125 9.722656 16.921875 9.75 C 16.679688 9.804688 14.175781 10.492188 14.136719 10.53125 C 14.050781 10.617188 14.074219 10.820312 14.074219 10.933594 L 14.074219 15.144531 C 14.074219 15.507812 14.101562 15.933594 14.003906 16.28125 C 13.769531 17.136719 12.796875 17.675781 11.945312 17.417969 C 11.589844 17.304688 11.289062 17.058594 11.113281 16.726562 C 10.925781 16.371094 10.898438 15.953125 11.019531 15.570312 C 11.15625 15.132812 11.460938 14.769531 11.867188 14.558594 C 12.34375 14.308594 12.742188 14.332031 13.242188 14.484375 L 13.238281 10.8125 L 13.238281 9.859375 C 13.234375 9.632812 13.21875 9.40625 13.246094 9.183594 C 13.3125 8.628906 13.769531 8.585938 14.199219 8.460938 L 15.328125 8.144531 L 16.710938 7.746094 C 16.9375 7.679688 17.328125 7.554688 17.542969 7.527344 Z M 17.542969 7.527344 "/>
<path style=" stroke:none;fill-rule:nonzero;fill:url(#linear1);" d="M 6.867188 9.65625 C 7.300781 9.648438 7.746094 9.65625 8.179688 9.65625 L 10.519531 9.660156 L 11.894531 9.660156 C 11.996094 9.660156 12.097656 9.660156 12.199219 9.660156 C 12.59375 9.65625 12.867188 9.628906 12.871094 10.121094 L 12.867188 11.25 C 12.871094 11.398438 12.894531 11.929688 12.828125 12.027344 C 12.695312 12.09375 11.910156 12.066406 11.707031 12.066406 L 7.695312 12.066406 C 7.390625 12.066406 7.074219 12.066406 6.769531 12.070312 C 6.089844 12.078125 6.019531 11.621094 6.070312 11.054688 C 6.070312 11.046875 6.070312 11.039062 6.070312 11.03125 C 6.066406 10.839844 6.054688 10.226562 6.09375 10.070312 C 6.117188 9.980469 6.164062 9.894531 6.230469 9.828125 C 6.417969 9.640625 6.628906 9.652344 6.867188 9.65625 Z M 7.410156 11.242188 C 7.546875 11.214844 7.65625 11.117188 7.695312 10.988281 C 7.738281 10.859375 7.707031 10.714844 7.613281 10.617188 C 7.523438 10.515625 7.382812 10.472656 7.25 10.503906 C 7.050781 10.554688 6.925781 10.753906 6.972656 10.953125 C 7.015625 11.152344 7.210938 11.28125 7.410156 11.242188 Z M 7.410156 11.242188 "/>
<path style=" stroke:none;fill-rule:nonzero;fill:rgb(99.607843%,42.352942%,8.235294%);fill-opacity:1;" d="M 6.070312 11.054688 C 6.070312 11.046875 6.070312 11.039062 6.070312 11.03125 C 6.066406 10.839844 6.054688 10.226562 6.09375 10.070312 C 6.117188 9.980469 6.164062 9.894531 6.230469 9.828125 C 6.417969 9.640625 6.628906 9.652344 6.867188 9.65625 C 6.921875 9.699219 7 9.6875 7.066406 9.6875 L 7.066406 9.695312 L 7.039062 9.699219 C 7.039062 9.789062 7.066406 9.816406 6.996094 9.902344 C 6.777344 10.175781 6.617188 10.507812 6.414062 10.792969 C 6.382812 10.839844 6.390625 10.902344 6.347656 10.941406 C 6.296875 10.910156 6.335938 10.875 6.292969 10.882812 C 6.214844 10.988281 6.179688 11.09375 6.179688 11.226562 C 6.148438 11.265625 6.144531 11.265625 6.125 11.3125 C 6.105469 11.148438 6.105469 11.027344 6.09375 10.871094 C 6.074219 10.953125 6.082031 10.988281 6.070312 11.054688 Z M 6.070312 11.054688 "/>
<path style=" stroke:none;fill-rule:nonzero;fill:url(#linear2);" d="M 12.488281 12.425781 C 12.671875 12.414062 12.871094 12.414062 12.871094 12.648438 C 12.867188 13.058594 12.875 13.472656 12.867188 13.882812 C 12.867188 13.894531 12.84375 13.960938 12.832031 13.964844 C 12.6875 14.015625 12.523438 14 12.367188 14.019531 C 12.277344 14.03125 12.183594 14.046875 12.09375 14.070312 C 11.824219 14.132812 11.542969 14.292969 11.335938 14.476562 C 11.214844 14.582031 11.09375 14.757812 10.929688 14.757812 C 10.625 14.761719 10.320312 14.761719 10.011719 14.761719 L 8.269531 14.761719 L 7.238281 14.765625 C 7.011719 14.765625 6.699219 14.777344 6.488281 14.738281 C 6.265625 14.675781 6.085938 14.496094 6.078125 14.261719 C 6.0625 13.933594 6.070312 13.589844 6.070312 13.257812 C 6.074219 13.058594 6.054688 12.804688 6.191406 12.640625 C 6.410156 12.378906 6.816406 12.433594 7.125 12.433594 L 7.992188 12.433594 L 10.925781 12.4375 L 11.871094 12.4375 C 12.070312 12.4375 12.292969 12.441406 12.488281 12.425781 Z M 7.398438 13.945312 C 7.605469 13.910156 7.746094 13.714844 7.710938 13.507812 C 7.675781 13.304688 7.480469 13.164062 7.273438 13.203125 C 7.070312 13.238281 6.933594 13.433594 6.96875 13.636719 C 7 13.839844 7.195312 13.980469 7.398438 13.945312 Z M 7.398438 13.945312 "/>
<path style=" stroke:none;fill-rule:nonzero;fill:url(#linear3);" d="M 6.539062 15.132812 C 6.816406 15.117188 7.160156 15.125 7.441406 15.125 L 10.027344 15.125 C 10.226562 15.125 10.5625 15.113281 10.746094 15.15625 C 10.722656 15.308594 10.65625 15.480469 10.621094 15.636719 C 10.511719 16.113281 10.585938 16.601562 10.84375 17.015625 C 10.90625 17.121094 11.039062 17.238281 11.082031 17.351562 C 11.09375 17.386719 11.074219 17.398438 11.058594 17.417969 C 10.976562 17.460938 10.882812 17.449219 10.785156 17.449219 C 9.8125 17.433594 8.816406 17.449219 7.839844 17.445312 C 7.605469 17.445312 7.375 17.445312 7.144531 17.449219 C 6.976562 17.449219 6.816406 17.453125 6.648438 17.445312 C 5.914062 17.398438 6.078125 16.695312 6.070312 16.183594 C 6.0625 15.730469 5.972656 15.261719 6.539062 15.132812 Z M 7.414062 16.628906 C 7.542969 16.601562 7.652344 16.507812 7.695312 16.378906 C 7.734375 16.25 7.707031 16.109375 7.613281 16.007812 C 7.523438 15.910156 7.386719 15.867188 7.253906 15.898438 C 7.054688 15.941406 6.929688 16.140625 6.972656 16.339844 C 7.015625 16.542969 7.210938 16.667969 7.414062 16.628906 Z M 7.414062 16.628906 "/>
<path style=" stroke:none;fill-rule:nonzero;fill:url(#linear4);" d="M 10.222656 5.640625 C 10.324219 5.632812 10.445312 5.632812 10.546875 5.636719 C 11.253906 5.65625 11.933594 5.90625 12.484375 6.34375 C 12.636719 6.464844 12.902344 6.65625 12.890625 6.867188 C 12.882812 7.023438 12.671875 7.167969 12.53125 7.105469 C 12.421875 7.054688 12.300781 6.925781 12.207031 6.84375 C 11.777344 6.484375 11.296875 6.285156 10.738281 6.226562 C 10.066406 6.140625 9.328125 6.359375 8.789062 6.769531 C 8.609375 6.90625 8.386719 7.246094 8.128906 7.058594 C 8.070312 7.015625 8.03125 6.953125 8.023438 6.878906 C 7.996094 6.65625 8.289062 6.445312 8.445312 6.320312 C 8.96875 5.898438 9.5625 5.714844 10.222656 5.640625 Z M 10.222656 5.640625 "/>
<path style=" stroke:none;fill-rule:nonzero;fill:url(#linear5);" d="M 10.28125 6.882812 C 10.839844 6.800781 11.5625 7.101562 11.929688 7.511719 C 12.0625 7.65625 12.046875 7.863281 11.886719 7.972656 C 11.652344 8.128906 11.398438 7.734375 11.210938 7.648438 C 10.996094 7.539062 10.867188 7.496094 10.632812 7.457031 C 10.113281 7.414062 9.730469 7.566406 9.367188 7.914062 C 9.308594 7.972656 9.242188 7.988281 9.164062 8.007812 C 8.890625 7.945312 8.800781 7.714844 8.980469 7.511719 C 9.3125 7.136719 9.808594 6.9375 10.28125 6.882812 Z M 10.28125 6.882812 "/>
<path style=" stroke:none;fill-rule:nonzero;fill:rgb(99.607843%,22.352941%,21.960784%);fill-opacity:1;" d="M 10.421875 8.078125 C 10.6875 8.058594 10.917969 8.257812 10.9375 8.523438 C 10.957031 8.789062 10.757812 9.019531 10.492188 9.042969 C 10.226562 9.0625 9.992188 8.863281 9.972656 8.59375 C 9.953125 8.328125 10.15625 8.09375 10.421875 8.078125 Z M 10.421875 8.078125 "/>
</g>
</svg>
