<?xml version="1.0" encoding="UTF-8"?>
<svg xmlns="http://www.w3.org/2000/svg" xmlns:xlink="http://www.w3.org/1999/xlink" width="24px" height="24px" viewBox="0 0 24 24" version="1.1">
<defs>
<linearGradient id="linear0" gradientUnits="userSpaceOnUse" x1="301.610748" y1="371.572296" x2="668.325012" y2="746.557129" gradientTransform="matrix(0.0234375,0,0,0.0234375,0,0)">
<stop offset="0" style="stop-color:rgb(100%,30.588235%,15.686275%);stop-opacity:1;"/>
<stop offset="1" style="stop-color:rgb(76.078431%,12.54902%,53.72549%);stop-opacity:1;"/>
</linearGradient>
<linearGradient id="linear1" gradientUnits="userSpaceOnUse" x1="191.836487" y1="240.795944" x2="329.931732" y2="373.342987" gradientTransform="matrix(0.0234375,0,0,0.0234375,0,0)">
<stop offset="0" style="stop-color:rgb(100%,54.117647%,4.705882%);stop-opacity:1;"/>
<stop offset="1" style="stop-color:rgb(100%,32.941176%,19.215686%);stop-opacity:1;"/>
</linearGradient>
<linearGradient id="linear2" gradientUnits="userSpaceOnUse" x1="713.845337" y1="511.43512" x2="844.048767" y2="640.777893" gradientTransform="matrix(0.0234375,0,0,0.0234375,0,0)">
<stop offset="0" style="stop-color:rgb(92.156863%,21.176471%,30.980392%);stop-opacity:1;"/>
<stop offset="1" style="stop-color:rgb(72.156863%,13.72549%,57.254902%);stop-opacity:1;"/>
</linearGradient>
<linearGradient id="linear3" gradientUnits="userSpaceOnUse" x1="676.119446" y1="295.162903" x2="805.582764" y2="434.659943" gradientTransform="matrix(0.0234375,0,0,0.0234375,0,0)">
<stop offset="0" style="stop-color:rgb(100%,40.784314%,12.54902%);stop-opacity:1;"/>
<stop offset="1" style="stop-color:rgb(93.72549%,17.254902%,30.980392%);stop-opacity:1;"/>
</linearGradient>
<linearGradient id="linear4" gradientUnits="userSpaceOnUse" x1="649.933533" y1="449.056549" x2="729.649292" y2="554.107178" gradientTransform="matrix(0.0234375,0,0,0.0234375,0,0)">
<stop offset="0" style="stop-color:rgb(100%,25.882353%,22.745098%);stop-opacity:1;"/>
<stop offset="1" style="stop-color:rgb(89.411765%,19.215686%,37.647059%);stop-opacity:1;"/>
</linearGradient>
</defs>
<g id="surface1">
<path style=" stroke:none;fill-rule:nonzero;fill:url(#linear0);" d="M 4.359375 12.058594 C 4.347656 11.8125 4.355469 11.5 4.355469 11.242188 L 4.355469 9.742188 C 4.355469 8.554688 4.355469 7.363281 4.355469 6.175781 C 4.355469 5.925781 4.429688 5.671875 4.617188 5.496094 C 4.734375 5.386719 4.894531 5.289062 5.054688 5.265625 C 5.304688 5.230469 5.578125 5.246094 5.828125 5.246094 L 6.917969 5.25 L 9.386719 5.25 C 9.84375 5.25 10.316406 5.242188 10.769531 5.25 C 11.648438 5.234375 12.554688 5.25 13.433594 5.25 L 14.320312 5.25 C 14.488281 5.25 14.730469 5.242188 14.890625 5.265625 C 15.042969 5.289062 15.1875 5.359375 15.300781 5.464844 C 15.546875 5.699219 15.589844 5.921875 15.59375 6.25 C 15.59375 7.097656 15.59375 7.949219 15.59375 8.796875 L 15.589844 13.617188 L 15.589844 16.003906 L 15.59375 16.785156 C 15.597656 17.148438 15.636719 17.558594 15.359375 17.84375 C 15.117188 18.089844 14.894531 18.113281 14.5625 18.117188 L 6.109375 18.117188 C 5.78125 18.117188 5.417969 18.128906 5.09375 18.105469 C 4.941406 18.09375 4.726562 17.976562 4.621094 17.863281 C 4.382812 17.613281 4.359375 17.414062 4.355469 17.097656 L 4.355469 12.617188 C 4.355469 12.472656 4.347656 12.195312 4.359375 12.058594 Z M 8.40625 13.082031 C 8.035156 12.929688 7.734375 12.882812 7.355469 13.046875 C 6.417969 13.441406 6.453125 14.730469 7.402344 15.085938 C 7.714844 15.203125 8.058594 15.191406 8.355469 15.050781 C 8.640625 14.917969 8.859375 14.679688 8.96875 14.386719 C 9 14.300781 9.019531 14.214844 9.03125 14.125 C 9.042969 14.011719 9.039062 13.84375 9.039062 13.726562 L 9.039062 10.988281 L 9.035156 10.808594 C 9.71875 10.648438 10.4375 10.382812 11.109375 10.1875 C 11.371094 10.109375 11.761719 9.976562 12.023438 9.925781 L 12.023438 12.257812 C 11.644531 12.113281 11.332031 12.058594 10.945312 12.230469 C 10.671875 12.347656 10.457031 12.574219 10.355469 12.855469 C 10.253906 13.117188 10.265625 13.40625 10.378906 13.660156 C 10.507812 13.941406 10.746094 14.15625 11.035156 14.261719 C 11.347656 14.371094 11.6875 14.355469 11.988281 14.210938 C 12.269531 14.082031 12.484375 13.84375 12.589844 13.550781 C 12.6875 13.269531 12.65625 12.753906 12.65625 12.4375 L 12.65625 9.664062 C 12.65625 9.375 12.65625 9.082031 12.648438 8.792969 C 12.648438 8.722656 12.644531 8.628906 12.613281 8.5625 C 12.550781 8.433594 12.414062 8.335938 12.265625 8.347656 C 12.042969 8.386719 11.730469 8.488281 11.511719 8.554688 C 11.222656 8.648438 10.9375 8.738281 10.648438 8.824219 L 9.359375 9.207031 C 9.109375 9.28125 8.855469 9.351562 8.613281 9.449219 C 8.464844 9.507812 8.421875 9.675781 8.414062 9.820312 C 8.410156 10.007812 8.410156 10.195312 8.410156 10.382812 L 8.410156 12.339844 C 8.40625 12.570312 8.398438 12.851562 8.40625 13.082031 Z M 8.40625 13.082031 "/>
<path style=" stroke:none;fill-rule:nonzero;fill:url(#linear1);" d="M 4.359375 12.058594 C 4.347656 11.8125 4.355469 11.5 4.355469 11.242188 L 4.355469 9.742188 C 4.355469 8.554688 4.355469 7.363281 4.355469 6.175781 C 4.355469 5.925781 4.429688 5.671875 4.617188 5.496094 C 4.734375 5.386719 4.894531 5.289062 5.054688 5.265625 C 5.304688 5.230469 5.578125 5.246094 5.828125 5.246094 L 6.917969 5.25 L 9.386719 5.25 C 9.84375 5.25 10.316406 5.242188 10.769531 5.25 C 10.707031 5.265625 10.667969 5.257812 10.605469 5.261719 C 10.644531 5.269531 10.679688 5.277344 10.710938 5.296875 C 10.75 5.402344 10.652344 5.394531 10.644531 5.484375 L 10.652344 5.503906 C 10.671875 5.5 10.6875 5.496094 10.703125 5.488281 C 10.695312 5.542969 10.617188 5.542969 10.597656 5.597656 C 10.664062 5.613281 10.648438 5.585938 10.6875 5.613281 C 10.675781 5.691406 10.628906 5.703125 10.5625 5.722656 L 10.578125 5.78125 C 10.507812 5.863281 10.4375 5.945312 10.359375 6.019531 C 10.199219 6.179688 10.027344 6.332031 9.863281 6.488281 C 9.652344 6.695312 8.519531 7.835938 8.378906 7.871094 C 8.359375 7.875 8.363281 7.875 8.351562 7.890625 C 8.21875 8.066406 7.84375 8.328125 7.710938 8.550781 C 7.671875 8.601562 7.632812 8.667969 7.589844 8.710938 C 7.503906 8.757812 7.445312 8.777344 7.382812 8.859375 C 7.347656 8.90625 7.328125 8.941406 7.285156 8.988281 C 7.214844 9.046875 7.160156 9.085938 7.105469 9.160156 L 7.085938 9.175781 C 7.050781 9.21875 6.976562 9.296875 6.949219 9.335938 L 6.9375 9.34375 C 6.820312 9.46875 6.65625 9.667969 6.554688 9.808594 C 6.515625 9.859375 6.476562 9.992188 6.429688 10.046875 C 6.289062 10.214844 6.082031 10.300781 5.910156 10.425781 C 5.804688 10.503906 5.722656 10.605469 5.609375 10.675781 C 5.566406 10.699219 5.550781 10.707031 5.519531 10.742188 C 5.421875 10.847656 5.324219 10.929688 5.21875 11.027344 C 5.210938 11.035156 5.222656 11.113281 5.210938 11.121094 C 4.996094 11.328125 4.8125 11.566406 4.613281 11.785156 C 4.601562 11.800781 4.480469 11.804688 4.453125 11.804688 C 4.421875 11.757812 4.4375 11.722656 4.402344 11.691406 C 4.378906 11.773438 4.382812 11.957031 4.359375 12.058594 Z M 4.359375 12.058594 "/>
<path style=" stroke:none;fill-rule:nonzero;fill:rgb(100%,40.000001%,13.725491%);fill-opacity:1;" d="M 8.351562 7.890625 L 8.371094 7.914062 C 8.328125 8.0625 7.945312 8.339844 7.84375 8.472656 C 7.804688 8.523438 7.796875 8.5625 7.710938 8.550781 C 7.84375 8.328125 8.21875 8.066406 8.351562 7.890625 Z M 8.351562 7.890625 "/>
<path style=" stroke:none;fill-rule:nonzero;fill:rgb(100%,40.000001%,13.725491%);fill-opacity:1;" d="M 7.589844 8.710938 C 7.613281 8.816406 7.46875 8.859375 7.382812 8.859375 C 7.445312 8.777344 7.503906 8.757812 7.589844 8.710938 Z M 7.589844 8.710938 "/>
<path style=" stroke:none;fill-rule:nonzero;fill:rgb(100%,40.000001%,13.725491%);fill-opacity:1;" d="M 7.285156 8.988281 C 7.308594 9.070312 7.175781 9.15625 7.105469 9.160156 C 7.160156 9.085938 7.214844 9.046875 7.285156 8.988281 Z M 7.285156 8.988281 "/>
<path style=" stroke:none;fill-rule:nonzero;fill:rgb(100%,40.000001%,13.725491%);fill-opacity:1;" d="M 7.085938 9.175781 C 7.085938 9.25 7.035156 9.328125 6.960938 9.339844 L 6.949219 9.335938 C 6.976562 9.296875 7.050781 9.21875 7.085938 9.175781 Z M 7.085938 9.175781 "/>
<path style=" stroke:none;fill-rule:nonzero;fill:rgb(100%,40.000001%,13.725491%);fill-opacity:1;" d="M 5.519531 10.742188 C 5.550781 10.707031 5.566406 10.699219 5.609375 10.675781 L 5.625 10.707031 C 5.609375 10.746094 5.621094 10.730469 5.582031 10.75 C 5.550781 10.75 5.550781 10.753906 5.519531 10.742188 Z M 5.519531 10.742188 "/>
<path style=" stroke:none;fill-rule:nonzero;fill:url(#linear2);" d="M 15.886719 6.316406 C 16.078125 6.332031 16.304688 6.351562 16.492188 6.398438 C 16.71875 6.4375 16.914062 6.5 17.128906 6.578125 C 18.125 6.953125 18.992188 7.617188 19.605469 8.484375 C 19.691406 8.601562 19.839844 8.820312 19.890625 8.945312 C 19.941406 8.996094 20.066406 9.253906 20.097656 9.324219 C 20.476562 10.121094 20.671875 10.992188 20.671875 11.871094 C 20.65625 13.367188 20.054688 14.796875 19 15.859375 C 18.183594 16.671875 17.058594 17.269531 15.890625 17.3125 C 15.882812 16.246094 15.878906 15.179688 15.882812 14.117188 C 16.550781 14 17 13.773438 17.402344 13.199219 C 17.769531 12.679688 17.914062 12.03125 17.808594 11.402344 C 17.761719 11.140625 17.675781 10.925781 17.5625 10.683594 C 17.535156 10.648438 17.488281 10.566406 17.460938 10.523438 C 17.386719 10.40625 17.300781 10.292969 17.207031 10.191406 C 16.875 9.824219 16.386719 9.546875 15.886719 9.523438 C 15.878906 9.214844 15.886719 8.898438 15.886719 8.585938 C 15.878906 8.1875 15.878906 7.789062 15.882812 7.390625 C 15.871094 7.0625 15.875 6.644531 15.886719 6.316406 Z M 15.886719 6.316406 "/>
<path style=" stroke:none;fill-rule:nonzero;fill:url(#linear3);" d="M 15.886719 6.316406 C 16.078125 6.332031 16.304688 6.351562 16.492188 6.398438 C 16.71875 6.4375 16.914062 6.5 17.128906 6.578125 C 18.125 6.953125 18.992188 7.617188 19.605469 8.484375 C 19.691406 8.601562 19.839844 8.820312 19.890625 8.945312 C 19.882812 9.007812 19.941406 9.019531 19.9375 9.109375 C 19.894531 9.085938 19.910156 9.082031 19.871094 9.089844 C 19.792969 9.152344 19.773438 9.226562 19.703125 9.292969 C 19.644531 9.347656 19.574219 9.402344 19.515625 9.460938 C 19.160156 9.828125 18.792969 10.179688 18.4375 10.550781 C 18.253906 10.742188 18.039062 10.929688 17.867188 11.132812 C 17.847656 11.152344 17.84375 11.15625 17.824219 11.171875 C 17.753906 11.109375 17.648438 10.734375 17.570312 10.691406 L 17.5625 10.683594 C 17.535156 10.648438 17.488281 10.566406 17.460938 10.523438 C 17.386719 10.40625 17.300781 10.292969 17.207031 10.191406 C 16.875 9.824219 16.386719 9.546875 15.886719 9.523438 C 15.878906 9.214844 15.886719 8.898438 15.886719 8.585938 C 15.878906 8.1875 15.878906 7.789062 15.882812 7.390625 C 15.871094 7.0625 15.875 6.644531 15.886719 6.316406 Z M 15.886719 6.316406 "/>
<path style=" stroke:none;fill-rule:nonzero;fill:rgb(100%,40.000001%,13.725491%);fill-opacity:1;" d="M 15.886719 6.316406 C 16.078125 6.332031 16.304688 6.351562 16.492188 6.398438 C 16.445312 6.398438 16.449219 6.390625 16.417969 6.414062 L 16.417969 6.429688 C 16.414062 6.488281 16.421875 6.511719 16.378906 6.550781 C 16.289062 6.628906 16.171875 6.691406 16.082031 6.769531 C 16.035156 6.808594 16.078125 6.847656 16.003906 6.882812 C 15.972656 6.878906 15.941406 6.878906 15.910156 6.875 C 15.875 7.003906 15.917969 7.242188 15.882812 7.390625 C 15.871094 7.0625 15.875 6.644531 15.886719 6.316406 Z M 15.886719 6.316406 "/>
<path style=" stroke:none;fill-rule:nonzero;fill:url(#linear4);" d="M 15.890625 9.980469 C 15.929688 9.984375 15.96875 9.988281 16.007812 9.996094 C 17.351562 10.238281 17.828125 12.019531 17.011719 13.023438 C 16.863281 13.203125 16.746094 13.300781 16.554688 13.433594 C 16.300781 13.578125 16.175781 13.617188 15.886719 13.652344 C 15.882812 13.324219 15.882812 12.996094 15.882812 12.664062 C 15.941406 12.648438 16 12.632812 16.050781 12.605469 C 16.648438 12.332031 16.695312 11.394531 16.113281 11.070312 C 16.035156 11.027344 15.972656 11.003906 15.890625 10.972656 Z M 15.890625 9.980469 "/>
</g>
</svg>
