<svg xmlns="http://www.w3.org/2000/svg" xmlns:xlink="http://www.w3.org/1999/xlink" width="471" height="580" viewBox="0 0 471 580"><clipPath id="cl_9"><rect x="0.00015258789" y="-7.6293945e-06" width="470.5632" height="580.11926"/></clipPath><g clip-path="url(#cl_9)"><defs><linearGradient id="gradient_0" gradientUnits="userSpaceOnUse" x1="434.48489" y1="692.60339" x2="855.95337" y2="1071.1798"><stop offset="0" stop-color="#FF622A"/><stop offset="1" stop-color="#FB0068"/></linearGradient></defs><path fill="url(#gradient_0)" transform="matrix(0.659976 0 0 0.659976 -176.874 -121.436)" d="M479.13 644.23C512.568 644.69 521.294 654.332 551.163 664.389C575.065 672.437 603.668 676.201 628.883 676.027C651.856 675.889 674.697 672.542 696.744 666.085C731.843 655.677 750.886 638.403 790.296 646.118C825.746 653.057 861.454 679.008 886.341 704.6C939.546 759.312 971.66 837.26 971.525 913.673C971.485 936.129 963.017 957.1 946.678 972.419C935.603 982.802 915.426 993.457 901.367 1000.04C814.6 1040.69 703.92 1060.41 608.452 1057.36C521.805 1054.58 423.459 1035.36 345.504 996.937C331.74 990.153 313.338 980.131 303.242 968.961C285.84 949.709 281.119 929.228 282.147 904.144C282.824 887.621 284.842 871.18 288.178 854.983C298.408 804.52 321.32 757.494 354.756 718.338C380.606 687.955 416.976 658.711 455.954 647.784C463.975 645.536 470.935 644.884 479.13 644.23Z"/><path fill="#FE6829" transform="matrix(0.659976 0 0 0.659976 -176.874 -121.436)" d="M288.178 854.983C298.408 804.52 321.32 757.494 354.756 718.338C380.606 687.955 416.976 658.711 455.954 647.784C463.975 645.536 470.935 644.884 479.13 644.23C478.174 648.885 480.804 644.443 479.391 648.996C476.11 651.066 472.644 650.726 471.162 652.548C472.081 653.662 471.698 653.067 472.323 654.323C471.418 656.362 471.336 655.619 470.529 656.554C463.479 664.716 458.352 676.991 452.019 685.126C448.949 689.072 437.041 695.005 433.135 698.792C431.628 700.253 432.014 702.847 430.806 704.486C428.697 707.349 421.482 711.888 419.531 714.319C414.891 720.102 414.934 722.211 408.841 727.683C403.724 732.278 396.666 736.549 391.734 741.035C392.266 740.551 389.07 748.399 388.175 749.88C376.553 756.037 382.908 757.939 375.671 764.796C360.25 779.408 344.383 793.09 332.275 810.813C329.09 815.474 323.42 819.86 320.748 825.174C318.175 829.884 308.091 834.989 307.588 841C307.497 842.091 306.565 842.827 305.706 843.476L304.733 843.526L304.059 841.406C298.663 841.64 295.077 851.45 290.447 855.315C289.662 855.188 288.97 855.082 288.178 854.983Z"/><defs><linearGradient id="gradient_1" gradientUnits="userSpaceOnUse" x1="470.48172" y1="268.5015" x2="784.01532" y2="543.86707"><stop offset="0" stop-color="#FF9417"/><stop offset="1" stop-color="#FF3E3D"/></linearGradient></defs><path fill="url(#gradient_1)" transform="matrix(0.659976 0 0 0.659976 -176.874 -121.436)" d="M500.204 239.136C506.132 233.981 515.724 227.928 522.62 223.95C559.349 203.011 601.527 193.606 643.671 196.957C698.247 200.971 749.056 226.285 785.132 267.434C822.419 309.939 840.901 365.734 836.361 422.094C832.39 477.332 806.7 528.748 764.914 565.092C722.94 601.679 668.087 619.978 612.554 615.919C556.5 612.195 504.339 585.943 467.952 543.142C431.956 500.571 414.142 445.553 418.354 389.962C419.755 371.548 423.532 353.392 429.592 335.947C440.179 306.48 460.414 272.138 484.93 251.916C486.477 250.06 492.36 245.167 494.491 243.321C496.646 241.557 497.82 240.518 500.204 239.136Z"/><path fill="#FF931F" transform="matrix(0.659976 0 0 0.659976 -176.874 -121.436)" d="M484.93 251.916C483.491 255.989 480.327 256.613 479.783 259.683C481.078 261.772 480.265 261.391 481.958 261.858C483.372 261.398 486.428 260.581 487.404 259.759L489.452 263.902C488.953 264.819 486.784 267.383 486.853 267.117C485.35 272.825 487.256 271.431 483.243 275.22L482.224 275.168L481.193 273.413C479.349 275.415 479.619 280.427 477.704 283.399C474.484 288.397 467.45 291.74 464.007 296.168C461.317 299.629 461.173 306.102 457.684 309.665C452.322 315.143 448.22 309.88 445.535 316.22C442.886 314.063 443.836 313.026 441.748 312.669C436.173 316.819 438.447 329.042 433.852 334.878C433.852 334.878 431.404 336.16 431.157 336.29L429.592 335.947C440.179 306.48 460.414 272.138 484.93 251.916Z"/><path fill="#FF931F" transform="matrix(0.659976 0 0 0.659976 -176.874 -121.436)" d="M505.01 246.577C505.068 244.111 504.78 241.256 506.095 239.312L507.156 239.487C510.043 245.046 507.137 247.469 502.774 250.886C497.473 255.039 493.334 257.021 487.404 259.759L486.552 257.464C484.998 257.431 484.566 257.333 483.115 256.772L482.633 256.074C487.988 252.609 490.259 256.468 495.447 253.485C499.727 251.025 499.081 245.037 503.527 243.992C504.364 246.462 503.556 247.74 504.683 248.394C505.18 247.098 505.128 247.712 505.01 246.577Z"/><path fill="#FF931F" transform="matrix(0.659976 0 0 0.659976 -176.874 -121.436)" d="M494.491 243.321C496.646 241.557 497.82 240.518 500.204 239.136C504.018 240.685 502.638 237.995 503.865 239.928C502.235 242.391 500.194 244.213 497.41 245.266C496.701 244.336 497.033 244.903 496.551 243.492L494.491 243.321Z"/></g></svg>
