<?xml version="1.0" encoding="UTF-8"?>
<svg xmlns="http://www.w3.org/2000/svg" xmlns:xlink="http://www.w3.org/1999/xlink" width="24px" height="24px" viewBox="0 0 24 24" version="1.1">
<defs>
<linearGradient id="linear0" gradientUnits="userSpaceOnUse" x1="533.583923" y1="532.975586" x2="818.062378" y2="964.683228" gradientTransform="matrix(0.0191388,0,0,0.0191388,0,0)">
<stop offset="0" style="stop-color:rgb(97.254902%,33.333333%,22.745098%);stop-opacity:1;"/>
<stop offset="1" style="stop-color:rgb(84.705882%,6.666667%,45.882353%);stop-opacity:1;"/>
</linearGradient>
<linearGradient id="linear1" gradientUnits="userSpaceOnUse" x1="341.783905" y1="396.751343" x2="475.112213" y2="597.286072" gradientTransform="matrix(0.0191388,0,0,0.0191388,0,0)">
<stop offset="0" style="stop-color:rgb(100%,52.156863%,12.941176%);stop-opacity:1;"/>
<stop offset="1" style="stop-color:rgb(97.254902%,30.196078%,23.529412%);stop-opacity:1;"/>
</linearGradient>
<linearGradient id="linear2" gradientUnits="userSpaceOnUse" x1="621.362366" y1="291.41214" x2="766.888245" y2="551.886597" gradientTransform="matrix(0.0191388,0,0,0.0191388,0,0)">
<stop offset="0" style="stop-color:rgb(99.607843%,40%,16.470588%);stop-opacity:1;"/>
<stop offset="1" style="stop-color:rgb(99.607843%,9.411765%,27.843137%);stop-opacity:1;"/>
</linearGradient>
</defs>
<g id="surface1">
<path style=" stroke:none;fill-rule:nonzero;fill:url(#linear0);" d="M 8.699219 7.820312 C 8.835938 7.824219 8.976562 7.816406 9.113281 7.824219 C 9.570312 7.847656 9.914062 7.773438 10.25 8.148438 C 10.464844 8.386719 10.707031 8.839844 11.042969 8.886719 C 11.492188 8.953125 12.015625 8.898438 12.476562 8.917969 C 12.886719 8.910156 13.328125 8.917969 13.738281 8.917969 L 16.230469 8.914062 C 16.722656 8.917969 17.226562 8.921875 17.714844 8.914062 C 18.46875 9.046875 18.449219 9.507812 18.445312 10.148438 L 18.445312 15.246094 C 18.445312 15.578125 18.460938 15.980469 18.417969 16.304688 C 18.386719 16.558594 18.164062 16.84375 17.953125 16.988281 C 17.808594 17.085938 17.640625 17.148438 17.460938 17.15625 C 17.195312 17.175781 16.859375 17.164062 16.585938 17.164062 L 15.257812 17.164062 L 10.765625 17.160156 L 7.914062 17.164062 L 7.203125 17.164062 C 6.628906 17.167969 6.09375 17.191406 5.738281 16.652344 C 5.523438 16.328125 5.527344 15.953125 5.539062 15.578125 C 5.558594 14.746094 5.527344 13.90625 5.542969 13.074219 C 5.527344 12.78125 5.542969 12.429688 5.542969 12.132812 L 5.542969 9.390625 C 5.539062 9.121094 5.523438 8.804688 5.570312 8.539062 C 5.601562 8.367188 5.683594 8.203125 5.808594 8.078125 C 6.109375 7.773438 6.507812 7.832031 6.894531 7.828125 C 7.3125 7.820312 7.753906 7.84375 8.171875 7.832031 C 8.328125 7.828125 8.546875 7.835938 8.699219 7.820312 Z M 11.730469 14.03125 C 11.238281 13.945312 10.660156 14.128906 10.566406 14.679688 C 10.539062 14.84375 10.578125 15.011719 10.675781 15.144531 C 11.078125 15.710938 12.171875 15.410156 12.230469 14.703125 C 12.25 14.460938 12.234375 14.175781 12.234375 13.933594 L 12.234375 12.269531 C 12.234375 12.183594 12.21875 12.078125 12.261719 12.003906 C 12.324219 11.96875 12.402344 11.953125 12.472656 11.933594 C 12.683594 11.882812 14.371094 11.535156 14.472656 11.554688 C 14.492188 11.5625 14.492188 11.566406 14.507812 11.582031 C 14.546875 11.71875 14.53125 12.238281 14.53125 12.410156 L 14.53125 13.519531 C 13.308594 13.285156 12.929688 14.761719 13.96875 14.914062 C 14.230469 14.953125 14.5 14.886719 14.714844 14.730469 C 15.09375 14.445312 15.039062 14.097656 15.039062 13.675781 L 15.039062 11.496094 C 15.039062 11.261719 15.046875 11.03125 15.035156 10.800781 C 15.023438 10.621094 14.996094 10.476562 14.785156 10.457031 C 14.777344 10.457031 14.765625 10.457031 14.757812 10.457031 C 14.230469 10.535156 13.609375 10.679688 13.074219 10.785156 L 12.371094 10.917969 C 12.1875 10.953125 11.914062 10.972656 11.789062 11.125 C 11.753906 11.167969 11.742188 11.277344 11.734375 11.335938 C 11.730469 11.628906 11.730469 11.929688 11.730469 12.222656 C 11.726562 12.824219 11.726562 13.425781 11.730469 14.03125 Z M 11.730469 14.03125 "/>
<path style=" stroke:none;fill-rule:nonzero;fill:url(#linear1);" d="M 8.699219 7.820312 C 8.835938 7.824219 8.976562 7.816406 9.113281 7.824219 C 9.570312 7.847656 9.914062 7.773438 10.25 8.148438 C 10.464844 8.386719 10.707031 8.839844 11.042969 8.886719 C 11.492188 8.953125 12.015625 8.898438 12.476562 8.917969 C 12.402344 8.9375 12.234375 8.945312 12.160156 8.925781 L 12.144531 8.941406 C 12.179688 8.945312 12.230469 8.949219 12.253906 8.964844 C 12.15625 9.09375 11.53125 9.453125 11.378906 9.574219 C 11.324219 9.621094 11.183594 9.664062 11.136719 9.707031 C 10.917969 9.902344 10.671875 10.039062 10.425781 10.199219 C 10.25 10.3125 10.085938 10.433594 9.917969 10.546875 C 9.914062 10.550781 9.886719 10.542969 9.882812 10.542969 C 9.734375 10.625 9.585938 10.75 9.445312 10.851562 C 9.148438 11.058594 8.835938 11.234375 8.542969 11.445312 C 8.496094 11.480469 8.445312 11.476562 8.398438 11.503906 C 8.347656 11.5625 8.308594 11.652344 8.269531 11.71875 L 8.246094 11.703125 L 8.246094 11.679688 C 8.242188 11.65625 8.242188 11.652344 8.234375 11.628906 L 8.21875 11.628906 C 8.210938 11.695312 8.222656 11.847656 8.207031 11.878906 C 8.207031 11.742188 8.226562 11.230469 8.183594 11.144531 C 8.171875 10.296875 8.191406 9.445312 8.175781 8.597656 C 8.171875 8.386719 7.789062 8.472656 7.707031 8.578125 C 7.660156 8.640625 7.628906 8.703125 7.625 8.78125 C 7.609375 9.019531 7.617188 9.269531 7.617188 9.507812 L 7.621094 10.824219 C 7.621094 11.050781 7.628906 11.386719 7.617188 11.605469 C 7.574219 11.671875 7.628906 12.285156 7.59375 12.425781 C 7.578125 12.367188 7.578125 12.296875 7.550781 12.261719 C 7.519531 12.25 7.519531 12.25 7.484375 12.25 L 7.476562 12.238281 C 7.445312 12.207031 7.4375 12.195312 7.398438 12.1875 C 7.328125 12.191406 7.242188 12.324219 7.214844 12.328125 C 7.015625 12.359375 7.082031 12.46875 6.953125 12.617188 C 6.921875 12.566406 6.964844 12.535156 6.925781 12.511719 C 6.898438 12.558594 6.925781 12.683594 6.910156 12.699219 C 6.90625 12.585938 6.921875 12.089844 6.882812 12.023438 C 6.871094 11.226562 6.878906 10.414062 6.878906 9.621094 L 6.878906 8.957031 C 6.878906 8.871094 6.890625 8.734375 6.882812 8.65625 C 6.855469 8.320312 6.332031 8.460938 6.324219 8.78125 C 6.3125 9.117188 6.316406 9.445312 6.316406 9.777344 L 6.316406 11.371094 C 6.316406 11.644531 6.324219 11.957031 6.316406 12.226562 C 6.246094 12.4375 6.304688 12.863281 6.289062 13.097656 C 6.285156 13.164062 6.296875 13.242188 6.285156 13.304688 C 6.226562 13.261719 6.222656 13.042969 6.105469 13.050781 C 6.0625 13.054688 6.023438 13.097656 5.992188 13.121094 C 5.964844 13.148438 5.898438 13.160156 5.878906 13.179688 C 5.804688 13.25 5.828125 13.265625 5.71875 13.273438 C 5.6875 13.3125 5.636719 13.386719 5.597656 13.398438 C 5.5625 13.304688 5.589844 13.121094 5.542969 13.074219 C 5.527344 12.78125 5.542969 12.429688 5.542969 12.132812 L 5.542969 9.390625 C 5.539062 9.121094 5.523438 8.804688 5.570312 8.539062 C 5.601562 8.367188 5.683594 8.203125 5.808594 8.078125 C 6.109375 7.773438 6.507812 7.832031 6.894531 7.828125 C 7.3125 7.820312 7.753906 7.84375 8.171875 7.832031 C 8.328125 7.828125 8.546875 7.835938 8.699219 7.820312 Z M 8.699219 7.820312 "/>
<path style=" stroke:none;fill-rule:nonzero;fill:rgb(31.764707%,31.37255%,31.37255%);fill-opacity:1;" d="M 6.316406 12.226562 C 6.324219 11.957031 6.316406 11.644531 6.316406 11.371094 L 6.316406 9.777344 C 6.316406 9.445312 6.3125 9.117188 6.324219 8.78125 C 6.332031 8.460938 6.855469 8.320312 6.882812 8.65625 C 6.890625 8.734375 6.878906 8.871094 6.878906 8.957031 L 6.878906 9.621094 C 6.878906 10.414062 6.871094 11.226562 6.882812 12.023438 C 6.863281 13.460938 6.894531 14.902344 6.875 16.34375 C 6.875 16.496094 6.824219 16.539062 6.667969 16.535156 C 6.246094 16.519531 6.3125 16.128906 6.316406 15.824219 L 6.316406 15.109375 C 6.320312 14.46875 6.320312 13.832031 6.316406 13.195312 C 6.316406 12.882812 6.324219 12.535156 6.316406 12.226562 Z M 6.316406 12.226562 "/>
<path style=" stroke:none;fill-rule:nonzero;fill:rgb(31.764707%,31.37255%,31.37255%);fill-opacity:1;" d="M 7.617188 11.605469 C 7.628906 11.386719 7.621094 11.050781 7.621094 10.824219 L 7.617188 9.507812 C 7.617188 9.269531 7.609375 9.019531 7.625 8.78125 C 7.628906 8.703125 7.660156 8.640625 7.707031 8.578125 C 7.789062 8.472656 8.171875 8.386719 8.175781 8.597656 C 8.191406 9.445312 8.171875 10.296875 8.183594 11.144531 C 8.167969 12.371094 8.179688 13.636719 8.179688 14.863281 L 8.183594 15.785156 C 8.183594 15.960938 8.1875 16.140625 8.183594 16.320312 C 8.175781 16.382812 8.1875 16.449219 8.132812 16.492188 C 8.019531 16.582031 7.785156 16.519531 7.695312 16.417969 C 7.589844 16.300781 7.617188 16.039062 7.617188 15.882812 L 7.617188 12.742188 L 7.621094 11.964844 C 7.621094 11.882812 7.625 11.671875 7.617188 11.605469 Z M 7.617188 11.605469 "/>
<path style=" stroke:none;fill-rule:nonzero;fill:url(#linear2);" d="M 10.339844 6.414062 C 10.714844 6.402344 11.054688 6.398438 11.34375 6.664062 C 11.585938 6.886719 11.789062 7.347656 12.097656 7.46875 C 12.367188 7.574219 12.941406 7.535156 13.242188 7.53125 L 16.554688 7.53125 C 16.8125 7.53125 17.089844 7.503906 17.324219 7.621094 C 17.804688 7.863281 17.71875 8.464844 17.714844 8.914062 C 17.226562 8.921875 16.722656 8.917969 16.230469 8.914062 L 13.738281 8.917969 C 13.328125 8.917969 12.886719 8.910156 12.476562 8.917969 C 12.015625 8.898438 11.492188 8.953125 11.042969 8.886719 C 10.707031 8.839844 10.464844 8.386719 10.25 8.148438 C 9.914062 7.773438 9.570312 7.847656 9.113281 7.824219 C 8.976562 7.816406 8.835938 7.824219 8.699219 7.820312 C 8.546875 7.835938 8.328125 7.828125 8.171875 7.832031 C 7.753906 7.84375 7.3125 7.820312 6.894531 7.828125 C 6.890625 7.773438 6.886719 7.71875 6.886719 7.660156 C 6.871094 7.328125 6.886719 6.953125 7.128906 6.691406 C 7.460938 6.332031 8.019531 6.429688 8.464844 6.421875 C 9.085938 6.40625 9.71875 6.441406 10.339844 6.414062 Z M 10.339844 6.414062 "/>
<path style=" stroke:none;fill-rule:nonzero;fill:rgb(99.607843%,43.921569%,11.764706%);fill-opacity:1;" d="M 6.894531 7.828125 C 6.890625 7.773438 6.886719 7.71875 6.886719 7.660156 C 6.871094 7.328125 6.886719 6.953125 7.128906 6.691406 C 7.460938 6.332031 8.019531 6.429688 8.464844 6.421875 C 9.085938 6.40625 9.71875 6.441406 10.339844 6.414062 C 10.355469 6.453125 10.371094 6.480469 10.355469 6.523438 C 10.324219 6.628906 9.613281 7.0625 9.476562 7.171875 C 9.441406 7.195312 9.101562 7.484375 9.085938 7.503906 C 9.066406 7.527344 9.082031 7.546875 9.050781 7.574219 C 8.945312 7.667969 8.808594 7.730469 8.699219 7.820312 C 8.546875 7.835938 8.328125 7.828125 8.171875 7.832031 C 7.753906 7.84375 7.3125 7.820312 6.894531 7.828125 Z M 6.894531 7.828125 "/>
</g>
</svg>
