<?xml version="1.0" encoding="UTF-8"?>
<svg xmlns="http://www.w3.org/2000/svg" xmlns:xlink="http://www.w3.org/1999/xlink" width="24px" height="24px" viewBox="0 0 24 24" version="1.1">
<defs>
<linearGradient id="linear0" gradientUnits="userSpaceOnUse" x1="436.954865" y1="455.6521" x2="842.602905" y2="810.521912" gradientTransform="matrix(0.0191388,0,0,0.0191388,0,0)">
<stop offset="0" style="stop-color:rgb(100%,42.352941%,10.588235%);stop-opacity:1;"/>
<stop offset="1" style="stop-color:rgb(86.27451%,3.529412%,36.862745%);stop-opacity:1;"/>
</linearGradient>
</defs>
<g id="surface1">
<path style=" stroke:none;fill-rule:nonzero;fill:url(#linear0);" d="M 15.867188 6.332031 C 16.128906 6.300781 16.324219 6.386719 16.464844 6.613281 C 16.519531 6.703125 16.539062 6.832031 16.542969 6.9375 C 16.550781 7.339844 16.546875 7.742188 16.542969 8.144531 L 16.542969 13.882812 C 16.542969 14.226562 16.558594 14.597656 16.464844 14.929688 C 16.339844 15.367188 16.042969 15.734375 15.644531 15.957031 C 15.25 16.175781 14.78125 16.226562 14.347656 16.097656 C 13.910156 15.96875 13.539062 15.671875 13.320312 15.273438 C 13.097656 14.855469 13.050781 14.371094 13.183594 13.917969 C 13.320312 13.476562 13.621094 13.105469 14.03125 12.890625 C 14.453125 12.664062 14.9375 12.632812 15.390625 12.78125 C 15.429688 12.796875 15.480469 12.8125 15.523438 12.792969 C 15.5625 12.671875 15.539062 10.855469 15.539062 10.613281 L 15.539062 9.433594 C 15.539062 9.257812 15.558594 8.742188 15.507812 8.609375 C 15.496094 8.597656 15.492188 8.589844 15.476562 8.589844 C 15.277344 8.5625 14.019531 8.855469 13.742188 8.914062 L 11.25 9.429688 C 11 9.480469 10.753906 9.53125 10.503906 9.578125 C 10.347656 9.609375 10.117188 9.625 9.980469 9.714844 C 9.902344 9.765625 9.902344 9.839844 9.894531 9.925781 C 9.878906 10.425781 9.898438 11.015625 9.898438 11.523438 L 9.894531 15.367188 C 9.894531 15.925781 9.8125 16.367188 9.394531 16.78125 C 9.070312 17.097656 8.632812 17.273438 8.179688 17.269531 C 7.734375 17.265625 7.304688 17.078125 6.996094 16.757812 C 6.675781 16.425781 6.503906 15.984375 6.515625 15.527344 C 6.523438 15.066406 6.714844 14.628906 7.046875 14.3125 C 7.4375 13.9375 7.984375 13.773438 8.515625 13.871094 C 8.632812 13.894531 8.769531 13.949219 8.886719 13.960938 C 8.886719 13.960938 8.910156 13.953125 8.914062 13.949219 C 8.945312 13.8125 8.933594 13.398438 8.933594 13.269531 L 8.929688 9.863281 L 8.929688 8.871094 C 8.925781 8.515625 8.859375 8.03125 9.167969 7.785156 C 9.355469 7.636719 9.621094 7.613281 9.847656 7.566406 C 10.003906 7.535156 10.160156 7.503906 10.316406 7.472656 L 11.9375 7.136719 L 14.53125 6.597656 L 15.332031 6.433594 C 15.503906 6.398438 15.699219 6.355469 15.867188 6.332031 Z M 15.867188 6.332031 "/>
<path style=" stroke:none;fill-rule:nonzero;fill:rgb(99.607843%,37.64706%,19.215687%);fill-opacity:1;" d="M 10.761719 8.894531 C 10.816406 8.898438 10.824219 8.894531 10.871094 8.914062 C 10.773438 8.925781 10.761719 8.914062 10.6875 8.988281 C 10.675781 9.019531 10.675781 9.039062 10.652344 9.054688 C 10.644531 8.984375 10.707031 8.925781 10.761719 8.894531 Z M 10.761719 8.894531 "/>
</g>
</svg>
