<?xml version="1.0" encoding="UTF-8"?>
<svg xmlns="http://www.w3.org/2000/svg" xmlns:xlink="http://www.w3.org/1999/xlink" width="24px" height="24px" viewBox="0 0 24 24" version="1.1">
<defs>
<linearGradient id="linear0" gradientUnits="userSpaceOnUse" x1="393.545654" y1="408.334991" x2="899.173157" y2="880.51709" gradientTransform="matrix(0.0191388,0,0,0.0191388,0,0)">
<stop offset="0" style="stop-color:rgb(100%,49.411765%,9.411765%);stop-opacity:1;"/>
<stop offset="1" style="stop-color:rgb(90.588235%,1.568627%,44.313725%);stop-opacity:1;"/>
</linearGradient>
<linearGradient id="linear1" gradientUnits="userSpaceOnUse" x1="561.346497" y1="610.760315" x2="684.731873" y2="724.880981" gradientTransform="matrix(0.0191388,0,0,0.0191388,0,0)">
<stop offset="0" style="stop-color:rgb(100%,27.45098%,23.529412%);stop-opacity:1;"/>
<stop offset="1" style="stop-color:rgb(99.215686%,11.764706%,32.54902%);stop-opacity:1;"/>
</linearGradient>
<linearGradient id="linear2" gradientUnits="userSpaceOnUse" x1="575.953552" y1="515.658936" x2="676.545532" y2="633.995789" gradientTransform="matrix(0.0191388,0,0,0.0191388,0,0)">
<stop offset="0" style="stop-color:rgb(100%,46.27451%,14.117647%);stop-opacity:1;"/>
<stop offset="1" style="stop-color:rgb(100%,18.823529%,27.45098%);stop-opacity:1;"/>
</linearGradient>
</defs>
<g id="surface1">
<path style=" stroke:none;fill-rule:nonzero;fill:url(#linear0);" d="M 7.933594 7.90625 L 7.929688 6.796875 C 7.933594 6.195312 7.960938 5.777344 8.417969 5.316406 C 8.820312 4.910156 9.277344 4.875 9.824219 4.875 L 10.480469 4.878906 C 11.371094 4.867188 12.28125 4.875 13.171875 4.875 L 13.984375 4.875 C 14.574219 4.875 15.109375 4.855469 15.5625 5.308594 C 15.929688 5.675781 16.046875 6.042969 16.054688 6.554688 L 16.054688 12.863281 C 16.054688 13.097656 16.066406 13.5 16.050781 13.714844 C 16.0625 14.582031 16.054688 15.460938 16.054688 16.324219 L 16.054688 17.066406 C 16.054688 17.316406 16.066406 17.617188 16.011719 17.863281 C 15.953125 18.144531 15.8125 18.40625 15.609375 18.617188 C 15.234375 19 14.839844 19.078125 14.320312 19.078125 L 13.132812 19.082031 C 12.949219 19.082031 12.667969 19.089844 12.492188 19.078125 C 12.394531 19.085938 12.203125 19.078125 12.101562 19.078125 L 11.335938 19.078125 C 10.742188 19.078125 10.148438 19.078125 9.554688 19.085938 C 9.113281 19.082031 8.683594 18.929688 8.375 18.613281 C 7.835938 18.058594 7.933594 17.285156 7.933594 16.578125 L 7.933594 10.210938 C 7.933594 9.449219 7.925781 8.667969 7.933594 7.90625 Z M 14.523438 17.121094 C 14.683594 17.097656 14.871094 17.054688 14.964844 16.910156 C 15.144531 16.632812 15.09375 16.128906 15.09375 15.808594 L 15.09375 8.105469 C 15.09375 7.796875 15.105469 7.460938 15.082031 7.152344 C 15.074219 7.070312 15.003906 6.941406 14.949219 6.882812 C 14.839844 6.757812 14.703125 6.691406 14.535156 6.683594 C 14.28125 6.671875 14.027344 6.675781 13.769531 6.679688 L 10.523438 6.679688 C 10.191406 6.679688 9.792969 6.667969 9.464844 6.683594 C 8.765625 6.761719 8.890625 7.382812 8.890625 7.894531 L 8.894531 9.09375 L 8.894531 15.449219 L 8.890625 16.191406 C 8.890625 16.488281 8.847656 16.804688 9.125 17 C 9.375 17.175781 9.804688 17.125 10.105469 17.121094 L 13.449219 17.121094 C 13.792969 17.121094 14.179688 17.128906 14.523438 17.121094 Z M 12.484375 6.152344 C 12.664062 6.152344 12.867188 6.183594 13.007812 6.050781 C 13.167969 5.894531 13.070312 5.617188 12.863281 5.570312 C 12.726562 5.542969 12.546875 5.550781 12.40625 5.546875 C 12.113281 5.542969 11.816406 5.542969 11.523438 5.546875 C 11.355469 5.550781 11.125 5.523438 10.996094 5.640625 C 10.824219 5.796875 10.910156 6.085938 11.136719 6.132812 C 11.300781 6.160156 11.507812 6.15625 11.679688 6.15625 Z M 12.460938 18.386719 C 12.578125 18.347656 12.660156 18.316406 12.699219 18.1875 C 12.804688 17.8125 12.382812 17.804688 12.128906 17.808594 C 11.9375 17.8125 11.734375 17.808594 11.539062 17.816406 C 11.21875 17.898438 11.199219 18.234375 11.429688 18.34375 C 11.621094 18.433594 12.253906 18.390625 12.460938 18.386719 Z M 12.460938 18.386719 "/>
<path style=" stroke:none;fill-rule:nonzero;fill:rgb(99.607843%,52.549022%,7.843138%);fill-opacity:1;" d="M 7.933594 7.90625 L 7.929688 6.796875 C 7.933594 6.195312 7.960938 5.777344 8.417969 5.316406 C 8.820312 4.910156 9.277344 4.875 9.824219 4.875 L 10.480469 4.878906 C 10.449219 4.882812 10.246094 4.914062 10.265625 4.90625 C 10.324219 4.925781 10.328125 4.914062 10.347656 4.949219 C 10.335938 4.988281 10.039062 5.25 9.976562 5.296875 L 9.960938 5.292969 C 9.953125 5.257812 9.953125 5.265625 9.957031 5.230469 L 9.953125 5.253906 L 9.953125 5.234375 C 9.949219 5.257812 9.941406 5.292969 9.9375 5.332031 C 9.878906 5.417969 9.726562 5.53125 9.691406 5.621094 L 9.675781 5.628906 C 9.65625 5.605469 9.664062 5.601562 9.664062 5.566406 L 9.652344 5.570312 C 9.625 5.667969 9.625 5.710938 9.550781 5.777344 C 9.410156 5.898438 9.289062 6.0625 9.164062 6.199219 L 8.480469 6.941406 C 8.414062 7.007812 8.320312 7.03125 8.261719 7.097656 C 8.242188 7.121094 8.25 7.210938 8.222656 7.246094 C 8.1875 7.238281 8.179688 7.222656 8.15625 7.191406 C 8.148438 7.203125 8.066406 7.292969 8.066406 7.292969 C 8.0625 7.410156 8 7.460938 7.96875 7.558594 L 7.972656 7.554688 C 7.953125 7.515625 7.96875 7.472656 7.957031 7.425781 C 7.917969 7.550781 7.980469 7.78125 7.933594 7.90625 Z M 7.933594 7.90625 "/>
<path style=" stroke:none;fill-rule:nonzero;fill:rgb(81.568629%,9.411765%,44.313726%);fill-opacity:1;" d="M 15.4375 18.714844 C 15.679688 18.582031 15.875 18.226562 15.957031 17.976562 C 16.0625 17.65625 16.027344 17.199219 16.03125 16.859375 C 16.042969 16.207031 16.046875 15.554688 16.046875 14.902344 C 16.046875 14.566406 16.03125 14.050781 16.050781 13.730469 L 16.050781 13.714844 C 16.0625 14.582031 16.054688 15.460938 16.054688 16.324219 L 16.054688 17.066406 C 16.054688 17.316406 16.066406 17.617188 16.011719 17.863281 C 15.953125 18.144531 15.8125 18.40625 15.609375 18.617188 C 15.234375 19 14.839844 19.078125 14.320312 19.078125 L 13.132812 19.082031 C 12.949219 19.082031 12.667969 19.089844 12.492188 19.078125 C 12.578125 19.0625 12.75 19.066406 12.84375 19.0625 C 13.105469 19.054688 13.367188 19.054688 13.628906 19.054688 C 13.890625 19.054688 14.691406 19.078125 14.902344 19 C 14.925781 18.96875 14.917969 18.976562 14.945312 18.957031 L 14.953125 18.984375 C 14.984375 18.984375 14.96875 18.988281 14.996094 18.972656 L 14.988281 18.945312 L 15.003906 18.933594 L 15.027344 18.957031 C 15.085938 18.898438 15.0625 18.855469 15.152344 18.804688 C 15.167969 18.832031 15.175781 18.851562 15.1875 18.882812 L 15.203125 18.886719 C 15.292969 18.851562 15.359375 18.785156 15.425781 18.722656 Z M 15.4375 18.714844 "/>
<path style=" stroke:none;fill-rule:nonzero;fill:rgb(81.568629%,9.411765%,44.313726%);fill-opacity:1;" d="M 15.367188 18.613281 C 15.417969 18.5625 15.546875 18.429688 15.605469 18.421875 L 15.621094 18.433594 C 15.609375 18.511719 15.429688 18.628906 15.4375 18.714844 C 15.417969 18.699219 15.425781 18.707031 15.40625 18.699219 L 15.371094 18.722656 L 15.367188 18.730469 C 15.328125 18.757812 15.238281 18.800781 15.1875 18.820312 L 15.175781 18.808594 C 15.1875 18.78125 15.210938 18.769531 15.238281 18.753906 L 15.246094 18.734375 C 15.28125 18.699219 15.347656 18.652344 15.367188 18.613281 Z M 15.367188 18.613281 "/>
<path style=" stroke:none;fill-rule:nonzero;fill:url(#linear1);" d="M 13.914062 11.964844 C 14.332031 11.972656 14.09375 12.523438 14.007812 12.738281 C 13.898438 13.019531 13.710938 13.285156 13.496094 13.492188 C 13.082031 13.898438 12.519531 14.117188 11.941406 14.109375 C 11.269531 14.097656 10.765625 13.808594 10.3125 13.335938 C 10.398438 13.957031 9.875 13.960938 9.863281 13.398438 C 9.863281 13.285156 9.851562 13.164062 9.84375 13.050781 C 9.828125 12.910156 9.785156 12.707031 9.886719 12.59375 C 9.9375 12.539062 9.964844 12.53125 10.039062 12.527344 C 10.304688 12.523438 10.570312 12.523438 10.832031 12.523438 C 10.9375 12.523438 11.058594 12.515625 11.136719 12.59375 C 11.183594 12.636719 11.207031 12.699219 11.207031 12.761719 C 11.199219 13.035156 10.789062 12.988281 10.605469 12.980469 C 10.847656 13.230469 10.976562 13.375 11.308594 13.515625 C 11.734375 13.695312 12.210938 13.699219 12.636719 13.527344 C 13.082031 13.347656 13.429688 12.992188 13.605469 12.546875 C 13.691406 12.335938 13.660156 12.0625 13.902344 11.972656 Z M 13.914062 11.964844 "/>
<path style=" stroke:none;fill-rule:nonzero;fill:url(#linear2);" d="M 11.867188 9.71875 C 11.984375 9.703125 12.175781 9.722656 12.292969 9.738281 C 12.847656 9.808594 13.238281 10.09375 13.636719 10.464844 C 13.621094 10.359375 13.617188 10.285156 13.613281 10.175781 C 13.628906 10.136719 13.648438 10.105469 13.675781 10.074219 C 13.710938 10.03125 13.765625 10.007812 13.820312 10.003906 C 13.882812 10 13.945312 10.027344 13.988281 10.074219 C 14.085938 10.171875 14.125 10.847656 14.128906 11.015625 C 14.128906 11.089844 14.125 11.171875 14.066406 11.226562 C 14.023438 11.269531 13.96875 11.285156 13.910156 11.292969 C 13.785156 11.3125 13.652344 11.285156 13.527344 11.285156 C 13.386719 11.285156 13.242188 11.300781 13.101562 11.296875 C 13 11.296875 12.882812 11.285156 12.808594 11.203125 C 12.769531 11.160156 12.75 11.101562 12.757812 11.042969 C 12.789062 10.785156 13.179688 10.804688 13.363281 10.839844 C 13.085938 10.550781 12.917969 10.40625 12.542969 10.261719 C 12.207031 10.152344 11.847656 10.144531 11.507812 10.238281 C 10.988281 10.390625 10.550781 10.757812 10.355469 11.273438 C 10.289062 11.449219 10.261719 12.035156 9.890625 11.8125 C 9.765625 11.742188 9.820312 11.535156 9.847656 11.414062 C 10.066406 10.425781 10.882812 9.820312 11.867188 9.71875 Z M 11.867188 9.71875 "/>
</g>
</svg>
