<?xml version="1.0" encoding="utf-8" ?><svg xmlns="http://www.w3.org/2000/svg" xmlns:xlink="http://www.w3.org/1999/xlink" width="883" height="702" viewBox="0 0 883 702"><clipPath id="cl_3"><rect y="-0.00012207031" width="882.94336" height="701.70117"/></clipPath><g clip-path="url(#cl_3)"><defs><linearGradient id="gradient_0" gradientUnits="userSpaceOnUse" x1="301.61075" y1="371.5723" x2="668.32501" y2="746.55713"><stop offset="0" stop-color="#FF4E28"/><stop offset="1" stop-color="#C22089"/></linearGradient></defs><path fill="url(#gradient_0)" transform="matrix(1.22461 0 0 1.22461 -210.633 -257.168)" d="M185.958 514.566C185.459 503.92 185.828 490.667 185.83 479.749L185.848 415.595C185.864 364.933 185.872 314.223 185.82 263.565C185.808 252.774 189.074 241.954 197.043 234.458C201.93 229.862 208.86 225.634 215.597 224.677C226.335 223.151 237.94 223.816 248.749 223.9L295.108 223.957L400.507 223.959C420.004 223.96 440.116 223.722 459.563 224.07C496.972 223.27 535.612 224.049 573.172 224.001L610.929 223.96C618.166 223.955 628.505 223.619 635.303 224.695C641.893 225.702 648.026 228.671 652.904 233.215C663.401 243.166 665.229 252.673 665.279 266.652C665.408 302.852 665.293 339.107 665.265 375.306L665.18 580.947L665.099 682.84L665.34 716.159C665.455 731.708 667.152 749.176 655.311 761.301C645.006 771.853 635.521 772.892 621.393 772.998L344.464 772.992L260.617 772.989C246.667 773.013 231.199 773.454 217.363 772.495C210.851 772.044 201.616 766.945 197.128 762.207C187.038 751.556 185.917 743.064 185.869 729.479L185.832 585.235L185.825 538.381C185.822 532.136 185.488 520.333 185.958 514.566ZM358.682 558.127C342.77 551.748 330.055 549.743 313.811 556.626C273.865 573.551 275.326 628.529 315.906 643.744C329.123 648.713 343.788 648.12 356.561 642.1C368.647 636.502 378.029 626.352 382.662 613.864C383.999 610.231 384.883 606.447 385.296 602.598C385.764 597.831 385.615 590.669 385.645 585.729L385.736 555.248L385.635 468.75L385.572 461.107C414.585 454.387 445.297 442.939 473.935 434.59C485.171 431.314 501.852 425.636 513.008 423.434L512.977 523.021C496.882 516.844 483.454 514.495 467.027 521.755C455.345 526.885 446.236 536.522 441.772 548.474C437.57 559.605 437.956 571.948 442.847 582.794C448.336 594.766 458.42 604.019 470.818 608.461C484.094 613.179 498.702 612.421 511.42 606.355C523.438 600.773 532.704 590.59 537.129 578.099C541.383 566.092 540.005 544.093 539.962 530.635L539.957 478.827L539.939 412.324C539.927 399.961 540.006 387.574 539.748 375.215C539.683 372.129 539.541 368.17 538.212 365.367C535.555 359.765 529.661 355.732 523.321 356.097C513.783 357.908 500.441 362.134 491.097 365.079C478.867 369.017 466.592 372.816 454.275 376.475L399.38 392.854C388.728 396.037 377.838 399.043 367.49 403.089C361.099 405.587 359.265 412.831 359.057 418.97C358.785 426.985 358.88 434.995 358.885 443.009L358.907 485.501L358.8 526.577C358.695 536.414 358.256 548.279 358.682 558.127Z"/><defs><linearGradient id="gradient_1" gradientUnits="userSpaceOnUse" x1="191.83649" y1="240.79594" x2="329.93173" y2="373.34299"><stop offset="0" stop-color="#FF8A0C"/><stop offset="1" stop-color="#FF5431"/></linearGradient></defs><path fill="url(#gradient_1)" transform="matrix(1.22461 0 0 1.22461 -210.633 -257.168)" d="M185.958 514.566C185.459 503.92 185.828 490.667 185.83 479.749L185.848 415.595C185.864 364.933 185.872 314.223 185.82 263.565C185.808 252.774 189.074 241.954 197.043 234.458C201.93 229.862 208.86 225.634 215.597 224.677C226.335 223.151 237.94 223.816 248.749 223.9L295.108 223.957L400.507 223.959C420.004 223.96 440.116 223.722 459.563 224.07C456.823 224.639 455.215 224.404 452.538 224.563C454.131 224.913 455.744 225.086 457.033 226.012C458.605 230.482 454.508 230.148 454.148 234.034L454.546 234.88C455.261 234.662 455.978 234.449 456.697 234.241C456.357 236.431 452.936 236.549 452.204 238.898C455.018 239.486 454.292 238.273 456.054 239.563C455.576 242.913 453.559 243.315 450.597 244.133L451.265 246.584C448.307 250.084 445.267 253.653 442.027 256.894C435.192 263.73 427.81 270.089 420.854 276.813C411.771 285.593 363.576 334.336 357.527 335.809C356.622 336.03 356.856 335.945 356.297 336.592C350.67 344.134 334.678 355.353 329.012 364.82C327.416 367.016 325.744 369.781 323.838 371.584C320.107 373.622 317.6 374.574 315.048 377.945C313.577 380.08 312.647 381.482 310.905 383.437C307.867 385.921 305.453 387.626 303.102 390.756L302.377 391.564C300.838 393.282 297.702 396.613 296.459 398.322L296.08 398.707C291.013 403.942 284.03 412.566 279.638 418.487C278.018 420.67 276.414 426.306 274.35 428.733C268.303 435.841 259.483 439.497 252.136 444.863C247.61 448.169 244.097 452.475 239.349 455.527C237.542 456.546 236.888 456.782 235.509 458.266C231.306 462.765 227.158 466.329 222.717 470.517C222.415 470.802 222.882 474.138 222.309 474.461C213.127 483.331 205.381 493.426 196.859 502.901C196.266 503.56 191.09 503.604 190.018 503.621C188.6 501.612 189.265 500.131 187.843 498.793C186.765 502.289 186.955 510.126 185.958 514.566Z"/><path fill="#FF6623" transform="matrix(1.22461 0 0 1.22461 -210.633 -257.168)" d="M356.297 336.592L357.248 337.638C355.279 344.024 339.065 355.901 334.682 361.561C333.039 363.682 332.692 365.411 329.012 364.82C334.678 355.353 350.67 344.134 356.297 336.592Z"/><path fill="#FF6623" transform="matrix(1.22461 0 0 1.22461 -210.633 -257.168)" d="M323.838 371.584C324.818 376.145 318.735 377.986 315.048 377.945C317.6 374.574 320.107 373.622 323.838 371.584Z"/><path fill="#FF6623" transform="matrix(1.22461 0 0 1.22461 -210.633 -257.168)" d="M310.905 383.437C311.908 386.957 306.194 390.742 303.102 390.756C305.453 387.626 307.867 385.921 310.905 383.437Z"/><path fill="#FF6623" transform="matrix(1.22461 0 0 1.22461 -210.633 -257.168)" d="M302.377 391.564C302.281 394.657 300.147 397.96 297.05 398.576L296.459 398.322C297.702 396.613 300.838 393.282 302.377 391.564Z"/><path fill="#FF6623" transform="matrix(1.22461 0 0 1.22461 -210.633 -257.168)" d="M235.509 458.266C236.888 456.782 237.542 456.546 239.349 455.527L239.927 456.788C239.31 458.429 239.831 457.77 238.155 458.695C236.757 458.729 236.758 458.827 235.509 458.266Z"/><defs><linearGradient id="gradient_2" gradientUnits="userSpaceOnUse" x1="713.84534" y1="511.43512" x2="844.04877" y2="640.77789"><stop offset="0" stop-color="#EB364F"/><stop offset="1" stop-color="#B82392"/></linearGradient></defs><path fill="url(#gradient_2)" transform="matrix(1.22461 0 0 1.22461 -210.633 -257.168)" d="M677.791 269.49C685.99 270.202 695.703 270.941 703.67 272.973C713.299 274.604 721.687 277.365 730.813 280.703C773.414 296.6 810.259 324.925 836.573 362.007C840.112 366.993 846.433 376.266 848.703 381.654C850.863 383.819 856.103 394.798 857.569 397.898C873.64 431.859 881.96 468.968 881.927 506.539C881.262 570.351 855.685 631.376 810.654 676.593C775.781 711.382 727.757 736.758 677.918 738.612C677.59 693.163 677.498 647.713 677.643 602.263C706.179 597.332 725.307 587.599 742.509 563.229C758.199 540.975 764.407 513.401 759.767 486.571C757.79 475.348 754.135 466.139 749.284 455.877C748.128 454.302 746.242 450.86 745.028 448.988C741.825 443.951 738.192 439.202 734.168 434.793C719.929 419.219 699.165 407.35 677.831 406.336C677.515 393.104 677.825 379.634 677.774 366.372C677.577 349.342 677.523 332.312 677.611 315.282C677.244 301.277 677.329 283.432 677.791 269.49Z"/><defs><linearGradient id="gradient_3" gradientUnits="userSpaceOnUse" x1="676.11945" y1="295.1629" x2="805.58276" y2="434.65994"><stop offset="0" stop-color="#FF6820"/><stop offset="1" stop-color="#EF2C4F"/></linearGradient></defs><path fill="url(#gradient_3)" transform="matrix(1.22461 0 0 1.22461 -210.633 -257.168)" d="M677.791 269.49C685.99 270.202 695.703 270.941 703.67 272.973C713.299 274.604 721.687 277.365 730.813 280.703C773.414 296.6 810.259 324.925 836.573 362.007C840.112 366.993 846.433 376.266 848.703 381.654C848.307 384.306 850.89 384.782 850.691 388.73C848.906 387.653 849.426 387.577 847.862 387.873C844.453 390.52 843.584 393.658 840.681 396.512C838.242 398.908 835.1 401.238 832.711 403.698C817.492 419.363 801.857 434.284 786.748 450.092C778.906 458.297 769.747 466.306 762.324 475.003C761.561 475.898 761.412 475.977 760.483 476.712C757.446 473.925 753.048 458.063 749.705 456.125L749.284 455.877C748.128 454.302 746.242 450.86 745.028 448.988C741.825 443.951 738.192 439.202 734.168 434.793C719.929 419.219 699.165 407.35 677.831 406.336C677.515 393.104 677.825 379.634 677.774 366.372C677.577 349.342 677.523 332.312 677.611 315.282C677.244 301.277 677.329 283.432 677.791 269.49Z"/><path fill="#FF6623" transform="matrix(1.22461 0 0 1.22461 -210.633 -257.168)" d="M677.791 269.49C685.99 270.202 695.703 270.941 703.67 272.973C701.668 273.062 701.754 272.725 700.475 273.716L700.462 274.401C700.398 276.802 700.636 277.849 698.839 279.425C694.957 282.828 690.04 285.451 686.11 288.766C684.088 290.471 686.072 292.16 682.865 293.657C681.529 293.577 680.194 293.467 678.863 293.325C677.383 298.838 679.199 309.028 677.611 315.282C677.244 301.277 677.329 283.432 677.791 269.49Z"/><defs><linearGradient id="gradient_4" gradientUnits="userSpaceOnUse" x1="649.93353" y1="449.05655" x2="729.64929" y2="554.10718"><stop offset="0" stop-color="#FF423A"/><stop offset="1" stop-color="#E43160"/></linearGradient></defs><path fill="url(#gradient_4)" transform="matrix(1.22461 0 0 1.22461 -210.633 -257.168)" d="M677.986 425.785C679.663 425.987 681.334 426.23 682.999 426.515C740.411 436.789 760.583 512.766 725.811 555.604C719.537 563.333 714.481 567.556 706.322 573.175C695.541 579.314 690.113 580.987 677.862 582.577C677.681 568.508 677.636 554.437 677.729 540.367C680.092 539.707 682.646 538.918 684.834 537.91C710.365 526.145 712.362 486.09 687.576 472.29C684.244 470.435 681.57 469.462 678.01 468.233L677.986 425.785Z"/></g></svg>