<?xml version="1.0" encoding="utf-8" ?><svg xmlns="http://www.w3.org/2000/svg" xmlns:xlink="http://www.w3.org/1999/xlink" width="455" height="736" viewBox="0 0 455 736"><clipPath id="cl_6"><rect width="455" height="736"/></clipPath><g clip-path="url(#cl_6)"><defs><linearGradient id="gradient_0" gradientUnits="userSpaceOnUse" x1="528.68079" y1="315.689" x2="741.99866" y2="674.73383"><stop offset="0" stop-color="#FF960B"/><stop offset="1" stop-color="#FE114C"/></linearGradient></defs><path fill="url(#gradient_0)" transform="translate(-400 -233)" d="M498.617 365.631C498.387 359.709 499.477 349.578 500.432 343.819C506.1 310.71 524.808 281.257 552.366 262.051C588.493 236.577 638.273 232.32 678.869 249.479C696.065 256.747 716.106 270.636 727.017 286.075C746.361 308.865 755.089 336.094 755.202 365.721L718.044 365.618C710.545 365.591 700.324 365.054 693.145 366.394C678.729 369.085 674.014 386.641 685.145 396.726C687.367 398.776 690.12 400.162 693.09 400.728C697.167 401.493 710.069 401.254 714.801 401.253L755.147 401.198C755.364 412.612 754.73 427.484 755.349 438.301L715.839 438.241C709.079 438.228 699.324 437.545 693.047 438.86C679.115 441.78 674.056 459.336 684.981 468.94C692.551 475.594 707.305 473.706 716.885 473.663L754.993 473.398C755.631 482.63 755.709 501.173 755.139 510.617C742.568 510.742 729.995 510.748 717.424 510.633C709.225 510.599 700.604 510.096 692.521 511.365C684.457 512.631 678.677 520.727 679.006 528.709C679.244 533.899 681.64 538.753 685.615 542.098C692.494 547.808 707.891 545.952 716.8 545.916L755.062 545.974C755.905 598.976 760.074 643.455 719.369 685.137C695.344 709.395 662.639 723.074 628.497 723.143C550.54 723.905 494.576 661.378 498.442 585.258C499.087 572.564 498.231 558.75 498.667 545.852C511.423 545.687 524.181 545.683 536.937 545.839C551.743 545.926 575.546 549.19 574.949 527.51C574.392 507.253 549.848 510.473 536.681 510.528L498.485 510.664L498.513 473.407L537.896 473.526C543.809 473.54 556.586 473.929 561.76 472.764C564.729 472.09 567.46 470.625 569.663 468.524C580.637 458.136 573.441 439.304 559.417 438.767C539.59 438.008 518.559 438.17 498.739 438.448C498.789 426.1 498.675 413.523 498.842 401.21L537.457 401.234C543.263 401.247 556.156 401.617 561.199 400.546C564.61 399.796 567.726 398.063 570.162 395.562C579.841 385.515 574.113 368.091 560.407 366.152C553.125 365.121 544.906 365.512 537.492 365.526L498.617 365.631Z"/><path fill="#FE8A16" transform="translate(-400 -233)" d="M498.617 365.631C498.387 359.709 499.477 349.578 500.432 343.819C506.1 310.71 524.808 281.257 552.366 262.051C588.493 236.577 638.273 232.32 678.869 249.479C696.065 256.747 716.106 270.636 727.017 286.075C728.175 290.032 730.455 291.352 731.2 295.055C730.075 296.607 724.641 298.14 722.687 298.633C707.203 294.503 701.056 297.346 686.751 305.587C684.975 306.623 683.223 307.699 681.496 308.816L679.355 307.988C676.354 309.88 674.677 312.986 672.155 313.797C671.818 312.92 671.623 312.529 671.062 311.736C670.116 312.486 666.717 315.399 665.881 315.602L666.006 313.317C663.852 312.516 661.605 314.794 659.858 316.108C659.545 315.294 659.248 314.474 658.966 313.649C656.998 314.072 656.576 314.806 654.871 316.182L654.072 313.804C651.177 313.73 649.255 318.16 646.759 319.135L646.253 316.287C644.585 316.956 645.165 316.683 643.772 317.993C643.518 315.824 643.977 316.236 642.918 314.971C641.07 316.382 639.659 318.593 637.728 319.212C637.282 318.558 636.837 317.904 636.392 317.249L634.614 318.519C634.147 315.091 636.017 315.939 634.421 314.407C632.438 315.891 630.602 317.257 628.553 318.646C628.222 317.197 628.404 317.469 628.728 315.839C625.97 315.986 625.346 318.771 622.553 318.602C622.218 317.306 622.049 316.52 621.838 315.199L618.484 316.201C617.171 314.758 617.705 315.576 617.339 313.393C614.103 314.032 607.483 316.506 605.432 316.502C605.395 315.118 605.368 314.145 604.97 312.817C601.018 311.009 595.385 315.997 593.399 314.664L593.109 312.165C590.642 311.185 586.084 313.918 583.449 314.587C583.245 314.638 582.016 311.664 582 311.626C575.453 313.81 568.244 318.29 562.667 319.999C562.024 318.42 562.256 318.976 562.468 317.037C558.48 318.228 555.825 320.516 551.59 321.609C540.844 324.382 529.924 326.267 519.071 328.69C513.142 330.014 509.847 331.991 504.935 333.452L505.321 331.084L504.97 330.854C501.046 337.984 500.874 362.449 498.617 365.631Z"/><defs><linearGradient id="gradient_1" gradientUnits="userSpaceOnUse" x1="503.6019" y1="625.19305" x2="806.74817" y2="857.77582"><stop offset="0" stop-color="#FF4A2D"/><stop offset="1" stop-color="#F90075"/></linearGradient></defs><path fill="url(#gradient_1)" transform="translate(-400 -233)" d="M484.77 692.458C487.837 695.237 491.368 701.338 494.23 704.745C559.434 782.368 672.345 789.333 745.703 719.51C778.678 688.405 797.822 645.387 798.858 600.068C799.16 587.76 796.602 573.894 805.866 565.163C810.366 560.981 816.352 558.772 822.491 559.029C828.614 559.232 834.393 561.688 838.533 566.252C841.073 569.074 842.837 572.507 843.653 576.215C844.849 581.558 843.916 607.002 843.453 613.485C839.505 668.784 810.052 724.519 768.003 760.426C734.668 789.224 693.391 807.249 649.611 812.127C649.615 838.645 649.105 867.142 649.688 893.498L691.187 893.422C700.207 893.413 711.393 892.672 720.066 894.62C746.754 900.616 755.017 932.622 736.472 951.879C725.332 963.447 713.336 961.924 698.762 961.879L663.198 961.795C623.425 961.798 583.651 961.891 543.879 961.857C540.497 961.854 531.872 961.187 528.939 959.811C506.574 949.314 499.364 920.086 518.509 902.538C522.773 898.649 527.973 895.932 533.601 894.653C541.354 892.835 554.989 893.405 563.236 893.431L604.368 893.458L604.365 812.152C545.691 805.066 495.982 777.942 458.001 731.806C456.782 730.326 453.777 726.445 452.926 724.827C452.733 719.187 442.665 709.318 442.829 705.316L444.145 704.513C445.805 704.763 446.69 704.868 448.364 704.941C448.06 705.251 455.37 699.039 453.177 701.797C458.122 695.577 468.965 687.715 475.307 684.181L476.368 683.598L476.87 681.827C477.618 684.711 481.971 691.513 484.77 692.458Z"/><defs><linearGradient id="gradient_2" gradientUnits="userSpaceOnUse" x1="402.22958" y1="575.85028" x2="478.55109" y2="683.69305"><stop offset="0" stop-color="#FF7825"/><stop offset="1" stop-color="#FF4D31"/></linearGradient></defs><path fill="url(#gradient_2)" transform="translate(-400 -233)" d="M452.926 724.827C452.605 724.454 452.284 724.081 451.963 723.708C425.188 687.44 410.146 642.352 409.602 597.287C409.454 584.997 407.68 570.572 419.272 562.68C430.69 554.908 448.927 559.349 453.24 573.255C456.321 583.19 454.181 594.304 455.03 604.604C456.092 637.202 467.859 665.115 484.77 692.458C481.971 691.513 477.618 684.711 476.87 681.827L476.368 683.598L475.307 684.181C468.965 687.715 458.122 695.577 453.177 701.797C455.37 699.039 448.06 705.251 448.364 704.941C446.69 704.868 445.805 704.763 444.145 704.513L442.829 705.316C442.665 709.318 452.733 719.187 452.926 724.827Z"/></g></svg>