<?xml version="1.0" encoding="UTF-8"?>
<svg xmlns="http://www.w3.org/2000/svg" xmlns:xlink="http://www.w3.org/1999/xlink" width="24px" height="24px" viewBox="0 0 24 24" version="1.1">
<defs>
<linearGradient id="linear0" gradientUnits="userSpaceOnUse" x1="591.629883" y1="344.956726" x2="702.304321" y2="571.298279" gradientTransform="matrix(0.0191388,0,0,0.0191388,0,0)">
<stop offset="0" style="stop-color:rgb(100%,40%,8.627451%);stop-opacity:1;"/>
<stop offset="1" style="stop-color:rgb(96.862745%,6.666667%,17.647059%);stop-opacity:1;"/>
</linearGradient>
<linearGradient id="linear1" gradientUnits="userSpaceOnUse" x1="571.300293" y1="524.540833" x2="629.901855" y2="691.001892" gradientTransform="matrix(0.0191388,0,0,0.0191388,0,0)">
<stop offset="0" style="stop-color:rgb(100%,20%,14.901961%);stop-opacity:1;"/>
<stop offset="1" style="stop-color:rgb(90.588235%,8.627451%,24.313725%);stop-opacity:1;"/>
</linearGradient>
<linearGradient id="linear2" gradientUnits="userSpaceOnUse" x1="564.934814" y1="684.222961" x2="606.89447" y2="829.252319" gradientTransform="matrix(0.0191388,0,0,0.0191388,0,0)">
<stop offset="0" style="stop-color:rgb(94.901961%,12.941176%,25.882353%);stop-opacity:1;"/>
<stop offset="1" style="stop-color:rgb(68.627451%,11.372549%,32.54902%);stop-opacity:1;"/>
</linearGradient>
<linearGradient id="linear3" gradientUnits="userSpaceOnUse" x1="863.890198" y1="630.69812" x2="914.965027" y2="781.564392" gradientTransform="matrix(0.0191388,0,0,0.0191388,0,0)">
<stop offset="0" style="stop-color:rgb(93.333333%,14.901961%,30.196078%);stop-opacity:1;"/>
<stop offset="1" style="stop-color:rgb(61.960784%,10.980392%,33.72549%);stop-opacity:1;"/>
</linearGradient>
</defs>
<g id="surface1">
<path style=" stroke:none;fill-rule:nonzero;fill:url(#linear0);" d="M 9.402344 8.078125 C 10.980469 8.066406 12.554688 8.070312 14.132812 8.082031 L 15.5625 8.078125 C 15.859375 8.078125 16.152344 8.074219 16.449219 8.09375 C 17.011719 8.128906 17.230469 8.894531 16.839844 9.269531 C 16.753906 9.351562 16.648438 9.410156 16.535156 9.441406 C 16.363281 9.484375 15.640625 9.46875 15.417969 9.46875 L 9.105469 9.46875 C 8.875 9.46875 8.46875 9.492188 8.253906 9.449219 C 7.726562 9.34375 7.578125 8.632812 7.941406 8.28125 C 8.027344 8.195312 8.132812 8.136719 8.25 8.109375 C 8.394531 8.070312 8.65625 8.082031 8.816406 8.082031 Z M 9.402344 8.078125 "/>
<path style=" stroke:none;fill-rule:nonzero;fill:url(#linear1);" d="M 8.378906 10.949219 C 8.636719 10.925781 9.144531 10.945312 9.421875 10.945312 L 11.285156 10.949219 L 13.484375 10.945312 C 13.867188 10.945312 14.257812 10.941406 14.640625 10.953125 C 14.78125 10.960938 14.867188 10.988281 14.980469 11.074219 C 15.136719 11.191406 15.234375 11.363281 15.261719 11.554688 C 15.28125 11.742188 15.230469 11.929688 15.113281 12.078125 C 14.976562 12.246094 14.828125 12.300781 14.625 12.324219 C 14.464844 12.34375 13.960938 12.332031 13.777344 12.328125 L 8.835938 12.328125 C 8.683594 12.328125 8.484375 12.335938 8.339844 12.320312 C 8.222656 12.3125 8.113281 12.269531 8.019531 12.199219 C 7.863281 12.082031 7.765625 11.90625 7.742188 11.714844 C 7.691406 11.308594 7.992188 10.996094 8.378906 10.949219 Z M 8.378906 10.949219 "/>
<path style=" stroke:none;fill-rule:nonzero;fill:url(#linear2);" d="M 8.308594 13.808594 C 8.542969 13.789062 9.003906 13.800781 9.246094 13.804688 L 12.984375 13.804688 C 13.335938 13.804688 13.695312 13.796875 14.046875 13.804688 C 14.160156 13.816406 14.269531 13.816406 14.367188 13.886719 C 14.882812 14.238281 14.789062 15.011719 14.152344 15.164062 C 13.96875 15.191406 13.5625 15.175781 13.355469 15.175781 L 9.585938 15.175781 C 9.203125 15.175781 8.757812 15.191406 8.382812 15.171875 C 7.609375 15.125 7.476562 14.003906 8.308594 13.808594 Z M 8.308594 13.808594 "/>
<path style=" stroke:none;fill-rule:nonzero;fill:url(#linear3);" d="M 15.84375 12.21875 C 15.855469 11.910156 16.160156 11.726562 16.445312 11.8125 C 16.546875 11.84375 16.628906 11.902344 16.71875 11.957031 C 17.140625 12.226562 17.5625 12.5 17.976562 12.785156 C 18.183594 12.929688 18.625 13.179688 18.695312 13.429688 C 18.757812 13.65625 18.628906 13.921875 18.4375 14.042969 C 17.84375 14.4375 17.265625 14.859375 16.660156 15.242188 C 16.589844 15.289062 16.445312 15.367188 16.363281 15.371094 C 15.773438 15.417969 15.832031 14.886719 15.832031 14.519531 L 15.835938 13.753906 L 15.832031 12.761719 C 15.832031 12.640625 15.820312 12.316406 15.84375 12.21875 Z M 15.84375 12.21875 "/>
<path style=" stroke:none;fill-rule:nonzero;fill:rgb(94.509804%,16.862746%,20%);fill-opacity:1;" d="M 15.84375 12.21875 C 15.855469 11.910156 16.160156 11.726562 16.445312 11.8125 C 16.546875 11.84375 16.628906 11.902344 16.71875 11.957031 C 16.738281 12.007812 16.738281 11.984375 16.726562 12.03125 C 16.707031 12.050781 16.464844 12.109375 16.414062 12.125 C 16.234375 12.175781 16.066406 12.25 15.90625 12.34375 L 15.867188 12.332031 C 15.847656 12.359375 15.855469 12.367188 15.855469 12.398438 C 15.839844 12.367188 15.851562 12.269531 15.84375 12.21875 Z M 15.84375 12.21875 "/>
<path style=" stroke:none;fill-rule:nonzero;fill:rgb(99.607843%,39.607844%,7.058824%);fill-opacity:1;" d="M 5.980469 8.066406 C 6.367188 8.027344 6.710938 8.308594 6.75 8.695312 C 6.789062 9.078125 6.507812 9.421875 6.125 9.460938 C 5.738281 9.5 5.394531 9.222656 5.355469 8.835938 C 5.316406 8.449219 5.59375 8.105469 5.980469 8.066406 Z M 5.980469 8.066406 "/>
<path style=" stroke:none;fill-rule:nonzero;fill:rgb(94.509804%,16.862746%,20%);fill-opacity:1;" d="M 6.007812 13.777344 C 6.394531 13.753906 6.722656 14.042969 6.75 14.429688 C 6.773438 14.8125 6.484375 15.144531 6.097656 15.171875 C 5.714844 15.199219 5.378906 14.90625 5.355469 14.519531 C 5.328125 14.132812 5.621094 13.800781 6.007812 13.777344 Z M 6.007812 13.777344 "/>
<path style=" stroke:none;fill-rule:nonzero;fill:rgb(94.509804%,16.862746%,20%);fill-opacity:1;" d="M 6.015625 10.925781 C 6.398438 10.90625 6.726562 11.199219 6.75 11.582031 C 6.773438 11.964844 6.484375 12.292969 6.101562 12.320312 C 5.714844 12.347656 5.378906 12.054688 5.355469 11.667969 C 5.332031 11.28125 5.628906 10.945312 6.015625 10.925781 Z M 6.015625 10.925781 "/>
</g>
</svg>
