<?xml version="1.0" encoding="utf-8" ?><svg xmlns="http://www.w3.org/2000/svg" xmlns:xlink="http://www.w3.org/1999/xlink" width="811" height="584" viewBox="0 0 811 584"><clipPath id="cl_4"><rect width="811" height="584"/></clipPath><g clip-path="url(#cl_4)"><defs><linearGradient id="gradient_0" gradientUnits="userSpaceOnUse" x1="456.58102" y1="549.58459" x2="882.17273" y2="968.58038"><stop offset="0" stop-color="#FF5332"/><stop offset="1" stop-color="#FC176D"/></linearGradient></defs><path fill="url(#gradient_0)" transform="translate(-213 -333)" d="M274.898 785.504C275.15 792.214 274.948 799.354 275.063 806.129C275.477 830.617 292.886 851.508 317.455 854.573C324.922 855.504 336.57 854.839 344.523 854.845L398.065 854.841L566.466 854.803L803.188 854.782L877.584 854.786C907.881 854.823 946.8 860.941 959.875 823.195C965.304 807.522 963.188 779.04 963.169 761.725L963.159 635.701L963.139 599.448C963.09 588.421 960.855 576.741 969.069 567.869C973.095 563.517 978.722 560.997 984.649 560.889C990.574 560.737 996.3 563.036 1000.47 567.245C1009 575.936 1006.64 591.659 1006.64 603.247L1006.64 648.133L1006.62 800.921C1006.6 807.728 1006.3 819.094 1004.84 825.609C1001.02 842.615 991.525 860.905 978.924 873.016C965.85 885.584 946.847 895.658 928.92 898.421C919.753 899.834 908.845 899.5 899.554 899.48L863.336 899.392L734.349 899.255L454.64 899.238C411.097 899.236 365.398 900.004 322.026 899.283C297.367 898.862 273.917 888.528 256.968 870.612C230.481 842.867 230.581 813.367 231.562 777.987C231.848 776.355 232.122 774.899 232.271 773.24C233.431 774.583 233.226 778.932 233.951 781.474C235.031 785.261 237.136 788.754 237.297 792.548C238.37 790.574 239.235 787.274 240.332 786.573C241.656 789.303 240.548 791.062 242.188 793.337C246.595 789.284 248.954 796.124 252.177 797.075C258.86 797.103 261.829 787.191 265.583 785.545C267.343 788.065 269.034 787.738 272.731 788.726C273.651 786.535 273.281 786.285 274.898 785.504Z"/><defs><linearGradient id="gradient_1" gradientUnits="userSpaceOnUse" x1="285.66626" y1="355.72995" x2="553.28326" y2="620.83459"><stop offset="0" stop-color="#FF790C"/><stop offset="1" stop-color="#FF4441"/></linearGradient></defs><path fill="url(#gradient_1)" transform="translate(-213 -333)" d="M231.562 777.987C230.469 700.376 231.394 620.378 231.407 542.585L231.425 475.633C231.429 462.314 230.686 442.708 233.082 430.208C236.509 412.037 245.19 395.27 258.05 381.983C274.948 364.594 298.108 354.698 322.355 354.508L622.918 354.525L719.013 354.524C735.553 354.509 752.477 354.225 769.008 354.859C773.61 355.035 778.214 357.678 781.384 360.746C790.507 368.671 789.75 385.1 781.337 393.195C774.267 399.998 763.678 399.23 754.625 399.151C746.548 399.139 738.45 399.109 730.364 399.109L653.721 399.143L405.23 399.147L348.854 399.123C339.064 399.12 327.293 398.626 317.729 399.444C294.764 401.408 276.054 422.525 275.489 445.345C275.153 455.558 275.283 465.871 275.27 476.102L275.299 534.966L275.117 705.6L275.13 761.288C275.082 768.244 275.355 778.882 274.898 785.504C273.281 786.285 273.651 786.535 272.731 788.726C269.034 787.738 267.343 788.065 265.583 785.545C261.829 787.191 258.86 797.103 252.177 797.075C248.954 796.124 246.595 789.284 242.188 793.337C240.548 791.062 241.656 789.303 240.332 786.573C239.235 787.274 238.37 790.574 237.297 792.548C237.136 788.754 235.031 785.261 233.951 781.474C233.226 778.932 233.431 774.583 232.271 773.24C232.122 774.899 231.848 776.355 231.562 777.987Z"/><defs><linearGradient id="gradient_2" gradientUnits="userSpaceOnUse" x1="399.39413" y1="611.47742" x2="486.51941" y2="744.39185"><stop offset="0" stop-color="#FF681D"/><stop offset="1" stop-color="#FF2F53"/></linearGradient></defs><path fill="url(#gradient_2)" transform="translate(-213 -333)" d="M416.211 601.968C420.057 601.677 424.035 601.918 427.795 602.823C432.528 603.962 526.131 660.997 536.732 668.379C539.861 670.558 542.512 672.705 544.587 675.986C548.584 682.304 550.214 690.145 548.334 697.455C546.99 702.683 543.724 707.3 539.797 710.924C533.827 716.434 525.488 720.339 518.477 724.444C509.406 729.774 500.374 735.171 491.383 740.635C478.851 748.678 436.981 776.402 425.841 779.243C419.554 780.846 412.711 779.618 407.198 776.264C402.095 773.2 398.42 768.232 396.985 762.455C395.525 756.37 396.004 741.385 396.029 734.532L396.118 693.998L396.046 649.058C396.007 629.566 391.652 607.54 416.211 601.968Z"/><defs><linearGradient id="gradient_3" gradientUnits="userSpaceOnUse" x1="805.72882" y1="488.9415" x2="945.50757" y2="449.08023"><stop offset="0" stop-color="#FF572A"/><stop offset="1" stop-color="#FD364A"/></linearGradient></defs><path fill="url(#gradient_3)" transform="translate(-213 -333)" d="M885.21 496.879C889.603 497.972 894.976 497.451 899.513 497.42C911.168 497.341 945.297 495.117 954.652 499.62C959.437 501.924 963.248 507.223 964.951 512.146C966.676 517.135 966.063 523.059 963.749 527.754C961.411 532.496 956.694 537.079 951.56 538.651C946.038 540.342 847.659 540.106 835.364 539.427C831.818 539.231 826.496 538.794 823.461 536.95C819.158 534.337 815.858 528.66 814.641 523.897C812.622 515.99 813.993 489.127 813.99 479.201L813.962 437.512C813.963 428.566 812.735 409.287 816.83 401.47C824.835 386.189 851.173 388.196 854.558 406.496C856.903 419.176 854.81 433.963 855.373 447.005C855.665 453.698 854.714 461.61 855.914 468.115C855.481 476.001 855.412 489.269 855.707 497.139C860.303 497.077 882.256 496.477 885.21 496.879Z"/><defs><linearGradient id="gradient_4" gradientUnits="userSpaceOnUse" x1="683.74176" y1="637.22284" x2="794.69757" y2="757.81268"><stop offset="0" stop-color="#FF6223"/><stop offset="1" stop-color="#FD2759"/></linearGradient></defs><path fill="url(#gradient_4)" transform="translate(-213 -333)" d="M640.554 678.615C649.913 677.906 663.795 678.326 673.67 678.322L735.112 678.324L799.968 678.313C809.492 678.316 836.72 676.827 843.651 680.975C857.881 689.491 856.107 713.207 837.036 717.115C826.925 717.833 812.444 717.411 802.032 717.396L740.781 717.297L683.293 717.365C671.53 717.392 659.795 717.438 648.009 717.357C639.807 717.3 631.233 715.075 627.882 706.509C622.894 693.763 627.855 683.486 640.554 678.615Z"/><path fill="#FD3845" transform="translate(-213 -333)" d="M855.914 468.115L932.491 391.343L951.669 372.183C959.04 364.723 966.119 354.934 977.387 354.998C992.918 355.087 1002.23 368.643 997.267 383.232C996.246 386.201 993.261 388.607 991.295 390.976C967.951 414.482 944.273 437.777 920.891 461.247L896.655 485.609C894.625 487.651 887.046 495.527 885.21 496.879C882.256 496.477 860.303 497.077 855.707 497.139C855.412 489.269 855.481 476.001 855.914 468.115Z"/></g></svg>