<?xml version="1.0" encoding="utf-8" ?><svg xmlns="http://www.w3.org/2000/svg" xmlns:xlink="http://www.w3.org/1999/xlink" width="963" height="816" viewBox="0 0 963 816"><clipPath id="cl_2a"><rect x="0.00030517578" y="4.5776367e-05" width="963.23407" height="816.16797"/></clipPath><g clip-path="url(#cl_2a)"><defs><linearGradient id="gradient_0" gradientUnits="userSpaceOnUse" x1="306.06705" y1="432.57605" x2="797.6192" y2="793.68445"><stop offset="0" stop-color="#FF8725"/><stop offset="1" stop-color="#EE1B75"/></linearGradient></defs><path fill="url(#gradient_0)" transform="matrix(0.973947 0 0 0.973947 -132.457 -198.685)" d="M380.909 434.49C389.959 424.775 408.479 408.9 418.997 399.295L496.315 328.803L556.867 273.324C567.838 263.27 579.684 251.713 591.541 242.841C597.236 238.58 607.269 235.993 614.454 235.69C627.556 235.108 640.345 239.798 649.964 248.713C661.845 259.878 666.993 274.827 667.127 290.803C667.263 307.043 667.162 323.296 667.099 339.534L666.862 424.042L666.159 709.973L665.675 878.281L665.648 932.267C665.644 942.248 665.986 952.741 665.256 962.686C663.372 988.382 642.947 1010.81 616.532 1011.47C594.218 1012.02 582.991 999.973 567.641 986.102L537.724 959.15C484.941 912.488 432.615 863.666 380.05 816.487C350.364 815.635 320.043 816.944 290.282 816.514C257.404 816.038 230.733 821.205 205.779 794.632C196.987 785.153 190.919 773.476 188.215 760.834C185.996 750.356 186.577 708.562 186.811 695.47C187.303 667.982 185.979 637.164 186.866 610.112C186.275 588.126 187.01 565.74 186.786 543.71C186.426 508.174 182.104 473.655 213.856 449.156C222.584 442.472 232.715 437.856 243.487 435.659C255.036 433.406 272.328 433.97 284.537 434.081C297.585 434.203 310.634 434.233 323.682 434.169L359.573 434.102C365.453 434.092 375.363 433.795 380.909 434.49Z"/><defs><linearGradient id="gradient_1" gradientUnits="userSpaceOnUse" x1="202.1407" y1="461.96069" x2="269.44568" y2="521.9585"><stop offset="0" stop-color="#FF990F"/><stop offset="1" stop-color="#FF8523"/></linearGradient></defs><path fill="url(#gradient_1)" transform="matrix(0.973947 0 0 0.973947 -132.457 -198.685)" d="M186.866 610.112C186.275 588.126 187.01 565.74 186.786 543.71C186.426 508.174 182.104 473.655 213.856 449.156C222.584 442.472 232.715 437.856 243.487 435.659C255.036 433.406 272.328 433.97 284.537 434.081C297.585 434.203 310.634 434.233 323.682 434.169L359.573 434.102C365.453 434.092 375.363 433.795 380.909 434.49L380.734 435.384C378.693 435.896 376.635 435.364 374.089 435.482C363.953 435.952 351.674 434.733 341.773 436.19C339.953 436.458 334.902 443.36 331.938 444.188C331.547 444.298 325.34 447.864 325.189 448.063C321.767 452.579 314.12 457.747 311.486 461.759C310.662 462.135 304.335 464.812 304.059 465.082C297.655 471.343 287.698 481.272 283.68 489.063C280.468 495.292 275.213 493.989 272.281 500.931C269.791 506.824 269.294 509.803 263.812 511.922C263.276 512.127 262.739 512.326 262.2 512.519C254.887 522.976 246.969 529.301 238.603 538.661C234.245 543.536 232.349 552.393 228.371 557.847C225.161 564.012 218.336 567.402 214.431 572.422C210.787 577.106 208.573 586.151 205.338 591.225C201.806 596.765 198.534 600.95 195.642 606.924C195.942 605.023 196.148 603.045 196.805 601.253C195.908 601.857 194.99 602.392 194.038 602.904L193.389 601.496C192.092 602.03 192.359 601.854 191.211 602.659C190.015 599.556 189.456 594.494 188.443 590.773C188.295 595.709 189.157 606.835 186.866 610.112Z"/><defs><linearGradient id="gradient_2" gradientUnits="userSpaceOnUse" x1="801.77643" y1="515.48346" x2="1057.2983" y2="803.27576"><stop offset="0" stop-color="#FF6C3E"/><stop offset="1" stop-color="#EF2768"/></linearGradient></defs><path fill="url(#gradient_2)" transform="matrix(0.973947 0 0 0.973947 -132.457 -198.685)" d="M908.772 421.353C906.11 419.631 893.703 403.831 889.659 399.436C875.071 383.577 855.223 373.697 858.019 349.003C860.52 326.921 884.526 312.166 905.045 318.155C923.577 323.564 952.797 354.918 964.703 370.993C980.127 388.852 994.92 412.992 1005.55 433.976C1041.15 503.937 1056.74 582.365 1050.61 660.621C1044.32 741.303 1014 818.252 963.586 881.554C951.75 896.423 938.799 910.682 924.576 923.352C916.65 930.413 905.848 934.252 895.172 933.477C885.277 932.733 876.124 927.954 869.858 920.26C863.919 912.89 861.214 904.418 862.16 894.881C863.888 877.472 880.168 866.853 891.648 854.45C899.049 846.369 906.036 837.917 912.582 829.129C986.267 730.515 996.973 596.039 946.927 484.681C939.867 468.94 931.467 453.834 921.82 439.532C917.832 433.625 912.32 426.831 908.772 421.353Z"/><defs><linearGradient id="gradient_3" gradientUnits="userSpaceOnUse" x1="867.93597" y1="329.7551" x2="943.83093" y2="400.42676"><stop offset="0" stop-color="#FF7E31"/><stop offset="1" stop-color="#FF6B40"/></linearGradient></defs><path fill="url(#gradient_3)" transform="matrix(0.973947 0 0 0.973947 -132.457 -198.685)" d="M908.772 421.353C906.11 419.631 893.703 403.831 889.659 399.436C875.071 383.577 855.223 373.697 858.019 349.003C860.52 326.921 884.526 312.166 905.045 318.155C923.577 323.564 952.797 354.918 964.703 370.993C962.263 376.464 963.348 373.502 963.802 378.823C963.929 380.315 953.412 384.452 952.503 385.697C951.624 386.9 951.509 388.489 951.266 390.129C946.456 395.706 936.036 401.286 930.638 406.443C928.565 408.424 928.02 416.068 924.067 417.807L920.57 417.08C918.377 418.924 920.399 420.475 918.023 422.658C915.861 422.107 911.171 421.584 909.722 420.532L908.772 421.353Z"/><path fill="#FB554A" transform="matrix(0.973947 0 0 0.973947 -132.457 -198.685)" d="M788.989 447.157C809.884 445.903 820.405 457.085 833.452 471.36C860.559 500.86 879.197 537.132 887.398 576.347C901.406 638.318 889.656 703.321 854.839 756.466C846.02 770.202 830.948 790.569 818.023 800.947C814.08 804.113 807.575 806.348 802.612 807.429C792.716 808.703 783.808 807.532 775.374 801.701C767.165 796.006 761.652 787.192 760.124 777.319C756.888 755.365 775.346 743.277 787.63 726.041C829.171 668.877 829.66 591.595 788.846 533.91C786.164 530.098 780.531 522.639 777.314 519.282C767.746 509.3 758.881 503.443 756.643 488.58C755.317 479.241 757.743 469.757 763.391 462.203C769.876 453.391 778.297 448.745 788.989 447.157Z"/></g></svg>