<?xml version="1.0" encoding="utf-8" ?><svg xmlns="http://www.w3.org/2000/svg" xmlns:xlink="http://www.w3.org/1999/xlink" width="1049" height="583" viewBox="0 0 1049 583"><clipPath id="cl_8"><rect width="1049" height="583"/></clipPath><g clip-path="url(#cl_8)"><path fill="#FEFEFE" transform="translate(-102 -332)" d="M414.554 354.616C422.986 354.232 435.014 354.715 443.79 354.758L500.117 354.851L686.254 354.84L791.035 354.888L823.971 354.75C829.257 354.727 835.525 354.572 840.727 354.858C844.252 355.052 850.007 359.115 852.094 362.095C854.485 365.509 854.826 368.692 854.843 372.843C854.895 384.933 854.757 397.072 854.734 409.161L854.749 480.051L854.705 711.296L854.706 819.188L854.715 848.662C854.712 860.853 856.888 872.11 845.805 879.937C845.13 880.178 844.444 880.386 843.749 880.56C838.671 881.86 814.586 881.528 808.327 881.545L733.302 881.67L497.731 881.469C471.924 881.312 446.104 880.951 420.292 881.109C416.935 880.903 410.618 880.79 407.814 879.041C396.384 871.911 399.472 857.915 399.287 846.562C399.176 839.73 399.337 832.966 399.313 826.208L399.155 721.114L399.271 474.41C399.338 441.629 399.297 408.848 399.33 376.069C399.34 364.91 402.459 357.022 414.554 354.616Z"/><path fill="#FEFEFE" transform="translate(-102 -332)" d="M1142.03 892.232C1135.2 909.475 1121.86 903.642 1108.28 898.985C1101.97 896.821 1095.66 894.233 1089.35 892.12C1057.2 881.415 1025.15 870.439 993.186 859.192C962.082 848.495 930.709 838.821 899.813 827.564C891.943 824.696 885.329 820.599 884.901 811.301C884.161 795.224 884.421 779.037 884.419 762.933L884.473 671.408L884.309 497.697C884.325 476.813 884.231 455.938 883.988 435.05C883.879 425.643 887.638 417.686 896.881 414.271C907.101 410.494 917.568 407.228 927.915 403.797C945.763 397.855 963.576 391.808 981.353 385.655L1067.25 356.068C1084.26 350.208 1101.23 344.193 1118.35 338.682C1126.38 336.096 1132.37 335.757 1138.38 342.435C1140.74 344.941 1142.35 347.622 1142.49 351.13C1142.84 359.451 1142.79 368.006 1142.83 376.334L1142.97 422.514L1142.92 563.565L1142.95 781.225L1142.97 848.236C1142.99 858.875 1144.23 882.802 1142.03 892.232Z"/><path fill="#DFDFE0" transform="translate(-102 -332)" d="M1138.38 342.435C1140.74 344.941 1142.35 347.622 1142.49 351.13C1142.84 359.451 1142.79 368.006 1142.83 376.334L1142.97 422.514L1142.92 563.565L1142.95 781.225L1142.97 848.236C1142.99 858.875 1144.23 882.802 1142.03 892.232C1140.68 883.584 1141.36 858.135 1141.37 848.409L1141.32 760.081L1141.32 437.427L1141.33 382.454C1141.37 369.965 1142.81 353.992 1138.38 342.435Z"/><path fill="#FEFEFE" transform="translate(-102 -332)" d="M125.613 337.474C131.254 337.291 138.805 339.767 144.244 341.624C212.641 364.975 281.192 387.96 349.377 411.921C358.473 415.118 368.201 417.419 369.053 428.972C369.403 443.871 369.219 459.311 369.221 474.218L369.232 564.072L369.235 724.436C369.236 751.126 369.279 777.837 369.25 804.528C369.247 807.236 368.94 815.888 367.987 818.255C365.779 821.354 362.025 824.255 358.603 825.818C351.006 829.29 342.601 831.68 334.68 834.254C322.111 838.308 309.587 842.504 297.111 846.838C268.53 857.189 238.913 866.256 210.155 876.38C186.158 884.827 161.783 893.25 137.664 901.338C131.9 903.271 124.083 904.611 118.673 901.462C116.074 900.157 112.575 895.321 112.387 892.409C111.505 878.752 111.81 864.242 111.779 850.534L111.825 736.975L112.017 482.611C112.038 441.54 112.005 400.466 112.116 359.397C112.146 348.389 112.936 339.97 125.613 337.474Z"/></g></svg>