<?xml version="1.0" encoding="utf-8" ?><svg xmlns="http://www.w3.org/2000/svg" xmlns:xlink="http://www.w3.org/1999/xlink" width="802" height="1028" viewBox="0 0 802 1028"><clipPath id="cl_24"><rect x="0.0001373291" y="7.6293945e-05" width="801.55878" height="1028.4885"/></clipPath><g clip-path="url(#cl_24)"><defs><linearGradient id="gradient_0" gradientUnits="userSpaceOnUse" x1="432.3324" y1="230.31422" x2="416.96252" y2="1117.2074"><stop offset="0" stop-color="#FC551A"/><stop offset="1" stop-color="#DE166E"/></linearGradient></defs><path fill="url(#gradient_0)" transform="matrix(0.973947 0 0 0.973947 -221.086 -95.4468)" d="M284.817 224.257C284.527 202.972 282.44 182.499 292.89 163.036C307.428 135.96 330.702 126.569 360.276 126.307L446.009 126.211C464.815 126.18 498.883 124.766 516.057 129.131C527.129 132.061 537.245 137.831 545.405 145.869C568.131 167.966 567.349 196.861 566.261 226.179C567.207 256.168 566.37 290.434 566.361 320.875L566.287 504.542L566.26 1039.94C566.204 1076.81 548.54 1108.63 510.505 1115.83C491.962 1119.34 465.702 1117.2 446.195 1117.49C417.938 1117.91 389.571 1117.34 361.302 1117.6C340.173 1117.78 319 1112.13 303.933 1096.52C293.435 1085.62 286.89 1071.52 285.345 1056.47C284.298 1047.07 284.692 1030.91 284.694 1020.97L284.726 961.085L284.718 765.45L284.751 408.495L284.7 289.496C284.693 268.096 284.356 245.558 284.817 224.257Z"/><path fill="#FD640F" transform="matrix(0.973947 0 0 0.973947 -221.086 -95.4468)" d="M284.817 224.257C284.527 202.972 282.44 182.499 292.89 163.036C307.428 135.96 330.702 126.569 360.276 126.307L446.009 126.211C464.815 126.18 498.883 124.766 516.057 129.131C527.129 132.061 537.245 137.831 545.405 145.869C568.131 167.966 567.349 196.861 566.261 226.179C564.796 230.813 566.079 244.574 564.604 251.37L564.02 251.594C563.498 249.045 563.824 248.07 562.27 246.819L560.828 248.872C556.065 250.523 557.066 250.792 553.187 253.073C550.847 253.095 537.882 243.225 533.843 242.799C530.698 242.11 523.832 247.753 520.683 246.829C511.883 244.25 514.31 243.168 505.646 248.176L505.179 246.531L504.328 246.169C500.453 251.67 497.239 242.874 494.678 245.327C491.566 248.308 468.043 248.081 466.388 246.649C451.678 233.922 452.315 245.354 442.098 245.729C439.893 244.987 436.394 242.941 435.046 241.044L436.749 238.885L436.267 237.905L434.756 237.789C425.498 237.085 426.792 236.287 420.004 242.546C416.683 245.264 413.383 242.522 410.024 241.961C405.755 241.248 404.771 247.487 400.655 246.795C400.298 245.769 400.055 245.198 399.595 244.212C391.512 243.187 389.483 244.683 382.288 244.666C371.921 244.641 361.978 245.287 351.7 245.394C347.581 244.131 344.623 246.314 341.922 246.754C335.687 247.77 332.082 235.049 324.061 236.402C316.335 243.505 309.703 239.636 299.962 243.214C298.461 243.765 297.936 241.215 296.207 241.021C295.201 242.714 295.191 243.103 293.731 244.363C289.163 240.942 287.435 229.533 284.817 224.257Z"/><defs><linearGradient id="gradient_1" gradientUnits="userSpaceOnUse" x1="838.18445" y1="237.59491" x2="816.42267" y2="1117.2605"><stop offset="0" stop-color="#FC541B"/><stop offset="1" stop-color="#DE166E"/></linearGradient></defs><path fill="url(#gradient_1)" transform="matrix(0.973947 0 0 0.973947 -221.086 -95.4468)" d="M687.719 215.17C687.047 189.231 688.192 167.051 707.017 147.096C719.54 133.754 738.805 126.314 756.999 126.222C795.507 126.027 834.319 126.344 872.8 126.182C901.741 126.06 924.848 123.728 947.767 145.3C971.821 167.942 969.754 195.955 969.178 226.178C969.04 232.197 969.11 238.499 969.076 244.557L969.341 986.879L969.234 1024.3C969.304 1053.73 970.431 1075.56 948.142 1097.98C924.476 1121.78 892.193 1117.58 861.937 1117.52L781.348 1117.48C752.709 1117.47 729.03 1118.98 707.24 1097.08C685.843 1075.56 687.674 1050.27 687.694 1022.77L687.741 967.651L687.689 786.777L687.6 416.885C687.592 350.12 686.897 281.788 687.719 215.17Z"/><path fill="#FD640F" transform="matrix(0.973947 0 0 0.973947 -221.086 -95.4468)" d="M687.719 215.17C687.047 189.231 688.192 167.051 707.017 147.096C719.54 133.754 738.805 126.314 756.999 126.222C795.507 126.027 834.319 126.344 872.8 126.182C901.741 126.06 924.848 123.728 947.767 145.3C971.821 167.942 969.754 195.955 969.178 226.178C969.04 232.197 969.11 238.499 969.076 244.557C968.044 248.51 968.353 256.448 968.35 260.843L968.121 261.03C968.451 257.912 967.112 250.947 963.935 250.196C963.343 251.747 963.408 252.038 962.242 253.155C961.002 252.235 961.459 252.434 960.658 250.69L959.672 250.616C959.104 251.536 958.644 252.484 958.198 253.468C954.976 253.977 955.99 252.104 951.56 250.787C951.4 250.822 949.043 251.346 948.798 251.375C937.049 252.673 924.475 249.675 912.704 248.925C910.24 249.859 906.184 245.561 904.697 245.785C894.776 247.277 884.946 249.2 875.143 251.213C872.822 251.689 865.402 248.302 862.481 248.42C858.613 248.575 855.657 250.028 851.879 250.617C846.21 251.339 838.514 248.596 832.735 248.355C826.406 248.146 820.022 249.15 813.701 248.555C811.232 248.322 809.723 246.417 807.418 245.338L806.874 246.623C803.373 247.621 801.232 246.389 798.984 244.114C793.366 243.418 787.883 242.543 782.227 242.837C778.061 245.746 768.848 250.3 763.622 248.808C761.866 248.307 755.715 245.489 754.616 245.336C748.44 244.474 740.442 243.557 734.166 242.919C731.573 242.656 724.597 246.877 722.255 247.095C715.026 247.585 699.552 246.356 693.495 242.496C687.51 238.683 689.293 221.838 687.719 215.17Z"/></g></svg>