<?xml version="1.0" encoding="utf-8" ?><svg xmlns="http://www.w3.org/2000/svg" xmlns:xlink="http://www.w3.org/1999/xlink" width="809" height="852" viewBox="0 0 809 852"><clipPath id="cl_28"><rect x="0.00022888184" y="-0.00010681152" width="809.35034" height="852.2041"/></clipPath><g clip-path="url(#cl_28)"><path fill="#F74440" transform="matrix(0.973947 0 0 0.973947 -198.685 -177.259)" d="M624.732 238.954C641.202 237.981 657.742 249.596 659.013 266.586C660.142 281.686 659.461 298.507 659.401 313.767L658.812 410.123L657.679 729.219L659.89 729.184C701.611 728.756 712.985 761.362 707.257 797.184C705.498 808.178 699.173 818.019 690.267 824.503C679.432 832.391 669.86 832.887 657.128 832.694L656.933 905.907C656.901 917.753 657.25 929.89 656.367 941.671C655.283 956.138 645.196 966.01 631.542 969.333C614.358 971.533 599.455 961.1 596.842 944.165C595.069 932.667 595.982 917.345 595.979 905.579L595.924 832.706C560.946 833.257 544.685 815.376 544.731 780.663C544.776 746.339 561.517 728.87 595.815 729.198L595.85 421.48L595.807 321.409C595.803 304.321 595.476 287.058 596.091 270.003C596.703 253.007 608.449 241.64 624.732 238.954Z"/><defs><linearGradient id="gradient_0" gradientUnits="userSpaceOnUse" x1="284.37201" y1="603.44147" x2="445.46704" y2="604.0368"><stop offset="0" stop-color="#FF7F13"/><stop offset="1" stop-color="#FF6029"/></linearGradient></defs><path fill="url(#gradient_0)" transform="matrix(0.973947 0 0 0.973947 -198.685 -177.259)" d="M361.58 238.906C370.96 238.222 379.507 240.367 386.478 247.07C389.459 249.922 394.726 257.058 395.144 261.27C398.11 291.204 396.114 322.665 396.544 352.799C397.069 389.619 395.813 426.511 396.426 463.277C397.61 463.252 398.793 463.238 399.977 463.233C433.146 463.147 448.893 486.069 447.67 517.128C447.014 533.806 444.607 546.909 430.762 558.111C419.744 567.025 409.431 567.334 396.076 567.123L395.542 812.959L395.438 895.645C395.443 910.07 395.74 924.844 395.27 939.244C394.775 954.43 385.695 965.095 370.953 969.128C368.968 969.475 366.958 969.659 364.944 969.678C357.073 969.731 349.509 966.63 343.941 961.067C334.354 951.42 334.911 941.093 334.901 928.474C334.895 920.033 334.915 911.528 334.908 903.083L334.854 823.307L334.455 567.24C320.229 567.527 308.181 565.861 297.44 555.55C278.547 537.414 278.675 494.154 297.072 475.706C307.876 464.871 319.984 463.111 334.485 462.998C333.897 421.34 334.418 378.259 334.404 336.452L334.397 293.761C334.397 270.363 331.414 244.686 361.58 238.906Z"/><defs><linearGradient id="gradient_1" gradientUnits="userSpaceOnUse" x1="796.56952" y1="589.39429" x2="968.62268" y2="616.99951"><stop offset="0" stop-color="#EE3653"/><stop offset="1" stop-color="#EA2773"/></linearGradient></defs><path fill="url(#gradient_1)" transform="matrix(0.973947 0 0 0.973947 -198.685 -177.259)" d="M885.455 239.013C894.829 238.679 902.308 240.776 909.441 247.223C921.144 257.8 919.091 274.16 919.075 288.478L919.044 324.905L918.735 423.793C918.663 442.998 918.311 463.173 918.786 482.308L921.941 482.295C962.827 482.327 974.767 514.468 968.873 550.565C967.095 561.453 960.185 571.777 951.389 578.237C940.642 586.131 931.174 586.213 918.481 585.975L918.423 824.502L918.381 901.261C918.378 905.023 918.426 908.836 918.37 912.602C918.009 937.139 923.114 962.665 891.653 969.617C875.85 971.261 860.15 959.748 858.7 943.713C857.441 929.794 857.964 915.197 857.953 901.178L857.836 825.096C857.578 746.677 856.274 664.743 857.497 586.452C853.078 586.448 848.817 586.467 844.475 585.926C809.619 581.584 801.56 546.283 807.595 516.699C810.526 502.331 820.36 490.231 834.168 485.133C842.246 482.15 849.017 482.373 857.366 482.499C856.991 466.69 857.309 449.663 857.298 433.749L857.272 339.235L857.29 293.481C857.295 274.202 854.133 252.434 874.52 241.849C878.398 239.836 881.25 239.402 885.455 239.013Z"/></g></svg>