<?xml version="1.0" encoding="utf-8" ?><svg xmlns="http://www.w3.org/2000/svg" xmlns:xlink="http://www.w3.org/1999/xlink" width="540" height="595" viewBox="0 0 540 595"><clipPath id="cl_23"><rect x="0.00036621094" y="6.1035156e-05" width="539.56689" height="595.08191"/></clipPath><g clip-path="url(#cl_23)"><defs><linearGradient id="gradient_0" gradientUnits="userSpaceOnUse" x1="672.30597" y1="550.17621" x2="861.90387" y2="801.60406"><stop offset="0" stop-color="#FE4D32"/><stop offset="1" stop-color="#F60F68"/></linearGradient></defs><path fill="url(#gradient_0)" transform="matrix(0.973947 0 0 0.973947 -332.116 -287.314)" d="M526.107 661.425C522.134 659.155 516.244 654.085 512.825 650.899C485.981 625.889 484.898 584.089 511.051 558.143C518.607 550.647 528.018 544.177 536.613 537.7L581.816 503.717C621.143 473.862 660.765 444.396 700.677 415.326L735.549 389.747C741.974 385.044 751.436 377.788 758.1 373.915C765.657 369.503 774.25 367.175 783.001 367.17C800.016 367.026 815.1 375.662 822.754 391.034C828.413 402.399 827.279 413.886 827.213 426.189L827.026 454.704L826.523 704.714L826.556 778.662C826.577 800.401 830.576 822.683 813.975 839.384C806.061 847.482 795.234 852.076 783.911 852.14C775.663 852.154 765.359 849.458 758.735 844.623C747.121 836.147 735.05 825.983 723.945 816.843C704.022 800.488 683.974 784.284 663.804 768.234C634.21 744.809 604.447 721.598 574.517 698.602C560.928 688.173 538.138 671.983 526.107 661.425Z"/><defs><linearGradient id="gradient_1" gradientUnits="userSpaceOnUse" x1="628.49628" y1="466.06256" x2="688.3576" y2="550.82959"><stop offset="0" stop-color="#FE6725"/><stop offset="1" stop-color="#FD4B34"/></linearGradient></defs><path fill="url(#gradient_1)" transform="matrix(0.973947 0 0 0.973947 -332.116 -287.314)" d="M526.107 661.425C522.134 659.155 516.244 654.085 512.825 650.899C485.981 625.889 484.898 584.089 511.051 558.143C518.607 550.647 528.018 544.177 536.613 537.7L581.816 503.717C621.143 473.862 660.765 444.396 700.677 415.326L735.549 389.747C741.974 385.044 751.436 377.788 758.1 373.915C765.657 369.503 774.25 367.175 783.001 367.17C800.016 367.026 815.1 375.662 822.754 391.034C828.413 402.399 827.279 413.886 827.213 426.189L827.026 454.704C826.499 452.562 824.135 447.868 822.368 446.833C822.179 447.06 821.991 447.288 821.802 447.515C811.463 457.459 796.551 461.938 784.651 469.258C781.246 471.352 773.849 478.092 771.305 481.002C766.786 486.171 765.634 491.076 758.643 494.585C755.154 496.336 752.798 496.409 749.374 497.631C748.397 498.92 745.62 502.638 744.515 503.518C737.405 509.173 732.691 509.758 730.298 519.44C728.603 519.966 721.219 522.122 720.748 522.791C715.855 529.742 710.314 531.701 703.112 535.29C701.777 535.955 698.892 539.987 697.485 541.01C686.725 547.272 677.71 555.029 666.237 560.008C662.288 568.015 659.013 567.623 651.274 571.314C647.443 572.655 636.846 584.27 634.236 585.23C622.333 589.61 614.04 599.962 603.625 605.806C592.804 611.878 587.075 615.143 579.32 625.692C577.818 627.735 573.015 627.432 570.925 628.992C564.83 633.125 558.984 636.727 553.738 641.944L553.095 640.881C546.835 645.902 546.331 650.597 539.021 652.365C539.046 653.845 539.134 653.849 539.663 655.259C535.176 659.317 533.16 661.091 526.658 660.587L526.107 661.425Z"/><defs><linearGradient id="gradient_2" gradientUnits="userSpaceOnUse" x1="323.01004" y1="502.95947" x2="545.70642" y2="751.29938"><stop offset="0" stop-color="#FF8117"/><stop offset="1" stop-color="#FD3542"/></linearGradient></defs><path fill="url(#gradient_2)" transform="matrix(0.973947 0 0 0.973947 -332.116 -287.314)" d="M377.951 468.028C377.713 464.262 377.587 457.058 377.834 453.375C378.932 437.005 375.135 410.764 380.253 395.86C383.869 385.232 391.578 376.487 401.669 371.568C412.246 366.467 424.432 365.841 435.476 369.831C448.151 374.489 455.37 382.82 460.883 394.808C464.605 406.667 463.477 420.615 463.478 433.059L463.449 487.956L463.387 633.02L463.396 751.318C463.411 771.634 463.51 792.188 463.312 812.515C463.278 815.988 460.478 824.47 458.821 827.754C453.633 838.06 444.488 845.822 433.476 849.266C422.373 852.689 410.355 851.453 400.182 845.841C390.206 840.346 382.866 831.061 379.82 820.086C376.955 810.076 377.88 785.474 377.875 773.75L377.936 706.91L377.835 549.562C377.844 522.574 377.557 494.974 377.951 468.028Z"/><path fill="#FE8517" transform="matrix(0.973947 0 0 0.973947 -332.116 -287.314)" d="M377.951 468.028C377.713 464.262 377.587 457.058 377.834 453.375C378.932 437.005 375.135 410.764 380.253 395.86C383.869 385.232 391.578 376.487 401.669 371.568C412.246 366.467 424.432 365.841 435.476 369.831C448.151 374.489 455.37 382.82 460.883 394.808C458.018 405.092 445.692 397.167 438.43 400.677C431.196 404.173 426.964 414.157 421.568 419.907C418.2 423.567 408.788 429.328 407.353 433.327C404.941 440.05 396.821 447.506 391.715 454.192L388.934 453.822C387.555 455.037 385.727 460.441 385.233 462.307C382.723 462.644 381.185 458.69 380.369 456.842L379.889 457.051C378.735 460.584 378.81 469.528 378.9 473.344C378.628 471.419 378.507 469.892 377.951 468.028Z"/></g></svg>