<?xml version="1.0" encoding="UTF-8"?>
<svg xmlns="http://www.w3.org/2000/svg" xmlns:xlink="http://www.w3.org/1999/xlink" width="32px" height="32px" viewBox="0 0 32 23" version="1.1">
<defs>
<linearGradient id="linear0" gradientUnits="userSpaceOnUse" x1="387.161835" y1="408.463196" x2="189.568649" y2="-25.950987" gradientTransform="matrix(0.0628684,0,0,0.0626703,0,0)">
<stop offset="0" style="stop-color:rgb(96.078431%,36.862745%,9.803922%);stop-opacity:1;"/>
<stop offset="1" style="stop-color:rgb(96.862745%,51.764706%,7.058824%);stop-opacity:1;"/>
</linearGradient>
</defs>
<g id="surface1">
<path style=" stroke:none;fill-rule:nonzero;fill:rgb(99.607843%,47.843137%,11.764706%);fill-opacity:1;" d="M 32 22.191406 C 31.835938 22.199219 31.589844 22.1875 31.417969 22.1875 C 31.042969 22.1875 30.664062 22.1875 30.289062 22.191406 C 28.605469 22.199219 26.921875 22.199219 25.238281 22.191406 L 13.359375 22.195312 C 12.199219 22.199219 11.035156 22.199219 9.875 22.191406 L 8.484375 22.195312 C 8.199219 22.199219 7.894531 22.207031 7.609375 22.191406 C 6.105469 22.105469 4.734375 21.671875 3.636719 20.609375 C 2.835938 19.835938 2.320312 18.996094 2.046875 17.921875 C 1.828125 17.058594 1.859375 16.339844 1.863281 15.464844 L 1.867188 13.753906 L 1.859375 8.789062 L 1.863281 7.273438 C 1.863281 6.78125 1.855469 6.257812 1.917969 5.773438 C 2.09375 4.535156 2.667969 3.386719 3.554688 2.5 C 4.371094 1.683594 5.5625 1.140625 6.691406 0.957031 C 7.335938 0.851562 7.6875 0.863281 8.332031 0.863281 L 32 0.863281 Z M 32 22.191406 "/>
<path style=" stroke:none;fill-rule:nonzero;fill:rgb(99.215686%,61.56863%,34.117648%);fill-opacity:1;" d="M 32 22.191406 C 31.835938 22.199219 31.589844 22.1875 31.417969 22.1875 C 31.042969 22.1875 30.664062 22.1875 30.289062 22.191406 C 28.605469 22.199219 26.921875 22.199219 25.238281 22.191406 L 13.359375 22.195312 C 12.199219 22.199219 11.035156 22.199219 9.875 22.191406 L 8.484375 22.195312 C 8.199219 22.199219 7.894531 22.207031 7.609375 22.191406 C 6.105469 22.105469 4.734375 21.671875 3.636719 20.609375 C 2.835938 19.835938 2.320312 18.996094 2.046875 17.921875 C 1.828125 17.058594 1.859375 16.339844 1.863281 15.464844 L 1.867188 13.753906 L 1.859375 8.789062 L 1.863281 7.273438 C 1.863281 6.78125 1.855469 6.257812 1.917969 5.773438 C 2.09375 4.535156 2.667969 3.386719 3.554688 2.5 C 4.371094 1.683594 5.5625 1.140625 6.691406 0.957031 C 7.335938 0.851562 7.6875 0.863281 8.332031 0.863281 L 32 0.863281 L 32 1.566406 C 31.824219 1.457031 30.917969 1.449219 30.671875 1.445312 C 29.828125 1.4375 28.984375 1.441406 28.140625 1.445312 C 27.753906 1.453125 27.355469 1.472656 26.96875 1.472656 L 15.058594 1.484375 C 14.582031 1.480469 14.105469 1.464844 13.628906 1.460938 C 12.09375 1.441406 10.558594 1.4375 9.023438 1.457031 C 8.285156 1.464844 7.589844 1.390625 6.84375 1.53125 C 4.660156 1.945312 2.96875 3.632812 2.542969 5.808594 C 2.445312 6.320312 2.460938 6.957031 2.460938 7.484375 L 2.464844 9.742188 L 2.460938 13.535156 C 2.453125 14.28125 2.453125 15.027344 2.464844 15.769531 C 2.46875 16.460938 2.453125 17.039062 2.625 17.714844 C 2.707031 18.042969 2.878906 18.40625 3.027344 18.714844 C 3.324219 19.210938 3.761719 19.800781 4.167969 20.207031 C 4.316406 20.355469 4.769531 20.671875 4.945312 20.78125 C 5.628906 21.207031 6.402344 21.472656 7.203125 21.546875 C 8.023438 21.628906 8.535156 21.59375 9.335938 21.597656 L 12.917969 21.59375 L 23.035156 21.59375 L 28.558594 21.601562 C 29.566406 21.609375 30.605469 21.632812 31.617188 21.558594 C 31.734375 21.550781 31.890625 21.382812 32 21.359375 Z M 32 22.191406 "/>
<path style=" stroke:none;fill-rule:nonzero;fill:url(#linear0);" d="M 32 22.191406 C 31.835938 22.199219 31.589844 22.1875 31.417969 22.1875 C 31.042969 22.1875 30.664062 22.1875 30.289062 22.191406 C 28.605469 22.199219 26.921875 22.199219 25.238281 22.191406 L 13.359375 22.195312 C 12.199219 22.199219 11.035156 22.199219 9.875 22.191406 L 8.484375 22.195312 C 8.199219 22.199219 7.894531 22.207031 7.609375 22.191406 C 6.105469 22.105469 4.734375 21.671875 3.636719 20.609375 C 2.835938 19.835938 2.320312 18.996094 2.046875 17.921875 C 1.828125 17.058594 1.859375 16.339844 1.863281 15.464844 L 1.867188 13.753906 L 1.859375 8.789062 L 1.863281 7.273438 C 1.863281 6.78125 1.855469 6.257812 1.917969 5.773438 C 2.09375 4.535156 2.667969 3.386719 3.554688 2.5 C 4.371094 1.683594 5.5625 1.140625 6.691406 0.957031 C 7.335938 0.851562 7.6875 0.863281 8.332031 0.863281 L 32 0.863281 L 32 1.097656 L 9.777344 1.097656 L 8.476562 1.101562 C 7.898438 1.101562 7.398438 1.097656 6.824219 1.199219 C 5.640625 1.40625 4.515625 1.902344 3.664062 2.761719 C 2.980469 3.449219 2.492188 4.367188 2.277344 5.308594 C 2.085938 6.15625 2.125 7.074219 2.125 7.941406 L 2.125 10.125 L 2.121094 16.25 C 2.144531 19.617188 4.511719 21.917969 7.875 21.925781 C 8.429688 21.929688 8.984375 21.921875 9.539062 21.921875 L 13.105469 21.921875 L 27.644531 21.929688 L 32 21.917969 Z M 32 22.191406 "/>
<path style=" stroke:none;fill-rule:nonzero;fill:rgb(98.431373%,98.039216%,98.039216%);fill-opacity:1;" d="M 20.421875 6.242188 C 20.859375 6.238281 21.300781 6.238281 21.738281 6.242188 C 22.296875 6.246094 22.929688 6.132812 22.945312 6.925781 C 22.957031 7.429688 22.9375 7.941406 22.949219 8.441406 C 22.957031 8.957031 22.921875 9.378906 22.289062 9.390625 L 22.273438 9.390625 C 21.898438 9.398438 21.515625 9.390625 21.140625 9.390625 C 20.847656 9.390625 20.507812 9.417969 20.222656 9.375 C 20.113281 9.359375 20.007812 9.285156 19.929688 9.210938 C 19.75 9.046875 19.761719 8.851562 19.761719 8.625 L 19.757812 7.425781 C 19.757812 6.878906 19.660156 6.25 20.421875 6.242188 Z M 20.421875 6.242188 "/>
<path style=" stroke:none;fill-rule:nonzero;fill:rgb(98.431373%,98.039216%,98.039216%);fill-opacity:1;" d="M 18.015625 6.242188 C 18.328125 6.238281 18.6875 6.183594 18.9375 6.417969 C 19.066406 6.542969 19.109375 6.699219 19.113281 6.875 C 19.121094 7.289062 19.113281 7.703125 19.113281 8.117188 C 19.113281 8.386719 19.144531 8.710938 19.085938 8.972656 C 19.070312 9.054688 19.023438 9.128906 18.964844 9.1875 C 18.890625 9.261719 18.792969 9.328125 18.695312 9.355469 C 18.460938 9.417969 17.347656 9.390625 17.042969 9.394531 C 16.734375 9.398438 16.34375 9.460938 16.101562 9.230469 C 15.957031 9.089844 15.933594 8.960938 15.925781 8.765625 C 15.914062 8.316406 15.925781 7.863281 15.925781 7.410156 C 15.929688 7.1875 15.898438 6.914062 15.941406 6.695312 C 15.960938 6.59375 16.019531 6.492188 16.089844 6.421875 C 16.15625 6.355469 16.238281 6.296875 16.328125 6.269531 C 16.558594 6.210938 17.703125 6.246094 18.015625 6.242188 Z M 18.015625 6.242188 "/>
<path style=" stroke:none;fill-rule:nonzero;fill:rgb(98.431373%,98.039216%,98.039216%);fill-opacity:1;" d="M 12.570312 13.683594 C 13.023438 13.679688 13.476562 13.679688 13.929688 13.679688 C 14.183594 13.679688 14.433594 13.683594 14.691406 13.6875 C 14.886719 13.6875 15.226562 13.882812 15.238281 14.089844 C 15.277344 14.835938 15.257812 15.597656 15.246094 16.34375 C 15.242188 16.582031 14.96875 16.773438 14.761719 16.824219 C 14.050781 16.84375 13.292969 16.828125 12.582031 16.820312 C 12.386719 16.800781 12.105469 16.574219 12.09375 16.375 C 12.054688 15.636719 12.066406 14.886719 12.085938 14.152344 C 12.089844 13.921875 12.363281 13.726562 12.570312 13.683594 Z M 12.570312 13.683594 "/>
<path style=" stroke:none;fill-rule:nonzero;fill:rgb(98.431373%,98.039216%,98.039216%);fill-opacity:1;" d="M 17.550781 13.6875 C 17.90625 13.679688 18.304688 13.660156 18.652344 13.695312 C 18.929688 13.726562 19.109375 14.007812 19.113281 14.269531 C 19.117188 14.808594 19.105469 15.339844 19.113281 15.878906 C 19.152344 16.234375 19.101562 16.726562 18.65625 16.804688 C 18.367188 16.855469 17.8125 16.828125 17.496094 16.828125 C 17.15625 16.828125 16.714844 16.851562 16.382812 16.808594 C 16.304688 16.796875 16.164062 16.722656 16.109375 16.667969 C 15.953125 16.515625 15.929688 16.371094 15.929688 16.15625 C 15.925781 15.613281 15.921875 15.066406 15.925781 14.523438 C 15.9375 14.265625 15.878906 14.070312 16.078125 13.875 C 16.308594 13.644531 16.542969 13.6875 16.84375 13.6875 C 17.078125 13.6875 17.316406 13.6875 17.550781 13.6875 Z M 17.550781 13.6875 "/>
<path style=" stroke:none;fill-rule:nonzero;fill:rgb(98.431373%,98.039216%,98.039216%);fill-opacity:1;" d="M 20.496094 13.6875 L 21.734375 13.679688 C 21.964844 13.679688 22.304688 13.65625 22.519531 13.707031 C 22.851562 13.78125 22.957031 14.078125 22.949219 14.375 C 22.933594 15.03125 22.980469 15.683594 22.929688 16.335938 C 22.917969 16.441406 22.847656 16.566406 22.773438 16.640625 C 22.601562 16.808594 22.4375 16.832031 22.210938 16.828125 L 20.933594 16.828125 C 20.71875 16.828125 20.460938 16.835938 20.246094 16.808594 C 20.136719 16.792969 20.015625 16.734375 19.9375 16.652344 C 19.777344 16.484375 19.761719 16.339844 19.761719 16.121094 C 19.757812 15.695312 19.757812 15.277344 19.761719 14.855469 C 19.785156 14.628906 19.726562 14.304688 19.785156 14.089844 C 19.882812 13.742188 20.214844 13.6875 20.496094 13.6875 Z M 20.496094 13.6875 "/>
<path style=" stroke:none;fill-rule:nonzero;fill:rgb(98.431373%,98.039216%,98.039216%);fill-opacity:1;" d="M 12.550781 6.253906 C 12.625 6.25 12.714844 6.246094 12.789062 6.246094 C 13.433594 6.25 14.101562 6.234375 14.742188 6.257812 C 14.964844 6.273438 15.195312 6.472656 15.238281 6.691406 C 15.25 6.78125 15.257812 6.882812 15.257812 6.976562 C 15.25 7.625 15.269531 8.28125 15.246094 8.933594 C 15.242188 9.148438 14.972656 9.339844 14.777344 9.382812 C 14.398438 9.394531 14.019531 9.386719 13.644531 9.390625 C 13.316406 9.394531 12.984375 9.414062 12.660156 9.398438 C 12.589844 9.394531 12.519531 9.386719 12.457031 9.359375 C 12.304688 9.296875 12.160156 9.148438 12.105469 8.996094 C 12.042969 8.824219 12.0625 7.070312 12.082031 6.800781 C 12.085938 6.730469 12.097656 6.667969 12.125 6.605469 C 12.210938 6.421875 12.363281 6.320312 12.550781 6.253906 Z M 12.550781 6.253906 "/>
<path style=" stroke:none;fill-rule:nonzero;fill:rgb(98.431373%,98.039216%,98.039216%);fill-opacity:1;" d="M 20.234375 9.984375 C 20.558594 9.957031 20.902344 9.976562 21.226562 9.976562 C 21.597656 9.976562 21.980469 9.960938 22.351562 9.980469 C 22.429688 9.984375 22.523438 9.992188 22.59375 10.023438 C 22.722656 10.078125 22.859375 10.222656 22.90625 10.351562 C 22.96875 10.519531 22.964844 12.273438 22.945312 12.527344 C 22.9375 12.617188 22.925781 12.695312 22.882812 12.777344 C 22.800781 12.953125 22.648438 13.042969 22.46875 13.105469 C 22.1875 13.144531 21.769531 13.113281 21.476562 13.113281 C 21.089844 13.113281 20.6875 13.140625 20.300781 13.113281 C 20.242188 13.109375 20.1875 13.09375 20.132812 13.070312 C 19.980469 13.003906 19.859375 12.902344 19.800781 12.742188 C 19.738281 12.574219 19.75 10.789062 19.769531 10.515625 C 19.773438 10.453125 19.777344 10.390625 19.804688 10.332031 C 19.894531 10.148438 20.042969 10.050781 20.234375 9.984375 Z M 20.234375 9.984375 "/>
<path style=" stroke:none;fill-rule:nonzero;fill:rgb(98.431373%,98.039216%,98.039216%);fill-opacity:1;" d="M 16.394531 9.984375 C 16.714844 9.960938 17.144531 9.960938 17.488281 9.976562 C 17.902344 9.992188 18.582031 9.878906 18.910156 10.132812 C 18.957031 10.167969 19.066406 10.300781 19.074219 10.359375 C 19.152344 11.054688 19.097656 11.785156 19.105469 12.488281 C 19.109375 12.808594 18.910156 13 18.625 13.097656 C 18.308594 13.132812 17.96875 13.109375 17.648438 13.109375 C 17.28125 13.113281 16.898438 13.132812 16.535156 13.109375 C 16.441406 13.101562 16.34375 13.085938 16.253906 13.046875 C 16.125 12.992188 16.019531 12.878906 15.96875 12.746094 C 15.949219 12.695312 15.9375 12.644531 15.933594 12.589844 C 15.910156 12.316406 15.898438 10.476562 15.96875 10.320312 C 16.042969 10.152344 16.230469 10.042969 16.394531 9.984375 Z M 16.394531 9.984375 "/>
<path style=" stroke:none;fill-rule:nonzero;fill:rgb(98.431373%,98.039216%,98.039216%);fill-opacity:1;" d="M 12.550781 9.988281 C 13.074219 9.953125 13.648438 9.992188 14.148438 9.976562 C 14.765625 9.960938 15.265625 9.9375 15.253906 10.6875 C 15.246094 11.304688 15.273438 11.945312 15.25 12.5625 C 15.238281 12.851562 15.042969 13.019531 14.78125 13.097656 C 14.308594 13.109375 13.835938 13.113281 13.367188 13.113281 C 13.085938 13.117188 12.59375 13.148438 12.355469 13.035156 C 12.238281 12.976562 12.148438 12.871094 12.109375 12.746094 C 12.039062 12.523438 12.082031 10.851562 12.082031 10.507812 C 12.082031 10.453125 12.105469 10.367188 12.132812 10.316406 C 12.222656 10.152344 12.375 10.042969 12.550781 9.988281 Z M 12.550781 9.988281 "/>
</g>
</svg>
