<?xml version="1.0" encoding="utf-8" ?><svg xmlns="http://www.w3.org/2000/svg" xmlns:xlink="http://www.w3.org/1999/xlink" width="713" height="624" viewBox="0 0 713 624"><clipPath id="cl_27"><rect x="0.00061035156" y="9.1552734e-05" width="712.92957" height="624.30029"/></clipPath><g clip-path="url(#cl_27)"><defs><linearGradient id="gradient_0" gradientUnits="userSpaceOnUse" x1="358.16632" y1="551.90668" x2="648.50366" y2="854.24072"><stop offset="0" stop-color="#FF6F25"/><stop offset="1" stop-color="#FA2459"/></linearGradient></defs><path fill="url(#gradient_0)" transform="matrix(0.973947 0 0 0.973947 -264.913 -272.705)" d="M460.443 490.699L595.322 631.019C615.708 652.17 639.439 675.311 658.851 696.627L658.761 791.447C658.771 801.041 659.347 831.854 657.841 839.756C656.566 846.114 653.438 851.952 648.849 856.534C642.328 863.09 635.001 865.814 625.797 865.904C611.274 866.047 601.888 855.643 591.442 846.444L497.408 763.881C486.679 754.474 475.758 744.855 465.099 735.387C453.298 724.905 447.295 725.337 432.433 725.415L400.113 725.623C380.328 725.728 364.284 727.037 349.421 711.143C343.403 704.693 339.286 696.703 337.526 688.059C335.572 678.604 336.542 655.436 336.721 644.437C337.001 627.3 335.863 607.357 336.882 590.482C336.509 577.669 336.915 564.476 336.627 551.561C335.896 536.618 340.53 523.117 351.119 512.437C367.388 496.027 393.205 499.575 414.577 499.654C429.766 499.79 447.917 503.149 459.169 491.994C459.598 491.566 460.023 491.135 460.443 490.699Z"/><path fill="#FE751E" transform="matrix(0.973947 0 0 0.973947 -264.913 -272.705)" d="M336.882 590.482C336.509 577.669 336.915 564.476 336.627 551.561C335.896 536.618 340.53 523.117 351.119 512.437C367.388 496.027 393.205 499.575 414.577 499.654C414.77 501.974 415.006 504.29 415.286 506.601C403.272 520.213 387.923 529.151 374.535 541.257C372.149 543.414 368.624 545.122 366.256 547.427C359.324 553.907 351.641 569.001 342.764 571.856C341.555 572.245 340.045 570.745 338.042 572.351C336.543 577.751 338.715 584.083 336.882 590.482Z"/><path fill="#F9325F" transform="matrix(0.973947 0 0 0.973947 -264.913 -272.705)" d="M597.856 608.453C596.078 606.749 594.178 605.331 593.43 603.04C593.861 601.849 593.786 601.379 595.166 600.84C599.32 599.219 604.095 598.975 608.472 598.19C608.971 598.1 610.041 594.801 610.134 594.518C612.088 592.835 612.748 592.754 615.24 591.836C619.052 585.823 620.41 577.018 626.163 574.252C631.059 574.707 667.976 619.518 673.358 620.023C689.059 634.577 707.931 655.272 723.289 671.037L816.556 767.475L869.889 824.011C878.667 833.414 887.764 842.782 895.959 852.672C903.108 861.299 902.68 874.908 894.921 883.061C890.432 887.728 884.253 890.391 877.778 890.45C872.575 890.479 867.425 889.323 863.579 885.776C849.957 873.211 837.477 858.402 824.745 844.784C804.962 823.842 785.016 803.056 764.907 782.428L676.825 691.429L649.49 663.203C644.925 658.498 638.478 652.235 634.471 647.437C632.787 646.308 624.495 637.584 622.732 635.757L597.399 609.427L597.856 608.453Z"/><path fill="#FB394A" transform="matrix(0.973947 0 0 0.973947 -264.913 -272.705)" d="M597.856 608.453C602.617 613.614 604.17 616.957 611.492 615.895L612.793 616.698C612.938 618.826 612.773 619.979 610.775 621.228C618.757 630.134 626.66 637.997 635.089 646.481L634.471 647.437C632.787 646.308 624.495 637.584 622.732 635.757L597.399 609.427L597.856 608.453Z"/><path fill="#FB394A" transform="matrix(0.973947 0 0 0.973947 -264.913 -272.705)" d="M800.806 391.998C818.072 390.358 830.711 405.76 841.741 417.053C878.318 454.976 902.816 502.905 912.128 554.764C923.621 615.378 915.681 678.073 889.438 733.907C885.762 741.683 882.022 749.077 877.708 756.51C872.088 766.196 868.285 771.777 856.762 773.856C845.846 774.566 840.376 769.536 834.234 761.362C824.017 747.903 836.456 735.594 842.887 723.781C886.245 644.14 880.339 537.964 823.308 465.89C816.914 457.741 809.884 450.112 802.284 443.073C797.5 438.672 790.928 434.062 786.925 429.165C775.15 414.761 782.983 396.233 800.806 391.998Z"/><defs><linearGradient id="gradient_1" gradientUnits="userSpaceOnUse" x1="572.95673" y1="385.33212" x2="708.32733" y2="529.9845"><stop offset="0" stop-color="#FF6D25"/><stop offset="1" stop-color="#FF3F44"/></linearGradient></defs><path fill="url(#gradient_1)" transform="matrix(0.973947 0 0 0.973947 -264.913 -272.705)" d="M625.033 348.048C625.356 348.04 625.678 348.032 626.001 348.024C634.637 347.964 642.95 351.309 649.138 357.334C661.006 369.103 658.785 385.973 658.792 401.39L658.777 442.026L658.856 580.444C651.889 574.233 644.195 565.936 637.617 559.117L606.094 526.41L518.08 435.714C523.695 429.832 532.159 422.449 538.287 416.793L575.197 382.899C583.2 375.616 591.311 368.281 599.291 360.986C607.98 353.042 613.015 349.268 625.033 348.048Z"/><defs><linearGradient id="gradient_2" gradientUnits="userSpaceOnUse" x1="384.73495" y1="315.38495" x2="592.83466" y2="608.98383"><stop offset="0" stop-color="#FF8A0F"/><stop offset="1" stop-color="#FF463F"/></linearGradient></defs><path fill="url(#gradient_2)" transform="matrix(0.973947 0 0 0.973947 -264.913 -272.705)" d="M597.399 609.427C541.842 553.854 486.344 494.905 431.733 438.191C415.517 421.393 399.209 404.684 382.81 388.064C374.941 380.009 364.459 370.17 357.566 361.417C346.217 347.006 360.264 322.575 378.859 324.885C388.125 325.722 391.815 329.6 397.965 335.726C415.559 353.516 433.012 371.444 450.322 389.51C492.747 432.743 534.877 476.264 576.71 520.071L643.401 589.019C651.922 597.85 665.777 611.11 673.358 620.023C667.976 619.518 631.059 574.707 626.163 574.252C620.41 577.018 619.052 585.823 615.24 591.836C612.748 592.754 612.088 592.835 610.134 594.518C610.041 594.801 608.971 598.1 608.472 598.19C604.095 598.975 599.32 599.219 595.166 600.84C593.786 601.379 593.861 601.849 593.43 603.04C594.178 605.331 596.078 606.749 597.856 608.453L597.399 609.427Z"/><path fill="#FB394A" transform="matrix(0.973947 0 0 0.973947 -264.913 -272.705)" d="M737.2 479.007C742.389 479.275 747.939 480.213 752.149 483.531C804.623 524.896 823.095 596.566 804.146 659.665C798.857 677.28 791.534 691.372 781.609 706.966L777.669 703.116C769.288 693.483 757.52 681.528 748.485 672.378C774.259 630.48 771.569 577.036 741.717 537.938C732.691 526.157 716.729 517.131 715.051 504.857C714.28 498.996 715.878 493.069 719.489 488.388C724.34 482.047 729.715 479.923 737.2 479.007Z"/></g></svg>