<?xml version="1.0" encoding="utf-8" ?><svg xmlns="http://www.w3.org/2000/svg" xmlns:xlink="http://www.w3.org/1999/xlink" width="647" height="553" viewBox="0 0 647 553"><clipPath id="cl_2c"><rect x="0.00036621094" y="-9.1552734e-05" width="646.70111" height="553.20215"/></clipPath><g clip-path="url(#cl_2c)"><defs><linearGradient id="gradient_0" gradientUnits="userSpaceOnUse" x1="432.15689" y1="405.63535" x2="650.20367" y2="615.33044"><stop offset="0" stop-color="#FF7E28"/><stop offset="1" stop-color="#F73745"/></linearGradient></defs><path fill="url(#gradient_0)" transform="matrix(0.973947 0 0 0.973947 -301.923 -329.194)" d="M743.884 355.205C750.997 354.967 755.969 355.933 761.543 361.042C768.685 367.59 775.868 375.573 782.756 382.489L804.199 403.868C808.799 408.453 813.291 412.686 817.432 417.83C823.583 425.101 823.261 437.849 816.616 444.758C802.589 459.345 787.967 473.658 773.754 488.106C769.275 492.659 763.547 498.88 758.378 502.574C755.377 504.675 751.832 505.862 748.171 505.992C742.76 506.267 737.465 504.36 733.472 500.698C729.539 497.098 727.293 492.014 727.281 486.682C727.12 473.083 742.586 462.198 752.071 452.409L749.296 452.392L557.576 452.417L503.033 452.368C470.449 452.352 446.981 450.895 421.569 476.252C395.333 502.432 397.395 528.745 397.401 562.933L397.439 613.376L397.472 664.805C397.48 675.061 399.404 690.89 392.928 698.949C389.295 703.504 383.915 706.321 378.102 706.714C372.492 707.057 367.051 704.666 363.032 700.809C356.617 694.654 356.987 687.072 356.955 678.896L357.005 582.742C357.007 566.272 357.061 549.795 357 533.326C356.881 501.35 370.819 467.325 393.542 444.631C409.96 428.15 430.7 416.642 453.373 411.432C470.256 407.673 488.846 408.427 506.217 408.437L559.014 408.452L751.571 408.414C740.162 396.681 720.05 383.291 729.886 365.159C733.196 359.057 737.592 357 743.884 355.205Z"/><defs><linearGradient id="gradient_1" gradientUnits="userSpaceOnUse" x1="603.2276" y1="606.38916" x2="825.69366" y2="811.82465"><stop offset="0" stop-color="#F7463A"/><stop offset="1" stop-color="#EC1D66"/></linearGradient></defs><path fill="url(#gradient_1)" transform="matrix(0.973947 0 0 0.973947 -301.923 -329.194)" d="M875.456 509.651C897.713 511.02 895.857 529.904 895.866 546.05L895.89 578.71L895.829 688.644C895.502 722.329 881.648 756.127 857.477 779.689C840.412 796.203 819.094 807.649 795.903 812.75C780.596 816.038 763.077 815.424 747.35 815.383L698.706 815.315C634.622 815.48 568.847 815.979 504.878 815.118C513.418 822.853 529.152 835.868 530.002 847.2C530.459 852.907 528.497 858.543 524.596 862.733C521.019 866.624 515.979 868.844 510.694 868.857C498.649 868.814 487.768 854.356 479.874 846.05C471.161 836.864 462.368 827.755 453.494 818.725C446.962 812.226 437.376 804.383 437.172 795.06C437.018 787.976 438.982 783.117 443.739 778.069C453.156 768.073 462.448 758.278 472.049 748.406C480.729 740.415 490.454 727.632 499.881 720.901C513.344 712.616 530.2 723 530.097 738.15C530.008 751.196 513.812 763.281 504.731 772.12L693.949 772.067L748.183 772.156C779.093 772.205 798.521 774.293 824.07 753.228C861.769 722.143 855.129 680.594 855.113 636.93L855.058 553.29C855.054 534.727 850.74 512.514 875.456 509.651Z"/></g></svg>