<?xml version="1.0" encoding="utf-8" ?><svg xmlns="http://www.w3.org/2000/svg" xmlns:xlink="http://www.w3.org/1999/xlink" width="597" height="584" viewBox="0 0 597 584"><clipPath id="cl_3"><rect x="-0.00018310547" width="596.87372" height="583.99994"/></clipPath><g clip-path="url(#cl_3)"><defs><linearGradient id="gradient_0" gradientUnits="userSpaceOnUse" x1="570.62061" y1="611.55249" x2="829.20337" y2="853.50336"><stop offset="0" stop-color="#FF3D1F"/><stop offset="1" stop-color="#EE0050"/></linearGradient></defs><path fill="url(#gradient_0)" transform="matrix(1.17034 0 0 1.17034 -430.686 -455.263)" d="M493.774 489.967L584.698 425.33C598.615 415.456 613.434 404.154 627.749 395.693C639.083 388.995 659.508 393.578 667.588 403.308C671.033 407.029 675.614 414.334 676.282 419.527C678.13 433.884 677.48 450.526 677.419 465.011C677.32 488.522 677.857 512.123 677.286 535.568C678.463 563.647 676.677 594.877 677.385 623.207C677.651 633.866 677.018 645.043 677.717 655.711C707.464 637.54 741.677 630.941 775.844 639.056C809.094 646.975 837.804 667.846 855.596 697.031C872.309 724.502 877.449 757.478 869.89 788.733C862.226 820.891 842.015 848.646 813.762 865.81C783.96 884.034 748.043 889.395 714.219 880.669C681.602 872.073 653.684 850.975 636.512 821.942C634.039 817.731 631.84 813.364 629.93 808.869C619.36 802.438 607.643 793.608 597.342 786.312L521.029 731.859C512.611 725.958 502.235 718.064 493.757 712.7L478.917 712.568L444.784 712.673C425.171 712.728 408.131 714.605 392.198 700.476C382.53 691.903 376.684 679.363 376.553 666.427C376.304 641.813 376.074 617.424 376.337 592.709C376.56 571.797 374.875 547.45 377.594 526.793C379.355 518.711 383.937 510.832 389.254 504.895C404.836 487.495 425.379 490.225 446.521 490.24C462.026 490.252 478.115 490.555 493.774 489.967ZM644.79 686.264C644.904 635.634 643.928 582.89 644.898 532.477L644.842 465.657C644.849 459.407 645.4 430.089 643.967 425.703C642.034 425.146 640.929 424.951 638.934 426.241C628.111 433.24 616.888 441.438 606.4 448.876L535.939 499.257C505.581 521.102 510.976 521.826 473.328 521.639L438.482 521.495C429.661 521.48 410.648 520.326 409.625 531.809C408.256 547.173 408.805 566.128 408.765 581.686L408.757 632.191C408.722 642.612 408.465 653.016 408.821 663.505C409.166 673.653 411.19 679.113 422.393 680.362C429.463 681.15 436.735 680.782 443.827 680.767L481.994 680.678C488.068 680.666 497.873 680.452 503.525 681.9C508.62 683.205 520.83 691.551 524.717 695.247C527.566 696.34 544.378 709.143 548.096 711.826C571.84 729.129 595.684 746.293 619.627 763.318C619.032 732.88 627.243 710.934 644.79 686.264ZM756.596 856.622C809.729 851.107 848.358 803.603 842.924 750.461C837.49 697.319 790.045 658.617 736.895 663.971C683.63 669.336 644.826 716.905 650.272 770.162C655.719 823.419 703.347 862.149 756.596 856.622Z"/><defs><linearGradient id="gradient_1" gradientUnits="userSpaceOnUse" x1="439.21481" y1="458.08615" x2="594.08466" y2="618.4624"><stop offset="0" stop-color="#FF6E00"/><stop offset="1" stop-color="#FF3F20"/></linearGradient></defs><path fill="url(#gradient_1)" transform="matrix(1.17034 0 0 1.17034 -430.686 -455.263)" d="M493.774 489.967L584.698 425.33C598.615 415.456 613.434 404.154 627.749 395.693C639.083 388.995 659.508 393.578 667.588 403.308C671.033 407.029 675.614 414.334 676.282 419.527C678.13 433.884 677.48 450.526 677.419 465.011C677.32 488.522 677.857 512.123 677.286 535.568C676.201 533.302 677.221 533.53 676.464 531.366C673.574 530.638 662.229 535.717 658.809 537.057L657.12 535.385C655.325 535.964 655.528 536.036 653.926 537.179L651.793 536.029C649.819 536.42 649.899 537.06 648.22 539C646.963 535.442 645.931 529.541 646.005 525.793C645.801 527.723 645.648 529.404 645.191 531.3L644.898 532.477L644.842 465.657C644.849 459.407 645.4 430.089 643.967 425.703C642.034 425.146 640.929 424.951 638.934 426.241C628.111 433.24 616.888 441.438 606.4 448.876L535.939 499.257C505.581 521.102 510.976 521.826 473.328 521.639L438.482 521.495C429.661 521.48 410.648 520.326 409.625 531.809C408.256 547.173 408.805 566.128 408.765 581.686L408.757 632.191C408.722 642.612 408.465 653.016 408.821 663.505C409.166 673.653 411.19 679.113 422.393 680.362C429.463 681.15 436.735 680.782 443.827 680.767L481.994 680.678C488.068 680.666 497.873 680.452 503.525 681.9C508.62 683.205 520.83 691.551 524.717 695.247C517.716 694.351 508.832 686.619 501.328 691.77C498.811 693.497 496.865 697.047 494.59 699.142C489.945 702.672 486.274 701.361 486.242 708.642C483.434 710.19 481.473 708.623 478.956 710.309C478.517 711.892 478.413 711.157 478.917 712.568L444.784 712.673C425.171 712.728 408.131 714.605 392.198 700.476C382.53 691.903 376.684 679.363 376.553 666.427C376.304 641.813 376.074 617.424 376.337 592.709C376.56 571.797 374.875 547.45 377.594 526.793C379.355 518.711 383.937 510.832 389.254 504.895C404.836 487.495 425.379 490.225 446.521 490.24C462.026 490.252 478.115 490.555 493.774 489.967Z"/><path fill="#F81D36" transform="matrix(1.17034 0 0 1.17034 -430.686 -455.263)" d="M791.029 711.681C808.828 709.764 817.212 726.131 804.277 738.809C783.001 759.665 762.012 780.996 740.391 801.458C738.077 803.208 733.583 804.239 730.87 804.133C719.947 803.706 708.274 788.859 700.661 781.361C694.115 775.106 683.372 767.092 682.755 758.388C682.491 754.247 683.91 750.176 686.692 747.097C689.463 743.943 693.422 742.086 697.619 741.972C707.763 741.783 723.693 760.627 731.124 768.134L766.499 732.913C772.592 726.869 783.405 714.769 791.029 711.681Z"/><path fill="#F81D36" transform="matrix(1.17034 0 0 1.17034 -430.686 -455.263)" d="M773.923 440.372C776.177 440.213 780.159 439.939 782.17 440.603C797.261 445.587 821.233 479.585 827.708 491.819C856.1 545.469 858.634 601.366 842.52 658.421L839.125 655.578C830.322 648.143 824.192 643.835 813.967 638.603C815.768 630.054 817.826 620.536 818.768 611.916C823.778 569.284 812.989 526.294 788.442 491.079C782.589 482.663 775.03 475.343 767.969 467.927C758.219 457.688 761.389 446.241 773.923 440.372Z"/><defs><linearGradient id="gradient_2" gradientUnits="userSpaceOnUse" x1="710.6012" y1="503.44537" x2="787.4364" y2="616.8999"><stop offset="0" stop-color="#FF4420"/><stop offset="1" stop-color="#FA1937"/></linearGradient></defs><path fill="url(#gradient_2)" transform="matrix(1.17034 0 0 1.17034 -430.686 -455.263)" d="M730.601 490.663C744.638 490.04 752.927 503.586 760.025 514.084C781.696 546.137 787.807 587.33 780.292 624.98L768.582 622.789C760.913 621.64 755.064 621.477 747.4 621.304C753.999 589.632 750.044 555.713 731.202 528.79C724.815 519.662 711.344 511.282 719.251 498.448C722.065 493.881 725.566 492.002 730.601 490.663Z"/></g></svg>