<?xml version="1.0" encoding="utf-8" ?><svg xmlns="http://www.w3.org/2000/svg" xmlns:xlink="http://www.w3.org/1999/xlink" width="676" height="676" viewBox="0 0 676 676"><clipPath id="cl_2b"><rect x="0.00053405762" width="675.91956" height="675.91956"/></clipPath><g clip-path="url(#cl_2b)"><defs><linearGradient id="gradient_0" gradientUnits="userSpaceOnUse" x1="419.75842" y1="531.60834" x2="771.16748" y2="657.4295"><stop offset="0" stop-color="#FF784A"/><stop offset="1" stop-color="#FF3375"/></linearGradient></defs><path fill="url(#gradient_0)" transform="matrix(0.973947 0 0 0.973947 -243.486 -258.096)" d="M458.183 463.399L576.842 365.118L608.963 338.611C616.955 332.023 624.927 324.857 633.901 319.556C649.619 310.271 670.229 315.063 681.971 328.494C695.103 343.514 692.084 364.041 692.074 382.829L692.067 438.863L692.166 622.683L692.032 794.988L692.16 848.556C692.183 857.551 692.584 871.708 691.757 880.386C690.727 890.573 685.665 899.926 677.699 906.359C669.546 913.126 658.981 916.268 648.455 915.054C632.107 913.186 621.086 902.27 608.687 892.542L579.996 870.358L485.718 797.36C439.316 761.61 448.675 764.035 389.955 764.077L344.158 764.136C339.118 764.157 333.005 764.208 328.072 763.787C312.694 762.623 298.45 755.258 288.61 743.384C282.407 735.852 278.33 726.8 276.801 717.163C275.525 709.11 275.997 691.834 276.005 683.162L276.026 624.948L276.006 561.153C275.998 550.428 275.453 536.202 276.436 526.047C278.865 500.952 297.233 480.079 322.374 476.014C334.288 474.088 350.356 474.731 362.861 474.722L415.652 474.697C437.404 474.758 440.269 477.768 458.183 463.399Z"/><defs><linearGradient id="gradient_1" gradientUnits="userSpaceOnUse" x1="260.68829" y1="559.4325" x2="404.30896" y2="618.94946"><stop offset="0" stop-color="#FF9D34"/><stop offset="1" stop-color="#FF7C4A"/></linearGradient></defs><path fill="url(#gradient_1)" transform="matrix(0.973947 0 0 0.973947 -243.486 -258.096)" d="M344.158 764.136C339.118 764.157 333.005 764.208 328.072 763.787C312.694 762.623 298.45 755.258 288.61 743.384C282.407 735.852 278.33 726.8 276.801 717.163C275.525 709.11 275.997 691.834 276.005 683.162L276.026 624.948L276.006 561.153C275.998 550.428 275.453 536.202 276.436 526.047C278.865 500.952 297.233 480.079 322.374 476.014C334.288 474.088 350.356 474.731 362.861 474.722L415.652 474.697C437.404 474.758 440.269 477.768 458.183 463.399C460.257 465.848 464.035 464.627 463.673 470.891C464.945 471.367 464.338 471.198 465.484 471.437C464.933 476.125 460.874 475.513 460.792 481.695C460.753 484.568 460.516 485.355 458.459 487.381C454.812 490.973 454.966 496.511 453.039 501.104C449.031 510.659 442.861 518.95 438.759 528.271C434.513 537.921 432.374 548.444 427.386 557.84C425.862 560.711 415.711 574.813 415.801 577.08C415.85 578.334 416.429 579.446 416.287 580.781C415.212 590.902 395.157 626.709 395.144 633.981C395.142 634.791 395.132 635.593 395.144 636.403C393.115 640.198 390.315 642.546 388.798 645.872C386.308 651.332 387.146 663.084 382.724 666.983C377.624 672.131 377.152 681.876 373.636 688.278C372.176 691.76 362.194 702.129 362.593 705.153C363.638 713.068 358.488 717.495 356.154 724.508C353.873 731.364 352.112 737.242 349.057 743.89C345.97 750.609 347.482 749.254 340.85 753.62C340.919 754.04 342.757 762.541 342.775 762.588L345.32 762.991L344.651 763.639C344.487 763.805 344.323 763.971 344.158 764.136Z"/><defs><linearGradient id="gradient_2" gradientUnits="userSpaceOnUse" x1="744.30457" y1="581.78882" x2="887.75952" y2="665.02142"><stop offset="0" stop-color="#FF754D"/><stop offset="1" stop-color="#FC2A7B"/></linearGradient></defs><path fill="url(#gradient_2)" transform="matrix(0.973947 0 0 0.973947 -243.486 -258.096)" d="M815.844 484.561C833.249 485.225 839.608 496.802 847.752 509.943C890.669 579.234 889.515 674.423 844.372 742.418C836.195 754.735 830.616 761.958 814.439 762.494C801.727 761.608 790.059 751.985 788.456 738.903C786.846 725.768 793.214 720.447 799.796 710.986C834.795 660.681 834.188 589.715 801.588 538.421C796.542 530.621 789.549 524.82 788.499 514.953C786.571 496.819 799.249 486.302 815.844 484.561Z"/></g></svg>