<?xml version="1.0" encoding="utf-8" ?><svg xmlns="http://www.w3.org/2000/svg" xmlns:xlink="http://www.w3.org/1999/xlink" width="522" height="713" viewBox="0 0 522 713"><clipPath id="cl_22"><rect x="0.00012207031" y="-3.0517578e-05" width="522.03583" height="712.92957"/></clipPath><g clip-path="url(#cl_22)"><defs><linearGradient id="gradient_0" gradientUnits="userSpaceOnUse" x1="621.98682" y1="486.61877" x2="630.56366" y2="656.38892"><stop offset="0" stop-color="#FD7701"/><stop offset="1" stop-color="#F62B21"/></linearGradient></defs><path fill="url(#gradient_0)" transform="matrix(0.973947 0 0 0.973947 -352.569 -191.868)" d="M472.532 490.678C472.403 482.711 473.418 477.418 477.058 470.41C489.193 447.046 516.252 451.719 537.711 451.729L616.517 451.748L701.283 451.72C717.208 451.675 733.731 451.224 749.576 452.065C762.327 452.742 776.071 465.79 778.776 477.979C781.344 485.55 780.523 509.567 780.514 518.526L780.461 562.587C780.42 592.529 780.961 623.953 780.449 653.761L780.354 791.946C780.321 803.467 780.354 814.988 780.454 826.509C780.542 841.583 782.171 857.651 770.68 869.592C762.515 878.075 753.065 880.828 741.465 880.79C725.353 880.738 709.129 880.669 692.97 880.676L581.65 880.823L530.237 880.965C512.903 881.015 496.38 883.649 483.101 870.484C470.485 857.976 472.483 843.196 472.541 826.988L472.571 788.95L472.617 643.806L472.532 490.678ZM682.932 653.76C644.797 628.581 594.653 631.438 559.625 660.787C525.487 689.39 513.515 736.648 529.918 778.055C546.32 819.461 587.406 845.701 631.872 843.167C676.337 840.634 714.176 809.896 725.769 766.894C737.361 723.892 720.099 678.3 682.932 653.76ZM643.054 501.845C628.953 497.108 616.37 498.203 603.052 504.857C602.261 505.255 601.478 505.668 600.704 506.098C593.135 511.942 587.753 516.751 583.327 525.46C577.237 537.271 576.215 551.05 580.496 563.63C584.721 576.078 593.733 586.329 605.538 592.113C630.028 603.894 658.89 592.386 670.042 567.9C675.377 556.085 675.81 542.636 671.244 530.502C665.657 515.934 656.913 508.09 643.054 501.845Z"/><defs><linearGradient id="gradient_1" gradientUnits="userSpaceOnUse" x1="620.54932" y1="659.89185" x2="630.6275" y2="819.53717"><stop offset="0" stop-color="#F5281F"/><stop offset="1" stop-color="#E10857"/></linearGradient></defs><path fill="url(#gradient_1)" transform="matrix(0.973947 0 0 0.973947 -352.569 -191.868)" d="M619.707 659.446C664.116 656.006 702.945 689.127 706.549 733.523C710.154 777.92 677.176 816.871 632.794 820.64C588.178 824.429 548.977 791.24 545.354 746.611C541.731 701.981 575.064 662.904 619.707 659.446ZM629.152 779.491C651.075 777.744 667.431 758.555 665.682 736.632C663.933 714.709 644.742 698.355 622.819 700.107C600.9 701.858 584.549 721.045 586.298 742.965C588.047 764.884 607.232 781.237 629.152 779.491Z"/><path fill="#FD7903" transform="matrix(0.973947 0 0 0.973947 -352.569 -191.868)" d="M621.597 522.067C635.911 519.573 649.523 529.193 651.951 543.518C654.379 557.843 644.697 571.411 630.361 573.773C616.118 576.12 602.657 566.515 600.244 552.282C597.832 538.05 607.376 524.545 621.597 522.067Z"/><defs><linearGradient id="gradient_2" gradientUnits="userSpaceOnUse" x1="619.92749" y1="644.43683" x2="634.64893" y2="886.15021"><stop offset="0" stop-color="#F72B1D"/><stop offset="1" stop-color="#DA006B"/></linearGradient></defs><path fill="url(#gradient_2)" transform="matrix(0.973947 0 0 0.973947 -352.569 -191.868)" d="M682.932 653.76L683.127 652.601C681.532 651.464 680.76 650.686 678.949 650.054C682.135 649.556 685.256 649.56 688.437 649.271C709.675 647.344 730.526 644.7 751.938 644.807C758.099 644.838 765.876 643.984 771.898 644.576C773.898 644.776 775.8 645.541 777.381 646.782C779.96 648.776 779.555 650.292 779.595 653.363L780.449 653.761L780.354 791.946C780.321 803.467 780.354 814.988 780.454 826.509C780.542 841.583 782.171 857.651 770.68 869.592C762.515 878.075 753.065 880.828 741.465 880.79C725.353 880.738 709.129 880.669 692.97 880.676L581.65 880.823L530.237 880.965C512.903 881.015 496.38 883.649 483.101 870.484C470.485 857.976 472.483 843.196 472.541 826.988L472.571 788.95L472.617 643.806C474.806 649.439 473.627 657.366 478.823 660.815C481.517 661.024 488.617 661.772 490.857 661.308C491.574 660.318 492.311 659.342 493.067 658.381C495.874 658.238 499.008 658.788 501.827 658.689C511.521 658.348 521.234 658.488 530.886 658.467C534.985 658.457 543.031 655.269 547.972 656.069C551.044 656.566 552.218 657.332 554.449 659.345C554.912 659.766 555.37 660.194 555.822 660.627C556.97 660.671 558.521 660.679 559.625 660.787C525.487 689.39 513.515 736.648 529.918 778.055C546.32 819.461 587.406 845.701 631.872 843.167C676.337 840.634 714.176 809.896 725.769 766.894C737.361 723.892 720.099 678.3 682.932 653.76Z"/><path fill="#FD7903" transform="matrix(0.973947 0 0 0.973947 -352.569 -191.868)" d="M472.532 490.678C472.403 482.711 473.418 477.418 477.058 470.41C489.193 447.046 516.252 451.719 537.711 451.729L616.517 451.748L701.283 451.72C717.208 451.675 733.731 451.224 749.576 452.065C762.327 452.742 776.071 465.79 778.776 477.979C778.403 483.569 779.681 488.809 779.354 494.302C778.22 493.233 775.037 488.279 773.896 488.295C758.802 488.513 743.388 483.607 728.548 487.21C723.736 488.378 715.747 487.406 710.711 488.109C695.21 489.586 679.494 491.44 664.135 493.768C662.415 494.029 659.668 498.458 658.284 498.427C653.587 498.325 653.582 496.679 649.978 500.81C647.678 501.217 647.47 501.094 645.209 500.852L643.054 501.845C628.953 497.108 616.37 498.203 603.052 504.857C602.261 505.255 601.478 505.668 600.704 506.098C598.313 506.07 597.723 506.718 595.765 506.286C595.437 504.541 595.318 504.012 594.739 502.34C578.395 494.173 559.352 498.185 541.921 497.343C521.411 496.352 499.94 501.694 479.448 499.851C476.831 499.616 473.341 492.912 472.532 490.678Z"/><defs><linearGradient id="gradient_3" gradientUnits="userSpaceOnUse" x1="622.90082" y1="223.13904" x2="627.05133" y2="297.50568"><stop offset="0" stop-color="#FB7800"/><stop offset="1" stop-color="#F94011"/></linearGradient></defs><path fill="url(#gradient_3)" transform="matrix(0.973947 0 0 0.973947 -352.569 -191.868)" d="M620.677 222.552L621.206 222.53C660.202 221.515 698.592 232.315 731.339 253.512C738.845 258.272 744.207 262.3 751.624 268.306C764.143 277.261 755.975 295.404 742.096 291.926C736.935 290.632 725.047 279.659 719.966 276.26C692.762 258.062 665.564 250.183 633.004 248.037C595.018 247.198 560.332 256.93 529.047 278.837C523.817 282.423 519.703 286.853 514.286 290.263C506.289 295.299 495.671 289.947 494.793 280.663C494.419 277.362 496.449 272.841 498.862 270.646C532.927 239.657 575.368 225.248 620.677 222.552Z"/><defs><linearGradient id="gradient_4" gradientUnits="userSpaceOnUse" x1="624.37347" y1="282.25449" x2="626.69" y2="338.33289"><stop offset="0" stop-color="#F84314"/><stop offset="1" stop-color="#F21E2C"/></linearGradient></defs><path fill="url(#gradient_4)" transform="matrix(0.973947 0 0 0.973947 -352.569 -191.868)" d="M616.807 281.913C619.407 281.468 627.928 281.472 630.685 281.566C656.54 282.505 681.621 290.638 703.107 305.05C712.141 311.042 729.004 321.788 714.49 334.186C705.405 341.947 696.355 331.062 689.076 326.167C673.221 315.505 657.156 310.012 638.17 307.479C609.962 304.706 586.302 311.544 562.437 327.012C557.457 330.126 553.492 335.57 547.403 336.616C540.734 337.803 533.569 331.961 533.097 325.275C532.443 316.03 543.007 309.775 549.544 305.277C569.734 291.384 592.517 283.888 616.807 281.913Z"/><defs><linearGradient id="gradient_5" gradientUnits="userSpaceOnUse" x1="625.15277" y1="340.81857" x2="626.51917" y2="379.89832"><stop offset="0" stop-color="#EB1B34"/><stop offset="1" stop-color="#E40B53"/></linearGradient></defs><path fill="url(#gradient_5)" transform="matrix(0.973947 0 0 0.973947 -352.569 -191.868)" d="M622.392 340.095C642.15 339.166 662.005 345.202 677.234 358.042C680.122 360.477 681.738 364.224 681.616 367.981C681.49 371.619 679.797 375.025 676.972 377.322C667.58 385.038 656.954 372.968 648.059 369.381C640.863 366.479 639.132 366.03 631.338 365.166C621.304 363.407 605.98 367.123 597.767 372.966C594.11 374.969 588.691 379.168 584.554 379.68C572.733 380.394 566.63 367.342 574.928 358.682C578.615 354.834 582.334 353.094 586.84 350.448C598.401 343.66 609.118 340.87 622.392 340.095Z"/><path fill="#DE055C" transform="matrix(0.973947 0 0 0.973947 -352.569 -191.868)" d="M624.013 394.391C632.811 393.065 641.004 399.162 642.261 407.969C643.519 416.777 637.359 424.923 628.541 426.112C619.82 427.288 611.783 421.21 610.539 412.498C609.296 403.787 615.311 395.702 624.013 394.391Z"/></g></svg>