<?xml version="1.0" encoding="utf-8" ?><svg xmlns="http://www.w3.org/2000/svg" xmlns:xlink="http://www.w3.org/1999/xlink" width="934" height="1103" viewBox="0 0 934 1103"><clipPath id="cl_26"><rect x="0.00047302246" y="-9.1552734e-05" width="934.01562" height="1103.4825"/></clipPath><g clip-path="url(#cl_26)"><defs><linearGradient id="gradient_0" gradientUnits="userSpaceOnUse" x1="228.57472" y1="626.55359" x2="1041.274" y2="635.4364"><stop offset="0" stop-color="#FE7A16"/><stop offset="1" stop-color="#FA0067"/></linearGradient></defs><path fill="url(#gradient_0)" transform="matrix(0.973947 0 0 0.973947 -161.675 -66.2285)" d="M1000.4 726.383C995.381 730.52 980.614 739.928 974.695 743.94C955.901 756.737 937.035 769.428 918.098 782.013C859.163 821.707 800.013 861.083 740.652 900.138L502.296 1057.34L427.871 1106.11C413.001 1115.91 395.591 1128.01 380.404 1136.98C370.189 1143.02 359.033 1147.31 347.4 1149.66C293.381 1160.27 243.759 1126.75 234.104 1072.23C231.613 1058.17 232.491 1042.72 232.491 1028.37L232.521 963.852L232.552 729.73L232.532 361.116L232.524 244.755C232.521 225.29 231.539 203.821 232.909 184.582C235.723 145.079 266.172 111.59 304.634 105.196C323.46 102.231 342.743 105.103 359.889 113.426C369.476 117.998 384.359 127.926 393.651 133.764L449.153 168.762L616.388 274.044L892.985 448.906L965.473 494.858C977.734 502.613 993.34 511.904 1004.9 520.18C1010.47 522.758 1017.88 528.339 1023.33 531.552C1046.92 545.446 1063.67 561.632 1073.32 588.111C1082.15 612.746 1080.78 639.885 1069.53 663.51C1057.66 688.825 1041.13 699.75 1018.64 714.244C1014.79 716.724 1003.93 724.833 1000.4 726.383Z"/><path fill="#FA0C72" transform="matrix(0.973947 0 0 0.973947 -161.675 -66.2285)" d="M1004.9 520.18C1010.47 522.758 1017.88 528.339 1023.33 531.552C1046.92 545.446 1063.67 561.632 1073.32 588.111C1082.15 612.746 1080.78 639.885 1069.53 663.51C1057.66 688.825 1041.13 699.75 1018.64 714.244C1014.79 716.724 1003.93 724.833 1000.4 726.383C999.854 722.122 1014.67 718.595 1018.93 710.59L1018.62 709.69C1016.91 709.407 1016.31 709.431 1014.77 708.628C1014.42 706.142 1017.79 698.474 1021.57 699.319C1022.35 700.644 1022.46 701.064 1022.67 702.589C1023.21 699.851 1023.88 695.805 1022.87 693.212C1020.94 692.29 1020.69 692.972 1017.87 693.881L1016.99 693.303L1016.71 691.323C1017.99 689.297 1019.34 687.252 1021.85 687.096C1022.58 688.655 1022.37 688.621 1022.46 690.475C1023.27 685.037 1023.28 662.293 1022.33 656.742L1021.87 656.465C1021.26 658.568 1020.57 660.647 1019.8 662.699L1019 662.95C1016.15 658.252 1018.46 647.582 1017.31 645.072C1011.41 632.249 1019.07 636.106 1021.01 627.004L1022.16 631.175L1022.66 631.328C1023.59 628.177 1022.39 624.806 1023.03 621.578C1023.64 618.52 1025.83 618.123 1025.99 614.834C1026.09 612.702 1024.55 605.39 1024.99 603.882C1026.56 598.227 1030.98 591.203 1031.47 585.427C1031.86 580.841 1029.6 574.748 1029.26 570.006C1032.08 566.96 1034.48 569.3 1037.5 566.396C1036.97 562.92 1035.55 564.017 1035.42 561.831C1036.1 561.843 1036.73 561.773 1037.41 561.678C1038.56 562.2 1037.92 562.113 1039.33 561.762C1039.33 559.054 1038.55 560.931 1037.28 558.012C1039.38 557.629 1038.44 557.478 1040.23 558.247L1039.48 558.624L1040.22 558.703L1039.31 558.35L1039.72 558.812L1039.9 557.882L1039.06 557.772C1038.81 556.896 1038.68 555.77 1038.54 554.866C1039.85 555.882 1040.33 556.169 1041.78 556.991L1042.39 556.315C1042.26 554.183 1042.43 552.529 1041.29 550.787L1040 551.204C1037.78 549.49 1040.86 550.625 1038.9 548.732C1038.61 550.492 1038.84 550.08 1038.06 551.585L1037 549.159C1035.68 550.435 1035.57 552.3 1035.04 554.34L1034.52 554.422C1033.04 550.748 1035.14 551.334 1034.56 548.126C1032.65 547.499 1030.45 545.878 1029.77 543.963C1030.52 541.208 1030.99 542.135 1032.94 539.554C1030.03 536.905 1009.91 524.837 1004.89 521.453L1004.9 520.18Z"/></g></svg>