<?xml version="1.0" encoding="utf-8" ?><svg xmlns="http://www.w3.org/2000/svg" xmlns:xlink="http://www.w3.org/1999/xlink" width="632" height="627" viewBox="0 0 632 627"><clipPath id="cl_6"><rect width="632" height="627"/></clipPath><g clip-path="url(#cl_6)"><path fill="#FEFEFE" transform="translate(-308 -302)" d="M344.787 493.571C369.841 492.732 399.067 493.394 424.323 493.395L574.284 493.426L664.479 493.374C679.055 493.363 694.435 493.161 708.978 493.596C715.136 494.309 721.481 496.547 726.585 500.084C739.896 509.311 743.669 523.351 743.452 538.74C743.288 550.405 743.434 562.017 743.413 573.562L743.403 667.763L743.399 811.439L743.441 859.161C743.448 877.881 746.387 897.967 731.551 911.586C723.955 918.559 717.986 920.678 707.956 922.23C687.957 923.051 663.34 922.406 643.053 922.407L520.63 922.421L410.408 922.44C390.38 922.458 370.127 922.647 350.103 922.269C344.987 922.112 339.917 921.41 335.264 919.116C321.421 912.294 313.208 900.345 313.029 884.867C312.789 864.04 312.872 843.486 312.891 822.781L312.938 709.244L312.911 596.304C312.877 574.982 312.741 553.494 313.033 532.174C313.428 527.308 313.502 521.629 315.506 517.172C321.756 503.274 330.419 497.695 344.787 493.571ZM478.245 667.029C479.789 664.337 481.555 663.536 484.661 662.872C501.298 659.314 518.189 655.922 534.839 652.439L577.607 643.633C582.19 642.699 597.152 638.67 600.888 640.31C602.51 642.914 602.537 731.898 601.288 739.8L600.267 740.505C581.917 736.911 567.837 736.165 551.378 747.121C536.268 757.179 528.282 775.844 540.617 791.796C557.332 813.413 592.323 814.709 613.083 798.364C621.548 791.698 626.621 784.077 627.254 773.124C627.995 763.816 627.731 754.385 627.733 745.064L627.719 693.932L627.759 632.91C627.761 622.076 627.718 611.374 627.499 600.54C627.288 590.107 620.647 582.307 609.612 583.03L505.452 605.069C496.431 607.019 483.771 609.893 474.937 611.497C450.464 615.943 453.118 629.472 453.09 649.79C453.14 653.267 453.121 657.645 453.127 661.281L453.18 724.866C453.218 736.687 453.415 748.899 453.05 760.695C453.014 761.848 452.736 763.582 451.424 763.731C447.608 764.091 443.981 762.418 440.007 761.975C422.862 760.064 402.611 765.744 392.314 780.457C381.193 796.347 385.539 813.921 401.505 824.474C423.583 839.068 457.807 834.773 473.179 812.518C475.655 808.855 477.48 804.128 477.832 799.729C478.63 786.347 478.139 772.017 478.242 758.607C478.476 728.131 477.925 697.469 478.245 667.029Z"/><path fill="#FEFEFE" transform="translate(-308 -302)" d="M440.537 399.364C445.34 398.612 472.364 399.067 478.343 399.084L555.034 399.08L716.877 399.108C743.812 399.112 770.954 398.977 797.899 399.155C803.082 399.189 808.365 400.225 813.148 402.272C823.481 406.707 831.612 415.088 835.731 425.551C837.144 429.099 837.955 432.857 838.132 436.672C838.876 451.152 838.219 472.005 838.219 487.073L838.218 586.908L838.194 722.247C838.19 744.926 838.183 767.668 838.158 790.345C838.132 814.191 824.603 828.387 801.59 832.082L769.7 832.179L769.651 595.573L769.708 531.069C769.728 510.732 773.064 492.802 757.61 477.407C743.222 463.075 725.558 466.222 707.168 466.189L648.441 466.175L405.299 466.245C403.57 435.08 403.21 406.317 440.537 399.364Z"/><path fill="#FEFEFE" transform="translate(-308 -302)" d="M536.156 306.978C539.598 306.246 565.787 306.552 570.906 306.562L650.009 306.593L814.649 306.598L865.353 306.576C881.86 306.526 900.002 304.005 914.35 312.976C937.675 327.56 932.4 353.665 932.585 377.02L932.623 488.117L932.678 627.453L932.719 672.298C932.793 682.446 933.402 695.46 932.411 705.389C930.643 723.111 915.658 734.99 899.52 738.417C887.892 739.181 876.625 739.13 864.989 738.928L865.041 419.409C864.975 397.423 856.463 377.198 831.237 373.235C820.65 371.572 805.494 372.661 794.535 372.658L721.192 372.691C648.024 372.737 572.722 371.64 499.829 372.763C501.407 354.668 496.5 336.837 508.486 321.655C515.99 312.151 524.604 308.554 536.156 306.978Z"/></g></svg>