<?xml version="1.0" encoding="utf-8" ?><svg xmlns="http://www.w3.org/2000/svg" xmlns:xlink="http://www.w3.org/1999/xlink" width="579" height="595" viewBox="0 0 579 595"><clipPath id="cl_25"><rect x="0.00036621094" y="-9.1552734e-05" width="579.49872" height="595.08191"/></clipPath><g clip-path="url(#cl_25)"><defs><linearGradient id="gradient_0" gradientUnits="userSpaceOnUse" x1="396.00714" y1="616.00659" x2="645.09589" y2="638.8584"><stop offset="0" stop-color="#FD8B20"/><stop offset="1" stop-color="#F82D4D"/></linearGradient></defs><path fill="url(#gradient_0)" transform="matrix(0.973947 0 0 0.973947 -332.116 -280.497)" d="M602.654 735.229C601.114 737.073 588.305 745.13 585.286 747.138L526.963 785.57C505.705 799.538 484.946 813.798 463.338 827.639C443.692 840.223 417.073 831.986 412.164 807.864C410.877 801.54 411.545 793.575 411.429 787.041C411.292 779.348 411.437 771.48 411.448 763.756L411.486 673.014L411.493 516.853L411.454 466.348C411.444 452.384 409.242 433.251 417.18 421.606C422.101 414.404 429.778 409.554 438.396 408.204C451.928 406.013 459.661 411.444 470.447 418.266C476.67 422.202 482.969 426.164 489.196 430.102L550.655 468.846L617.647 510.961C626.524 516.554 642.324 525.908 650.16 531.72C659.389 536.857 669.073 543.31 678.013 549.007C697.734 561.576 718.397 573.335 737.277 587.072C741.142 589.884 746.202 600.693 747.543 605.282C750.679 615.967 749.376 627.464 743.93 637.177C737.767 648.235 723.338 655.974 712.85 662.808L678.706 685.105L641.787 709.402C636.547 712.86 628.044 718.848 622.837 721.804C620.015 723.828 617.882 725.389 614.822 727.103C610.607 730.096 607.075 732.579 602.654 735.229Z"/><defs><linearGradient id="gradient_1" gradientUnits="userSpaceOnUse" x1="625.4895" y1="625.16827" x2="740.36475" y2="652.19299"><stop offset="0" stop-color="#F93649"/><stop offset="1" stop-color="#F5165E"/></linearGradient></defs><path fill="url(#gradient_1)" transform="matrix(0.973947 0 0 0.973947 -332.116 -280.497)" d="M650.16 531.72C659.389 536.857 669.073 543.31 678.013 549.007C697.734 561.576 718.397 573.335 737.277 587.072C741.142 589.884 746.202 600.693 747.543 605.282C750.679 615.967 749.376 627.464 743.93 637.177C737.767 648.235 723.338 655.974 712.85 662.808L678.706 685.105L641.787 709.402C636.547 712.86 628.044 718.848 622.837 721.804C623.036 718.787 625.226 718.117 622.81 716.029C620.706 716.149 618.497 717.729 616.589 718.825L615.123 717.93C614.176 716.215 614.581 715.207 614.861 713.202L614.981 712.393L612.602 709.847C612.277 700.555 615.536 692.321 616.089 683.279C616.27 680.308 614.817 677.139 615.247 674.226C615.506 672.473 616.818 670.548 617.664 669.014C621.7 661.69 625.38 625.266 628.048 622.585C634.277 616.327 631.068 606.094 632.564 598.203C633.643 592.505 636.9 580.94 638.913 575.536C640.987 569.967 643.93 564.345 645.38 558.577C646.602 553.72 645.074 548.084 645.935 543.037C645.972 542.816 646.024 542.597 646.057 542.375C646.206 541.378 646.343 541.039 646.886 540.1C647.833 538.463 649.372 537.652 651.166 537.264C652.467 536.982 653.605 536.633 654.86 536.183C652.417 534.514 651.779 534.155 650.16 531.72Z"/><path fill="#FA3346" transform="matrix(0.973947 0 0 0.973947 -332.116 -280.497)" d="M607.776 727.623C610.159 726.718 611.737 725.907 614.26 725.858L614.822 727.103C610.607 730.096 607.075 732.579 602.654 735.229C603.49 731.614 605.167 730.252 607.776 727.623Z"/><defs><linearGradient id="gradient_2" gradientUnits="userSpaceOnUse" x1="725.89838" y1="590.02985" x2="897.21613" y2="650.09668"><stop offset="0" stop-color="#F72C49"/><stop offset="1" stop-color="#EE0079"/></linearGradient></defs><path fill="url(#gradient_2)" transform="matrix(0.973947 0 0 0.973947 -332.116 -280.497)" d="M805.688 407.352C815.104 406.566 818.828 407.038 827.49 411.203C832.714 413.715 841.527 424.021 842.355 429.463C844.356 442.599 843.616 460.577 843.625 474.082L843.667 559.039L843.68 721.94L843.642 775.609C843.618 801.145 848.801 824.998 817.32 833.234C782.869 835.353 778.033 811.395 779.622 784.023C780.351 771.474 779.599 755.429 779.593 742.432L779.587 614.035L779.703 498.108C779.741 477.726 779.508 457.211 780.135 436.855C780.614 421.302 791.318 411.305 805.688 407.352Z"/></g></svg>