<?xml version="1.0" encoding="UTF-8"?>
<svg xmlns="http://www.w3.org/2000/svg" xmlns:xlink="http://www.w3.org/1999/xlink" width="32px" height="32px" viewBox="0 0 32 23" version="1.1">
<g id="surface1">
<path style=" stroke:none;fill-rule:nonzero;fill:rgb(99.607843%,36.470589%,26.666668%);fill-opacity:1;" d="M 0 0.855469 L 32 0.859375 L 32 22.195312 L 10.367188 22.195312 L 3.839844 22.191406 C 2.988281 22.199219 2.140625 22.199219 1.289062 22.199219 C 0.890625 22.195312 0.390625 22.210938 0 22.1875 Z M 0 0.855469 "/>
<path style=" stroke:none;fill-rule:nonzero;fill:rgb(99.215686%,53.725493%,48.627451%);fill-opacity:1;" d="M 0 0.855469 L 32 0.859375 L 32 1.675781 C 31.914062 1.585938 31.964844 1.535156 31.867188 1.464844 C 31.796875 1.453125 31.675781 1.503906 31.601562 1.523438 C 31.515625 1.386719 31.449219 1.332031 31.332031 1.222656 C 31.28125 1.175781 31.289062 1.183594 31.289062 1.121094 L 31.175781 1.097656 C 30.863281 1.082031 30.359375 1.09375 30.042969 1.097656 C 30 1.125 29.023438 1.113281 28.890625 1.113281 C 29.128906 1.148438 29.402344 1.136719 29.640625 1.136719 L 30.664062 1.132812 C 30.792969 1.132812 31.082031 1.125 31.207031 1.144531 C 31.234375 1.152344 31.507812 1.4375 31.53125 1.476562 C 31.542969 1.5 31.585938 1.542969 31.585938 1.578125 C 31.59375 1.84375 31.582031 2.125 31.585938 2.390625 L 31.589844 4.660156 L 31.597656 12.347656 L 31.601562 14.980469 C 31.601562 15.28125 31.585938 15.707031 31.601562 16 L 31.578125 15.996094 C 31.554688 15.960938 31.386719 15.882812 31.347656 15.777344 C 31.324219 15.703125 31.324219 15.679688 31.308594 15.617188 C 31.300781 17.027344 31.296875 18.4375 31.308594 19.847656 L 31.308594 20.902344 C 31.308594 21.058594 31.355469 21.582031 31.25 21.667969 L 31.183594 21.65625 L 31.171875 21.636719 C 31.21875 21.628906 31.234375 21.628906 31.261719 21.59375 C 31.265625 21.523438 31.265625 21.457031 31.273438 21.386719 C 31.308594 20.898438 31.28125 20.410156 31.28125 19.917969 L 31.28125 15.054688 L 31.277344 6.425781 L 31.285156 3.050781 C 31.285156 2.683594 31.320312 1.835938 31.246094 1.53125 L 31.148438 1.433594 C 30.792969 1.410156 30.378906 1.429688 30.023438 1.4375 C 29.660156 1.445312 29.296875 1.449219 28.933594 1.449219 L 24.773438 1.453125 L 15.019531 1.445312 C 12.402344 1.46875 9.789062 1.46875 7.175781 1.441406 C 6.769531 1.472656 6.160156 1.445312 5.734375 1.449219 L 1.726562 1.464844 C 1.597656 1.464844 0.726562 1.488281 0.691406 1.464844 C 0.433594 1.417969 0.382812 1.410156 0.390625 1.683594 C 0.375 1.625 0.371094 1.484375 0.371094 1.417969 C 0.265625 1.285156 0.121094 1.230469 0.0820312 1.105469 L 0 1.101562 Z M 0 0.855469 "/>
<path style=" stroke:none;fill-rule:nonzero;fill:rgb(99.607843%,36.470589%,26.666668%);fill-opacity:1;" d="M 0 0.855469 L 32 0.859375 L 32 1.675781 C 31.914062 1.585938 31.964844 1.535156 31.867188 1.464844 C 31.796875 1.453125 31.675781 1.503906 31.601562 1.523438 C 31.515625 1.386719 31.449219 1.332031 31.332031 1.222656 C 31.28125 1.175781 31.289062 1.183594 31.289062 1.121094 L 31.175781 1.097656 C 30.863281 1.082031 30.359375 1.09375 30.042969 1.097656 C 29.894531 1.085938 29.460938 1.09375 29.296875 1.09375 L 27.710938 1.097656 L 22.917969 1.101562 L 6.328125 1.097656 C 6.113281 1.082031 5.753906 1.09375 5.53125 1.09375 L 4.054688 1.097656 L 1.046875 1.09375 C 0.917969 1.09375 0.167969 1.078125 0.0820312 1.105469 L 0 1.101562 Z M 0 0.855469 "/>
<path style=" stroke:none;fill-rule:nonzero;fill:rgb(99.215686%,53.725493%,48.627451%);fill-opacity:1;" d="M 31.175781 1.097656 C 31.4375 1.082031 31.734375 1.09375 32 1.09375 L 32 1.675781 C 31.914062 1.585938 31.964844 1.535156 31.867188 1.464844 C 31.796875 1.453125 31.675781 1.503906 31.601562 1.523438 C 31.515625 1.386719 31.449219 1.332031 31.332031 1.222656 C 31.28125 1.175781 31.289062 1.183594 31.289062 1.121094 Z M 31.175781 1.097656 "/>
<path style=" stroke:none;fill-rule:nonzero;fill:rgb(99.215686%,55.29412%,30.588236%);fill-opacity:1;" d="M 0.0820312 1.105469 C 0.167969 1.078125 0.917969 1.09375 1.046875 1.09375 L 4.054688 1.097656 L 5.53125 1.09375 C 5.753906 1.09375 6.113281 1.082031 6.328125 1.097656 C 6.207031 1.117188 5.878906 1.109375 5.746094 1.113281 L 4.554688 1.117188 L 0.726562 1.117188 C 0.726562 1.164062 0.726562 1.351562 0.734375 1.386719 C 1.019531 1.421875 1.332031 1.394531 1.617188 1.402344 C 1.964844 1.410156 2.308594 1.421875 2.65625 1.417969 C 3.582031 1.402344 4.503906 1.457031 5.429688 1.429688 C 5.835938 1.421875 6.242188 1.414062 6.648438 1.417969 C 6.785156 1.421875 7.054688 1.414062 7.175781 1.441406 C 6.769531 1.472656 6.160156 1.445312 5.734375 1.449219 L 1.726562 1.464844 C 1.597656 1.464844 0.726562 1.488281 0.691406 1.464844 C 0.433594 1.417969 0.382812 1.410156 0.390625 1.683594 C 0.375 1.625 0.371094 1.484375 0.371094 1.417969 C 0.265625 1.285156 0.121094 1.230469 0.0820312 1.105469 Z M 0.0820312 1.105469 "/>
<path style=" stroke:none;fill-rule:nonzero;fill:rgb(94.117647%,25.098041%,23.529412%);fill-opacity:1;" d="M 31.582031 21.589844 L 31.609375 21.632812 C 31.660156 21.667969 31.78125 21.675781 31.84375 21.664062 C 31.988281 21.640625 31.925781 21.535156 32 21.441406 L 32 22.195312 L 10.367188 22.195312 L 3.839844 22.191406 C 2.988281 22.199219 2.140625 22.199219 1.289062 22.199219 C 0.890625 22.195312 0.390625 22.210938 0 22.1875 L 0 21.921875 L 0.0625 21.914062 C 0.222656 21.945312 2.398438 21.960938 2.539062 21.921875 L 24.070312 21.921875 L 29.117188 21.917969 C 29.804688 21.917969 30.535156 21.933594 31.21875 21.917969 C 31.355469 21.804688 31.46875 21.726562 31.582031 21.589844 Z M 31.582031 21.589844 "/>
<path style=" stroke:none;fill-rule:nonzero;fill:rgb(99.215686%,53.725493%,48.627451%);fill-opacity:1;" d="M 31.582031 21.589844 L 31.609375 21.632812 C 31.660156 21.667969 31.78125 21.675781 31.84375 21.664062 C 31.988281 21.640625 31.925781 21.535156 32 21.441406 L 32 21.9375 C 31.839844 21.9375 31.34375 21.949219 31.21875 21.917969 C 31.355469 21.804688 31.46875 21.726562 31.582031 21.589844 Z M 31.582031 21.589844 "/>
<path style=" stroke:none;fill-rule:nonzero;fill:rgb(99.607843%,59.215689%,41.176471%);fill-opacity:1;" d="M 0 1.101562 L 0.0820312 1.105469 C 0.121094 1.230469 0.265625 1.285156 0.371094 1.417969 C 0.371094 1.484375 0.375 1.625 0.390625 1.683594 C 0.402344 2.285156 0.394531 2.910156 0.390625 3.511719 L 0.390625 15.945312 L 0.386719 19.761719 C 0.386719 20.078125 0.429688 21.386719 0.367188 21.589844 C 0.359375 21.605469 0.355469 21.617188 0.351562 21.632812 C 0.257812 21.722656 0.152344 21.820312 0.0625 21.914062 L 0 21.921875 Z M 0 1.101562 "/>
<path style=" stroke:none;fill-rule:nonzero;fill:rgb(99.607843%,36.470589%,26.666668%);fill-opacity:1;" d="M 0 6.765625 C 0.0195312 6.902344 0.015625 7.207031 0.015625 7.359375 L 0.015625 8.386719 L 0.0234375 12.316406 C 0.0234375 12.253906 0.0273438 12.191406 0.03125 12.128906 C 0.0546875 11.8125 0.015625 11.46875 0.0585938 11.15625 L 0.0585938 11.226562 C 0.0703125 11.144531 0.0820312 10.9375 0.105469 10.886719 C 0.140625 11.671875 0.125 12.585938 0.117188 13.378906 L 0.113281 15.378906 L 0.117188 17.914062 C 0.113281 18.144531 0.132812 18.488281 0.121094 18.703125 C 0.132812 19.3125 0.132812 19.921875 0.121094 20.53125 C 0.113281 20.964844 0.167969 21.128906 0 21.554688 Z M 0 6.765625 "/>
<path style=" stroke:none;fill-rule:nonzero;fill:rgb(99.215686%,55.29412%,30.588236%);fill-opacity:1;" d="M 0.015625 1.550781 C 0.0742188 1.582031 0.0898438 1.621094 0.09375 1.6875 C 0.125 2.199219 0.113281 2.726562 0.113281 3.238281 C 0.117188 4.1875 0.113281 5.136719 0.101562 6.085938 C 0.0976562 6.367188 0.121094 6.933594 0.105469 7.1875 C 0.117188 8.167969 0.117188 9.152344 0.105469 10.132812 C 0.101562 10.382812 0.109375 10.640625 0.105469 10.886719 C 0.0820312 10.9375 0.0703125 11.144531 0.0585938 11.226562 L 0.0585938 11.15625 C 0.015625 11.46875 0.0546875 11.8125 0.03125 12.128906 C 0.0273438 12.191406 0.0234375 12.253906 0.0234375 12.316406 L 0.015625 8.386719 L 0.015625 7.359375 C 0.015625 7.207031 0.0195312 6.902344 0 6.765625 L 0 1.550781 Z M 0.015625 1.550781 "/>
<path style=" stroke:none;fill-rule:nonzero;fill:rgb(94.117647%,25.098041%,23.529412%);fill-opacity:1;" d="M 31.601562 1.523438 C 31.675781 1.503906 31.796875 1.453125 31.867188 1.464844 C 31.964844 1.535156 31.914062 1.585938 32 1.675781 L 32 21.441406 C 31.925781 21.535156 31.988281 21.640625 31.84375 21.664062 C 31.78125 21.675781 31.660156 21.667969 31.609375 21.632812 L 31.582031 21.589844 C 31.640625 21.433594 31.628906 20.878906 31.628906 20.6875 L 31.625 6.277344 L 31.628906 2.902344 L 31.625 2.074219 C 31.625 1.9375 31.632812 1.648438 31.601562 1.523438 Z M 31.601562 1.523438 "/>
<path style=" stroke:none;fill-rule:nonzero;fill:rgb(92.54902%,35.294119%,12.54902%);fill-opacity:1;" d="M 0.390625 1.683594 C 0.382812 1.410156 0.433594 1.417969 0.691406 1.464844 C 0.707031 2.226562 0.695312 3 0.699219 3.761719 L 0.699219 12.882812 L 0.714844 18.0625 L 0.730469 20.164062 C 0.730469 20.410156 0.777344 21.460938 0.660156 21.621094 C 0.585938 21.636719 0.421875 21.652344 0.378906 21.691406 L 0.394531 21.707031 C 0.566406 21.722656 0.523438 21.644531 0.671875 21.734375 C 0.671875 21.773438 0.683594 21.859375 0.65625 21.882812 C 0.554688 21.957031 0.246094 21.914062 0.136719 21.894531 C 0.160156 21.816406 0.328125 21.75 0.351562 21.632812 C 0.355469 21.617188 0.359375 21.605469 0.367188 21.589844 C 0.429688 21.386719 0.386719 20.078125 0.386719 19.761719 L 0.390625 15.945312 L 0.390625 3.511719 C 0.394531 2.910156 0.402344 2.285156 0.390625 1.683594 Z M 0.390625 1.683594 "/>
<path style=" stroke:none;fill-rule:nonzero;fill:rgb(99.607843%,49.019608%,50.980395%);fill-opacity:1;" d="M 30.042969 1.097656 C 30.359375 1.09375 30.863281 1.082031 31.175781 1.097656 L 31.289062 1.121094 C 31.289062 1.183594 31.28125 1.175781 31.332031 1.222656 C 31.449219 1.332031 31.515625 1.386719 31.601562 1.523438 C 31.632812 1.648438 31.625 1.9375 31.625 2.074219 L 31.628906 2.902344 L 31.625 6.277344 L 31.628906 20.6875 C 31.628906 20.878906 31.640625 21.433594 31.582031 21.589844 C 31.46875 21.726562 31.355469 21.804688 31.21875 21.917969 C 30.535156 21.933594 29.804688 21.917969 29.117188 21.917969 L 24.070312 21.921875 L 2.539062 21.921875 C 2.398438 21.910156 2.121094 21.921875 1.96875 21.921875 C 1.539062 21.921875 1.113281 21.921875 0.683594 21.917969 C 0.691406 21.886719 0.707031 21.765625 0.722656 21.75 L 0.722656 21.902344 L 30.386719 21.902344 C 30.640625 21.902344 30.90625 21.910156 31.160156 21.898438 C 31.277344 21.882812 31.574219 21.613281 31.574219 21.5 C 31.574219 21.207031 31.65625 20.753906 31.597656 20.472656 C 31.578125 20.503906 31.558594 20.535156 31.539062 20.566406 C 31.339844 20.3125 31.375 20.0625 31.558594 19.832031 C 31.566406 19.816406 31.542969 19.757812 31.578125 19.71875 L 31.597656 19.75 C 31.613281 19.621094 31.613281 18.8125 31.601562 18.6875 C 31.597656 18.730469 31.601562 18.777344 31.566406 18.800781 L 31.550781 18.789062 L 31.550781 18.71875 C 31.53125 18.707031 31.492188 18.691406 31.484375 18.675781 C 31.445312 18.574219 31.445312 18.390625 31.472656 18.285156 C 31.484375 18.226562 31.550781 18.136719 31.5625 18.070312 C 31.574219 18 31.550781 17.882812 31.574219 17.824219 L 31.601562 17.855469 C 31.609375 17.757812 31.609375 17.628906 31.605469 17.53125 C 31.589844 17.027344 31.632812 16.5 31.601562 16 C 31.585938 15.707031 31.601562 15.28125 31.601562 14.980469 L 31.597656 12.347656 L 31.589844 4.660156 L 31.585938 2.390625 C 31.582031 2.125 31.59375 1.84375 31.585938 1.578125 C 31.585938 1.542969 31.542969 1.5 31.53125 1.476562 C 31.507812 1.4375 31.234375 1.152344 31.207031 1.144531 C 31.082031 1.125 30.792969 1.132812 30.664062 1.132812 L 29.640625 1.136719 C 29.402344 1.136719 29.128906 1.148438 28.890625 1.113281 C 29.023438 1.113281 30 1.125 30.042969 1.097656 Z M 30.042969 1.097656 "/>
<path style=" stroke:none;fill-rule:nonzero;fill:rgb(99.215686%,98.823529%,99.215686%);fill-opacity:1;" d="M 13.65625 14.328125 C 15.648438 14.316406 17.640625 14.316406 19.628906 14.328125 L 21.339844 14.328125 C 21.640625 14.328125 21.941406 14.324219 22.242188 14.34375 C 22.328125 14.347656 22.453125 14.417969 22.515625 14.472656 C 22.972656 14.859375 22.796875 15.625 22.160156 15.679688 L 16.371094 15.683594 L 14.5625 15.683594 C 14.273438 15.683594 13.867188 15.703125 13.585938 15.679688 C 12.800781 15.605469 12.746094 14.390625 13.65625 14.328125 Z M 13.65625 14.328125 "/>
<path style=" stroke:none;fill-rule:nonzero;fill:rgb(99.215686%,98.823529%,99.215686%);fill-opacity:1;" d="M 13.648438 7.292969 C 14.195312 7.285156 14.765625 7.296875 15.316406 7.296875 L 19.167969 7.292969 L 21.058594 7.296875 C 21.324219 7.296875 22.160156 7.261719 22.375 7.339844 C 22.964844 7.5625 22.898438 8.589844 22.160156 8.636719 L 16.214844 8.636719 L 14.574219 8.640625 C 14.257812 8.640625 13.9375 8.648438 13.621094 8.632812 C 12.785156 8.597656 12.753906 7.34375 13.648438 7.292969 Z M 13.648438 7.292969 "/>
<path style=" stroke:none;fill-rule:nonzero;fill:rgb(99.215686%,98.823529%,99.215686%);fill-opacity:1;" d="M 13.589844 10.800781 C 14.019531 10.78125 14.582031 10.800781 15.015625 10.796875 L 20.664062 10.796875 C 21.121094 10.796875 21.578125 10.796875 22.03125 10.800781 C 22.226562 10.800781 22.316406 10.808594 22.472656 10.917969 C 22.976562 11.261719 22.820312 12.046875 22.199219 12.136719 L 14.535156 12.136719 C 14.277344 12.136719 13.46875 12.1875 13.285156 12.039062 C 12.804688 11.65625 12.917969 10.917969 13.589844 10.800781 Z M 13.589844 10.800781 "/>
<path style=" stroke:none;fill-rule:nonzero;fill:rgb(99.215686%,98.823529%,99.215686%);fill-opacity:1;" d="M 9.96875 13.714844 C 10.25 13.703125 10.542969 13.71875 10.824219 13.710938 C 11.195312 13.699219 11.992188 13.628906 12.027344 14.183594 C 12.0625 14.746094 12.050781 15.378906 12.023438 15.945312 C 12.011719 16.167969 11.6875 16.316406 11.492188 16.339844 L 10.460938 16.34375 C 10.035156 16.34375 9.402344 16.417969 9.382812 15.792969 C 9.367188 15.242188 9.351562 14.660156 9.398438 14.117188 C 9.421875 13.882812 9.753906 13.730469 9.96875 13.714844 Z M 9.96875 13.714844 "/>
<path style=" stroke:none;fill-rule:nonzero;fill:rgb(99.215686%,98.823529%,99.215686%);fill-opacity:1;" d="M 9.828125 6.679688 C 10.148438 6.664062 10.472656 6.675781 10.796875 6.675781 C 11.023438 6.675781 11.265625 6.65625 11.492188 6.679688 C 11.570312 6.6875 11.660156 6.703125 11.730469 6.738281 C 11.859375 6.796875 11.960938 6.917969 12.007812 7.050781 C 12.070312 7.21875 12.074219 8.796875 12.003906 8.941406 C 11.917969 9.121094 11.773438 9.214844 11.585938 9.28125 C 11.332031 9.316406 11.046875 9.296875 10.789062 9.296875 C 10.511719 9.296875 10.222656 9.3125 9.945312 9.289062 C 9.867188 9.285156 9.789062 9.269531 9.714844 9.242188 C 9.59375 9.195312 9.472656 9.078125 9.417969 8.953125 C 9.335938 8.761719 9.34375 7.195312 9.425781 7.003906 C 9.5 6.835938 9.664062 6.738281 9.828125 6.679688 Z M 9.828125 6.679688 "/>
<path style=" stroke:none;fill-rule:nonzero;fill:rgb(99.215686%,98.823529%,99.215686%);fill-opacity:1;" d="M 9.851562 10.191406 C 10.195312 10.179688 10.546875 10.183594 10.890625 10.183594 C 11.46875 10.183594 12.054688 10.089844 12.042969 10.871094 C 12.035156 11.359375 12.054688 11.867188 12.039062 12.355469 C 12.035156 12.398438 11.992188 12.480469 11.96875 12.519531 C 11.875 12.660156 11.730469 12.757812 11.566406 12.789062 C 11.261719 12.800781 9.882812 12.847656 9.671875 12.734375 C 9.550781 12.675781 9.4375 12.558594 9.402344 12.429688 C 9.347656 12.242188 9.359375 10.933594 9.386719 10.691406 C 9.394531 10.617188 9.40625 10.550781 9.445312 10.484375 C 9.53125 10.335938 9.6875 10.234375 9.851562 10.191406 Z M 9.851562 10.191406 "/>
</g>
</svg>
