<?xml version="1.0" encoding="utf-8" ?><svg xmlns="http://www.w3.org/2000/svg" xmlns:xlink="http://www.w3.org/1999/xlink" width="1034" height="890" viewBox="0 0 1034 890"><clipPath id="cl_29"><rect x="0.00038146973" y="3.0517578e-05" width="1034.3323" height="890.18799"/></clipPath><g clip-path="url(#cl_29)"><defs><linearGradient id="gradient_0" gradientUnits="userSpaceOnUse" x1="259.04407" y1="402.57706" x2="718.80267" y2="854.05896"><stop offset="0" stop-color="#FF8722"/><stop offset="1" stop-color="#FD4A69"/></linearGradient></defs><path fill="url(#gradient_0)" transform="matrix(0.973947 0 0 0.973947 -140.248 -147.066)" d="M580.857 281.222C601.228 280.321 616.8 292.74 618.856 313.568C619.714 322.266 619.107 332.295 619.102 341.145L619.124 392.706L619.089 567.228L619.089 819.243L619.149 902.565C619.16 916.761 619.314 931.201 619.053 945.383C618.858 953.563 615.746 960.471 610.723 966.708C599.527 980.612 580.087 982.738 565.279 973.619C557.059 968.557 549.048 961.252 541.514 954.968L503.882 923.458L370.75 812.001C363.081 805.938 354.393 798.105 346.75 791.719C313.253 790.594 279.061 792.102 245.283 791.527C216.05 791.03 185.186 797.69 169.826 765.1C166.299 757.616 165.405 750.513 165.461 742.339C165.575 689.026 165.475 635.711 165.474 582.398L165.484 534.778C165.499 514.804 163.699 498.095 179.005 482.556C184.991 476.597 192.589 472.518 200.864 470.822C210.441 468.853 239.398 469.713 250.492 469.717L346.473 469.622C391.9 430.322 439.715 390.983 485.749 352.087L536.259 309.619C549.962 298.14 562.787 283.909 580.857 281.222Z"/><defs><linearGradient id="gradient_1" gradientUnits="userSpaceOnUse" x1="719.4295" y1="413.39774" x2="1148.4103" y2="836.64697"><stop offset="0" stop-color="#FD5D46"/><stop offset="1" stop-color="#F9368E"/></linearGradient></defs><path fill="url(#gradient_1)" transform="matrix(0.973947 0 0 0.973947 -140.248 -147.066)" d="M928.743 210.186C945.823 208.445 956.314 215.943 967.776 227.72C974.814 234.952 981.097 241.938 987.633 249.665C1038.02 308.358 1075.66 376.878 1098.18 450.884C1144.03 600.537 1128.47 762.282 1054.93 900.45C1033.14 940.845 1006.74 978.572 976.249 1012.87C965.508 1024.81 957.419 1035.23 941.597 1040.06C909.854 1045.63 885.612 1013.48 903.424 985.33C909.631 975.519 924.088 962.264 932.134 952.702C946.325 935.695 959.401 917.789 971.282 899.095C1090.72 712.617 1071.19 458.771 926.804 293.538C919.901 285.639 910.287 276.77 904.523 268.478C901.505 264.106 899.382 259.179 898.278 253.982C893.709 232.253 907.524 214.348 928.743 210.186Z"/><defs><linearGradient id="gradient_2" gradientUnits="userSpaceOnUse" x1="678.45837" y1="450.77609" x2="988.57544" y2="804.76251"><stop offset="0" stop-color="#FD6442"/><stop offset="1" stop-color="#FC447A"/></linearGradient></defs><path fill="url(#gradient_2)" transform="matrix(0.973947 0 0 0.973947 -140.248 -147.066)" d="M828.499 325.914C852.816 323.362 866.521 342.853 880.193 359.92C920.335 410.223 948.214 469.181 961.622 532.126C986.566 647.949 964.265 768.938 899.666 868.257C888.757 884.962 870.967 910.014 855.584 923.176C851.401 926.755 844.38 928.963 838.984 930.093C830.643 931.649 820.894 929.444 813.832 924.854C805.537 919.369 799.789 910.787 797.873 901.029C793.865 879.722 808.533 867.8 820.364 852.882C911.031 738.569 923.587 572.524 849.657 446.598C841.065 431.787 831.429 417.608 820.824 404.165C815.276 397.032 808.753 390.289 803.757 382.838C788.3 359.782 801.858 330.886 828.499 325.914Z"/><defs><linearGradient id="gradient_3" gradientUnits="userSpaceOnUse" x1="637.75702" y1="514.1521" x2="837.41437" y2="742.18384"><stop offset="0" stop-color="#FE6641"/><stop offset="1" stop-color="#FE5263"/></linearGradient></defs><path fill="url(#gradient_3)" transform="matrix(0.973947 0 0 0.973947 -140.248 -147.066)" d="M735.806 437.395C756.602 436.97 765.494 448.623 776.636 464.237C800.278 497.972 816.11 536.549 822.981 577.167C835.834 654.669 817.589 734.112 772.21 798.239C763.743 810.181 756.968 816.865 741.965 819.423C732.752 820.155 724.174 818.051 716.635 812.636C710.824 808.481 706.399 802.672 703.937 795.966C696.953 777.013 708.066 762.376 718.254 747.962C721.731 743.042 727.156 732.837 729.896 727.297C739.636 707.534 746.527 686.491 750.362 664.794C759.558 612.894 749.384 559.424 721.769 514.528C709.185 494.15 690.784 477.415 709.171 451.637C715.988 442.08 724.648 438.945 735.806 437.395Z"/></g></svg>