<?xml version="1.0" encoding="utf-8" ?><svg xmlns="http://www.w3.org/2000/svg" xmlns:xlink="http://www.w3.org/1999/xlink" width="721" height="519" viewBox="0 0 721 519"><clipPath id="cl_7"><rect width="721" height="519"/></clipPath><g clip-path="url(#cl_7)"><path fill="#FEFEFE" transform="translate(-265 -366)" d="M458.668 785.192C480.502 784.392 506.542 785.242 528.765 785.223L679.352 785.172L875.82 785.144C902.333 785.225 928.915 785.097 955.389 785.272C977.597 784.746 979.403 798.845 978.503 817.092C977.663 834.118 983.058 849.773 959.765 853.513C938.633 854.088 913.745 853.51 892.43 853.537L728.774 853.6L552.361 853.499L493.884 853.497C485.062 853.512 456.194 854.907 448.221 850.984C437.619 845.767 439.281 826.293 439.201 815.815C439.078 799.751 439.122 787.66 458.668 785.192Z"/><path fill="#FEFEFE" transform="translate(-265 -366)" d="M464.403 398.888L802.032 398.879L898.671 398.879C917.603 398.839 936.641 398.836 955.525 398.944C976.29 399.063 979.442 410.243 978.534 428.505C977.683 445.64 983.507 463.225 960.613 467.142L626.005 467.251L515.742 467.259C496.269 467.285 476.756 467.456 457.292 467.084C447.726 467.39 438.676 456.846 439.292 447.233C440.048 435.427 436 414.351 444.441 404.68C449.347 399.058 457.729 399.04 464.403 398.888Z"/><path fill="#FEFEFE" transform="translate(-265 -366)" d="M456.772 592.276C461.041 591.742 470.328 591.973 474.933 591.985L507.94 592.039L622.406 592.011L844.337 592.015C881.594 592.013 921.825 591.288 958.881 592.089C962.066 592.178 965.201 592.911 968.095 594.246C981.136 600.372 978.523 616.388 978.542 628.21C978.55 632.874 978.871 639.425 978.315 643.9C978.016 646.418 977.198 648.847 975.911 651.033C972.574 656.689 967.781 658.621 961.87 660.114C927.839 660.71 892.076 660.171 857.863 660.168L668.166 660.201L530.829 660.154C507.689 660.151 484.366 660.185 461.338 660.084C435.965 659.972 439.441 641.051 439.235 622.691C439.068 607.895 438.609 595.063 456.772 592.276Z"/><path fill="#FEFEFE" transform="translate(-265 -366)" d="M275.361 572.82L384.601 572.687L384.58 679.106L384.302 679.881C382.143 680.385 362.152 679.674 358.163 679.667L274.834 679.81C275.174 659.458 274.188 638.458 274.916 618.137C275.303 607.332 272.878 582.472 275.361 572.82Z"/><path fill="#FEFEFE" transform="translate(-265 -366)" d="M274.58 765.96C310.894 766.447 348.32 766.011 384.705 765.959C384.122 796.987 384.821 828.149 384.61 859.19C384.579 863.787 384.834 868.507 384.365 873.074C348.172 872.462 310.978 872.975 274.695 873.089C274.52 837.471 275.233 801.627 274.58 765.96Z"/><path fill="#FEFEFE" transform="translate(-265 -366)" d="M274.466 380.136C283.231 379.542 296.609 380.179 305.797 380.063C331.987 379.733 358.734 380.695 384.901 379.871C384.268 392.263 384.589 406.712 384.579 419.279L384.548 486.802C349.656 485.822 310.102 486.666 274.765 486.801C275.043 451.246 274.943 415.689 274.466 380.136Z"/></g></svg>