<?xml version="1.0" encoding="utf-8" ?><svg xmlns="http://www.w3.org/2000/svg" xmlns:xlink="http://www.w3.org/1999/xlink" width="846" height="594" viewBox="0 0 846 594"><clipPath id="cl_2d"><rect x="6.1035156e-05" y="-9.1552734e-05" width="846.36029" height="594.10791"/></clipPath><g clip-path="url(#cl_2d)"><defs><linearGradient id="gradient_0" gradientUnits="userSpaceOnUse" x1="582.09363" y1="592.97571" x2="989.38733" y2="600.91711"><stop offset="0" stop-color="#F95D3F"/><stop offset="1" stop-color="#EA0B6C"/></linearGradient></defs><path fill="url(#gradient_0)" transform="matrix(0.973947 0 0 0.973947 -213.294 -280.497)" d="M916.187 397.827C904.795 384.559 890.644 373.211 880.643 358.891C867.018 339.384 892.996 316.49 910.491 330.022C921.716 338.704 933.273 352.352 943.306 362.903C951.883 371.886 960.375 380.951 968.782 390.094C971.454 392.991 974.791 396.999 977.539 399.598C1002.26 422.98 975.685 440.703 959.389 457.606C948.841 468.749 938.205 479.807 927.481 490.781C922.418 495.962 911.308 508.532 904.743 510.31C883.722 516 867.93 494.445 882.261 476.125C892.05 463.61 904.176 453.38 914.408 441.446C893.921 441.116 873.43 440.952 852.94 440.954C837.174 440.859 819.754 440.182 804.364 442.196C742.762 450.255 708.913 500.058 677.493 547.644C666.07 564.945 653.789 581.22 642.763 599.193C657.712 621.156 673.058 645.346 687.796 667.621C716.406 710.863 743.029 747.814 798.09 758.3C815.636 761.642 830.334 760.56 848.001 760.714C870.608 760.911 893.708 760.242 916.278 760.795C906.801 749.812 895.709 739.795 885.922 728.906C876.678 718.62 871.793 705.132 884.103 694.557C888.914 690.489 895.186 688.576 901.449 689.268C904.271 689.604 906.699 690.367 908.899 692.207C925.158 705.808 939.632 722.248 954.242 737.544C963.406 747.138 973.251 756.46 981.681 766.562C985.312 770.913 988.463 779.79 987.404 785.247C986.602 789.379 984.479 794.474 981.682 797.736C973.7 807.048 964.064 815.64 955.387 824.34L929.669 850.331C916.877 863.26 897.289 887.449 879.257 861.331C870.068 848.022 884.218 833.87 893.073 825.182C899.479 818.989 907.438 809.74 914.263 804.247C878.12 802.475 841.313 805.646 805.623 803.067C736.778 798.092 687.5 748.917 653.701 693.043C642.872 675.388 629.033 655.269 617.155 637.745C608.631 649.255 601.242 663.073 593.425 673.528L592.471 672.858C591.96 669.576 594.246 671.133 594.081 667.372C592.155 667.118 591.695 669.29 588.159 670.312C580.485 665.635 589.525 632.413 588.759 629.941L586.823 630.099C585.96 627.754 588.702 625.771 588.146 622.995C586.983 624.111 587.287 624.052 585.914 624.7C584.804 621.844 583.029 617.202 585.485 614.521C586.098 616.011 585.899 616.385 586.842 616.91C587.525 614.304 586.511 610.54 586.732 606.643C587.83 604.642 590.162 601.409 591.509 599.41C588.134 594.45 584.861 589.421 581.693 584.328C582.393 582.957 581.923 583.566 583.129 582.523L585.031 585.478L586.143 585.476C586.076 581.654 586.113 585.504 588.084 582.924C588.884 574.246 584.172 559.786 586.565 549.367C587.609 544.821 589.93 535.759 589.142 531.675C588.644 529.095 587.329 529.629 588.372 525.889C589.816 524.503 589.826 524.289 591.79 523.735C599.475 534.907 609.486 550.751 617.351 561.059C626.764 546.975 637.803 531.683 646.832 517.949C682.769 463.286 719.346 415.235 787.638 401.423C810.834 396.731 830.601 397.739 854.148 397.74L916.187 397.827Z"/><defs><linearGradient id="gradient_1" gradientUnits="userSpaceOnUse" x1="268.7634" y1="713.76807" x2="595.14264" y2="702.55896"><stop offset="0" stop-color="#FF971A"/><stop offset="1" stop-color="#F85941"/></linearGradient></defs><path fill="url(#gradient_1)" transform="matrix(0.973947 0 0 0.973947 -213.294 -280.497)" d="M593.425 673.528C592.335 675.672 590.336 678.52 588.981 680.593C574.156 703.271 558.937 726.879 540.302 746.624C507.155 781.746 463.3 803.971 414.405 803.863C372.87 803.772 331.743 804.393 290.232 803.536C273.829 803.951 264.746 783.448 273.072 770.538C281.78 757.038 308.494 760.427 322.373 760.49L386.42 760.58C403.47 760.561 420.523 761.456 437.204 758.197C480.405 749.756 510.473 720.725 534.484 685.562C552.237 659.566 569.112 632.803 586.732 606.643C586.511 610.54 587.525 614.304 586.842 616.91C585.899 616.385 586.098 616.011 585.485 614.521C583.029 617.202 584.804 621.844 585.914 624.7C587.287 624.052 586.983 624.111 588.146 622.995C588.702 625.771 585.96 627.754 586.823 630.099L588.759 629.941C589.525 632.413 580.485 665.635 588.159 670.312C591.695 669.29 592.155 667.118 594.081 667.372C594.246 671.133 591.96 669.576 592.471 672.858L593.425 673.528Z"/><defs><linearGradient id="gradient_2" gradientUnits="userSpaceOnUse" x1="267.52756" y1="477.96634" x2="592.9281" y2="497.44189"><stop offset="0" stop-color="#FF9819"/><stop offset="1" stop-color="#F85A40"/></linearGradient></defs><path fill="url(#gradient_2)" transform="matrix(0.973947 0 0 0.973947 -213.294 -280.497)" d="M581.693 584.328C578.661 581.507 568.29 564.607 565.205 560.27C531.232 512.513 501.014 454.526 437.33 443.616C421.018 440.821 406.408 440.851 390.007 440.852C370.484 440.774 350.96 440.932 331.441 441.326C318.336 441.481 304.455 441.889 291.429 440.821C284.619 440.262 278.725 438.424 274.363 432.735C270.849 428.09 269.379 422.213 270.292 416.46C271.82 406.702 280.159 398.525 290.075 398.048C307.13 397.228 325.657 397.102 342.704 397.486C391.225 398.577 442.465 391.338 486.972 415.365C536.831 440.704 561.059 479.528 591.79 523.735C589.826 524.289 589.816 524.503 588.372 525.889C587.329 529.629 588.644 529.095 589.142 531.675C589.93 535.759 587.609 544.821 586.565 549.367C584.172 559.786 588.884 574.246 588.084 582.924C586.113 585.504 586.076 581.654 586.143 585.476L585.031 585.478L583.129 582.523C581.923 583.566 582.393 582.957 581.693 584.328Z"/></g></svg>