<?xml version="1.0" encoding="UTF-8"?>
<svg xmlns="http://www.w3.org/2000/svg" xmlns:xlink="http://www.w3.org/1999/xlink" width="36px" height="36px" viewBox="0 0 36 36" version="1.1">
<defs>
<linearGradient id="linear0" gradientUnits="userSpaceOnUse" x1="672.305969" y1="550.176208" x2="861.90387" y2="801.604065" gradientTransform="matrix(0.0287081,0,0,0.0287081,0,0)">
<stop offset="0" style="stop-color:rgb(99.607843%,30.196078%,19.607843%);stop-opacity:1;"/>
<stop offset="1" style="stop-color:rgb(96.470588%,5.882353%,40.784314%);stop-opacity:1;"/>
</linearGradient>
<linearGradient id="linear1" gradientUnits="userSpaceOnUse" x1="628.496277" y1="466.062561" x2="688.357605" y2="550.82959" gradientTransform="matrix(0.0287081,0,0,0.0287081,0,0)">
<stop offset="0" style="stop-color:rgb(99.607843%,40.392157%,14.509804%);stop-opacity:1;"/>
<stop offset="1" style="stop-color:rgb(99.215686%,29.411765%,20.392157%);stop-opacity:1;"/>
</linearGradient>
<linearGradient id="linear2" gradientUnits="userSpaceOnUse" x1="323.01004" y1="502.959473" x2="545.706421" y2="751.299377" gradientTransform="matrix(0.0287081,0,0,0.0287081,0,0)">
<stop offset="0" style="stop-color:rgb(100%,50.588235%,9.019608%);stop-opacity:1;"/>
<stop offset="1" style="stop-color:rgb(99.215686%,20.784314%,25.882353%);stop-opacity:1;"/>
</linearGradient>
</defs>
<g id="surface1">
<path style=" stroke:none;fill-rule:nonzero;fill:url(#linear0);" d="M 15.105469 18.988281 C 14.988281 18.921875 14.820312 18.777344 14.722656 18.6875 C 13.953125 17.96875 13.921875 16.769531 14.671875 16.023438 C 14.886719 15.808594 15.160156 15.621094 15.40625 15.4375 L 16.703125 14.460938 C 17.832031 13.605469 18.96875 12.757812 20.113281 11.921875 L 21.117188 11.1875 C 21.300781 11.054688 21.574219 10.84375 21.761719 10.734375 C 21.980469 10.609375 22.226562 10.539062 22.476562 10.539062 C 22.96875 10.535156 23.398438 10.785156 23.621094 11.226562 C 23.78125 11.550781 23.75 11.882812 23.746094 12.234375 L 23.742188 13.054688 L 23.726562 20.230469 L 23.730469 22.355469 C 23.730469 22.976562 23.84375 23.617188 23.367188 24.097656 C 23.140625 24.328125 22.828125 24.460938 22.503906 24.464844 C 22.269531 24.464844 21.972656 24.386719 21.78125 24.246094 C 21.449219 24.003906 21.101562 23.710938 20.78125 23.449219 C 20.210938 22.980469 19.636719 22.515625 19.054688 22.054688 C 18.207031 21.382812 17.351562 20.714844 16.492188 20.054688 C 16.101562 19.757812 15.449219 19.292969 15.105469 18.988281 Z M 15.105469 18.988281 "/>
<path style=" stroke:none;fill-rule:nonzero;fill:url(#linear1);" d="M 15.105469 18.988281 C 14.988281 18.921875 14.820312 18.777344 14.722656 18.6875 C 13.953125 17.96875 13.921875 16.769531 14.671875 16.023438 C 14.886719 15.808594 15.160156 15.621094 15.40625 15.4375 L 16.703125 14.460938 C 17.832031 13.605469 18.96875 12.757812 20.113281 11.921875 L 21.117188 11.1875 C 21.300781 11.054688 21.574219 10.84375 21.761719 10.734375 C 21.980469 10.609375 22.226562 10.539062 22.476562 10.539062 C 22.96875 10.535156 23.398438 10.785156 23.621094 11.226562 C 23.78125 11.550781 23.75 11.882812 23.746094 12.234375 L 23.742188 13.054688 C 23.726562 12.992188 23.660156 12.859375 23.609375 12.828125 C 23.601562 12.835938 23.597656 12.839844 23.59375 12.847656 C 23.296875 13.132812 22.867188 13.261719 22.527344 13.472656 C 22.429688 13.53125 22.214844 13.726562 22.144531 13.808594 C 22.011719 13.957031 21.980469 14.097656 21.777344 14.199219 C 21.679688 14.25 21.613281 14.25 21.511719 14.285156 C 21.484375 14.324219 21.40625 14.429688 21.375 14.453125 C 21.167969 14.617188 21.035156 14.632812 20.964844 14.914062 C 20.917969 14.925781 20.703125 14.988281 20.691406 15.007812 C 20.550781 15.207031 20.390625 15.265625 20.183594 15.367188 C 20.148438 15.386719 20.0625 15.503906 20.023438 15.53125 C 19.714844 15.710938 19.457031 15.933594 19.125 16.078125 C 19.011719 16.308594 18.917969 16.296875 18.695312 16.402344 C 18.585938 16.441406 18.28125 16.773438 18.207031 16.800781 C 17.867188 16.925781 17.628906 17.222656 17.328125 17.390625 C 17.019531 17.566406 16.855469 17.660156 16.632812 17.960938 C 16.589844 18.019531 16.449219 18.011719 16.390625 18.058594 C 16.214844 18.175781 16.046875 18.277344 15.898438 18.429688 L 15.878906 18.398438 C 15.699219 18.542969 15.683594 18.675781 15.472656 18.726562 C 15.476562 18.769531 15.476562 18.769531 15.492188 18.8125 C 15.363281 18.929688 15.304688 18.980469 15.121094 18.964844 Z M 15.105469 18.988281 "/>
<path style=" stroke:none;fill-rule:nonzero;fill:url(#linear2);" d="M 10.851562 13.4375 C 10.84375 13.328125 10.839844 13.121094 10.847656 13.015625 C 10.878906 12.546875 10.769531 11.792969 10.917969 11.363281 C 11.019531 11.058594 11.242188 10.808594 11.53125 10.667969 C 11.835938 10.519531 12.183594 10.503906 12.5 10.617188 C 12.867188 10.75 13.074219 10.988281 13.230469 11.335938 C 13.339844 11.675781 13.304688 12.074219 13.304688 12.433594 L 13.304688 21.570312 C 13.304688 22.152344 13.304688 22.742188 13.300781 23.324219 C 13.300781 23.425781 13.21875 23.667969 13.171875 23.761719 C 13.023438 24.058594 12.761719 24.28125 12.445312 24.378906 C 12.125 24.480469 11.78125 24.445312 11.488281 24.28125 C 11.203125 24.125 10.992188 23.859375 10.902344 23.542969 C 10.820312 23.253906 10.847656 22.550781 10.847656 22.214844 L 10.851562 20.292969 L 10.847656 15.777344 C 10.847656 15.003906 10.839844 14.210938 10.851562 13.4375 Z M 10.851562 13.4375 "/>
<path style=" stroke:none;fill-rule:nonzero;fill:rgb(99.607843%,52.156866%,9.019608%);fill-opacity:1;" d="M 10.851562 13.4375 C 10.84375 13.328125 10.839844 13.121094 10.847656 13.015625 C 10.878906 12.546875 10.769531 11.792969 10.917969 11.363281 C 11.019531 11.058594 11.242188 10.808594 11.53125 10.667969 C 11.835938 10.519531 12.183594 10.503906 12.5 10.617188 C 12.867188 10.75 13.074219 10.988281 13.230469 11.335938 C 13.148438 11.628906 12.796875 11.402344 12.585938 11.503906 C 12.378906 11.601562 12.257812 11.890625 12.101562 12.054688 C 12.003906 12.160156 11.734375 12.324219 11.695312 12.441406 C 11.625 12.632812 11.390625 12.847656 11.246094 13.039062 L 11.164062 13.027344 C 11.125 13.0625 11.074219 13.21875 11.058594 13.273438 C 10.988281 13.28125 10.941406 13.167969 10.917969 13.113281 L 10.90625 13.121094 C 10.871094 13.222656 10.875 13.480469 10.878906 13.589844 C 10.871094 13.535156 10.867188 13.488281 10.851562 13.4375 Z M 10.851562 13.4375 "/>
</g>
</svg>
