<?xml version="1.0" encoding="UTF-8"?>
<svg xmlns="http://www.w3.org/2000/svg" xmlns:xlink="http://www.w3.org/1999/xlink" width="32px" height="32px" viewBox="0 0 32 23" version="1.1">
<g id="surface1">
<path style=" stroke:none;fill-rule:nonzero;fill:rgb(99.215686%,21.176471%,40.784314%);fill-opacity:1;" d="M 0 0.863281 C 0.792969 0.878906 1.609375 0.867188 2.402344 0.867188 L 5.808594 0.867188 L 18.484375 0.871094 L 22.410156 0.875 L 23.8125 0.875 C 24.5 0.871094 24.972656 0.882812 25.660156 1.019531 C 26.8125 1.257812 27.859375 1.839844 28.664062 2.691406 C 29.335938 3.382812 29.769531 4.242188 30.007812 5.175781 C 30.246094 6.113281 30.199219 6.960938 30.203125 7.917969 L 30.207031 10.558594 L 30.207031 14.421875 C 30.207031 15.253906 30.238281 16.097656 30.15625 16.921875 C 30.144531 17.074219 30.140625 17.21875 30.113281 17.375 C 29.917969 18.617188 29.3125 19.761719 28.390625 20.625 C 26.492188 22.417969 24.28125 22.195312 21.886719 22.195312 L 5.300781 22.195312 L 1.648438 22.199219 C 1.132812 22.199219 0.589844 22.207031 0.0820312 22.195312 C 0.0546875 22.195312 0.0273438 22.195312 0 22.191406 Z M 0 0.863281 "/>
<path style=" stroke:none;fill-rule:nonzero;fill:rgb(99.215686%,40.000001%,57.647061%);fill-opacity:1;" d="M 0 0.863281 C 0.792969 0.878906 1.609375 0.867188 2.402344 0.867188 L 5.808594 0.867188 L 18.484375 0.871094 L 22.410156 0.875 L 23.8125 0.875 C 24.5 0.871094 24.972656 0.882812 25.660156 1.019531 C 26.8125 1.257812 27.859375 1.839844 28.664062 2.691406 C 29.335938 3.382812 29.769531 4.242188 30.007812 5.175781 C 30.246094 6.113281 30.199219 6.960938 30.203125 7.917969 L 30.207031 10.558594 L 30.207031 14.421875 C 30.207031 15.253906 30.238281 16.097656 30.15625 16.921875 C 30.144531 17.074219 30.140625 17.21875 30.113281 17.375 C 29.917969 18.617188 29.3125 19.761719 28.390625 20.625 C 26.492188 22.417969 24.28125 22.195312 21.886719 22.195312 L 5.300781 22.195312 L 1.648438 22.199219 C 1.132812 22.199219 0.589844 22.207031 0.0820312 22.195312 C 0.0546875 22.195312 0.0273438 22.195312 0 22.191406 L 0 21.640625 C 0.128906 21.617188 0.5 21.621094 0.640625 21.617188 C 1.113281 21.609375 1.585938 21.605469 2.058594 21.605469 L 6.746094 21.621094 L 17.078125 21.613281 L 22.269531 21.609375 C 22.875 21.605469 23.472656 21.613281 24.078125 21.613281 C 24.8125 21.609375 25.617188 21.425781 26.300781 21.167969 C 26.464844 21.105469 26.789062 20.902344 26.957031 20.8125 C 27.308594 20.613281 27.8125 20.285156 28.082031 19.984375 C 28.261719 19.78125 28.632812 19.300781 28.777344 19.074219 C 29.03125 18.679688 29.34375 17.972656 29.445312 17.511719 C 29.59375 16.863281 29.574219 16.035156 29.582031 15.363281 C 29.59375 14.378906 29.589844 13.390625 29.570312 12.40625 C 29.5625 11.882812 29.578125 11.347656 29.578125 10.820312 L 29.527344 6.980469 C 29.523438 6.722656 29.511719 6.066406 29.476562 5.824219 C 29.320312 4.738281 28.792969 3.742188 28.011719 2.972656 C 27.753906 2.71875 27.605469 2.671875 27.328125 2.492188 C 26.578125 1.992188 25.855469 1.65625 24.957031 1.507812 C 24.523438 1.4375 23.953125 1.460938 23.5 1.457031 C 22.777344 1.449219 22.050781 1.453125 21.324219 1.46875 C 20.800781 1.476562 20.261719 1.445312 19.738281 1.449219 C 19.011719 1.449219 18.285156 1.472656 17.5625 1.472656 L 6.089844 1.460938 L 2.199219 1.449219 C 1.453125 1.453125 0.742188 1.476562 0 1.492188 Z M 0 0.863281 "/>
<path style=" stroke:none;fill-rule:nonzero;fill:rgb(99.215686%,21.176471%,40.784314%);fill-opacity:1;" d="M 0 0.863281 C 0.792969 0.878906 1.609375 0.867188 2.402344 0.867188 L 5.808594 0.867188 L 18.484375 0.871094 L 22.410156 0.875 L 23.8125 0.875 C 24.5 0.871094 24.972656 0.882812 25.660156 1.019531 C 26.8125 1.257812 27.859375 1.839844 28.664062 2.691406 C 29.335938 3.382812 29.769531 4.242188 30.007812 5.175781 C 30.246094 6.113281 30.199219 6.960938 30.203125 7.917969 L 30.207031 10.558594 L 30.207031 14.421875 C 30.207031 15.253906 30.238281 16.097656 30.15625 16.921875 C 30.144531 17.074219 30.140625 17.21875 30.113281 17.375 C 29.917969 18.617188 29.3125 19.761719 28.390625 20.625 C 26.492188 22.417969 24.28125 22.195312 21.886719 22.195312 L 5.300781 22.195312 L 1.648438 22.199219 C 1.132812 22.199219 0.589844 22.207031 0.0820312 22.195312 C 0.0546875 22.195312 0.0273438 22.195312 0 22.191406 L 0 21.921875 C 0.0546875 21.925781 0.109375 21.929688 0.164062 21.929688 C 0.621094 21.941406 1.09375 21.925781 1.550781 21.921875 L 15.273438 21.921875 L 22.054688 21.917969 L 23.601562 21.917969 C 24.195312 21.921875 24.648438 21.929688 25.242188 21.832031 C 26.351562 21.65625 27.417969 21.148438 28.234375 20.382812 C 29.355469 19.335938 29.917969 17.800781 29.9375 16.289062 C 29.949219 15.515625 29.9375 14.714844 29.933594 13.929688 L 29.941406 10.0625 L 29.941406 7.882812 C 29.941406 7.140625 29.964844 6.324219 29.824219 5.59375 C 29.617188 4.53125 29.175781 3.589844 28.417969 2.804688 C 27.566406 1.925781 26.472656 1.402344 25.265625 1.207031 C 24.265625 1.042969 23.082031 1.09375 22.050781 1.09375 L 17.835938 1.097656 L 6.15625 1.09375 L 1.894531 1.09375 C 1.277344 1.09375 0.609375 1.113281 0 1.105469 Z M 0 0.863281 "/>
<path style=" stroke:none;fill-rule:nonzero;fill:rgb(99.215686%,98.431373%,98.431373%);fill-opacity:1;" d="M 12.082031 6.679688 C 12.292969 6.65625 12.773438 6.671875 13.007812 6.671875 L 14.871094 6.671875 L 16.8125 6.667969 C 17.402344 6.667969 18.410156 6.53125 18.59375 7.222656 C 18.679688 7.542969 18.636719 8.367188 18.636719 8.738281 L 18.636719 13.957031 C 18.636719 14.484375 18.640625 15.007812 18.628906 15.535156 C 18.617188 16.027344 18.402344 16.261719 17.941406 16.394531 C 17.613281 16.425781 17.253906 16.410156 16.921875 16.40625 L 15.5 16.40625 L 13.503906 16.402344 C 13.066406 16.40625 12.621094 16.417969 12.183594 16.40625 C 12.058594 16.402344 11.960938 16.378906 11.847656 16.320312 C 11.648438 16.214844 11.5 16.035156 11.433594 15.820312 C 11.386719 15.664062 11.398438 14.902344 11.398438 14.6875 L 11.398438 12.78125 L 11.394531 9.28125 C 11.394531 8.6875 11.394531 8.097656 11.402344 7.503906 C 11.410156 7.0625 11.675781 6.800781 12.082031 6.679688 Z M 12.082031 6.679688 "/>
<path style=" stroke:none;fill-rule:nonzero;fill:rgb(99.215686%,98.431373%,98.431373%);fill-opacity:1;" d="M 8.785156 7.792969 C 8.992188 7.785156 9.332031 7.835938 9.550781 7.855469 L 10.894531 7.992188 L 10.894531 15.042969 C 10.628906 15.089844 10.359375 15.125 10.089844 15.152344 C 9.789062 15.199219 9.464844 15.207031 9.171875 15.242188 C 8.015625 15.375 8.125 14.6875 8.117188 13.855469 C 8.113281 13.164062 8.113281 12.46875 8.117188 11.777344 L 8.121094 9.765625 C 8.117188 9.359375 8.113281 8.957031 8.125 8.554688 C 8.132812 8.101562 8.335938 7.855469 8.785156 7.792969 Z M 8.785156 7.792969 "/>
<path style=" stroke:none;fill-rule:nonzero;fill:rgb(99.215686%,98.431373%,98.431373%);fill-opacity:1;" d="M 21.054688 7.792969 C 21.09375 7.789062 21.171875 7.789062 21.210938 7.789062 C 21.390625 7.796875 21.5625 7.878906 21.683594 8.007812 C 21.855469 8.199219 21.863281 8.375 21.863281 8.621094 C 21.863281 8.835938 21.863281 9.050781 21.863281 9.265625 L 21.859375 10.894531 L 21.863281 13.296875 C 21.863281 13.71875 21.871094 14.148438 21.859375 14.566406 C 21.820312 15.550781 20.667969 15.207031 20.058594 15.160156 C 19.800781 15.125 19.398438 15.085938 19.144531 15.070312 L 19.140625 7.996094 C 19.355469 7.996094 19.652344 7.945312 19.871094 7.917969 C 20.265625 7.875 20.660156 7.824219 21.054688 7.792969 Z M 21.054688 7.792969 "/>
<path style=" stroke:none;fill-rule:nonzero;fill:rgb(99.215686%,98.431373%,98.431373%);fill-opacity:1;" d="M 6.539062 8.949219 C 6.855469 8.9375 7.3125 8.929688 7.621094 8.984375 L 7.625 14.082031 C 7.476562 14.09375 7.328125 14.105469 7.175781 14.113281 C 6.453125 14.125 5.984375 14.191406 6.046875 13.304688 C 6.050781 13.25 6.046875 13.179688 6.046875 13.125 L 6.050781 12.152344 L 6.050781 10.410156 C 6.050781 10.089844 6.039062 9.757812 6.054688 9.441406 C 6.070312 9.183594 6.304688 9.003906 6.539062 8.949219 Z M 6.539062 8.949219 "/>
<path style=" stroke:none;fill-rule:nonzero;fill:rgb(99.215686%,98.431373%,98.431373%);fill-opacity:1;" d="M 22.800781 8.953125 C 23.007812 8.945312 23.210938 8.9375 23.417969 8.949219 C 23.667969 8.964844 23.910156 9.179688 23.917969 9.4375 C 23.925781 9.699219 23.921875 9.96875 23.921875 10.230469 L 23.921875 12.945312 C 23.921875 13.179688 23.953125 13.566406 23.882812 13.785156 C 23.832031 13.9375 23.65625 14.042969 23.511719 14.101562 C 23.175781 14.140625 22.710938 14.113281 22.371094 14.074219 C 22.34375 13.53125 22.363281 12.820312 22.363281 12.261719 L 22.363281 8.996094 C 22.488281 8.988281 22.660156 8.960938 22.800781 8.953125 Z M 22.800781 8.953125 "/>
</g>
</svg>
