<?xml version="1.0" encoding="UTF-8"?>
<svg xmlns="http://www.w3.org/2000/svg" xmlns:xlink="http://www.w3.org/1999/xlink" width="36px" height="36px" viewBox="0 0 36 36" version="1.1">
<defs>
<linearGradient id="linear0" gradientUnits="userSpaceOnUse" x1="432.332397" y1="230.314224" x2="416.962524" y2="1117.207397" gradientTransform="matrix(0.0287081,0,0,0.0287081,0,0)">
<stop offset="0" style="stop-color:rgb(98.823529%,33.333333%,10.196078%);stop-opacity:1;"/>
<stop offset="1" style="stop-color:rgb(87.058824%,8.627451%,43.137255%);stop-opacity:1;"/>
</linearGradient>
<linearGradient id="linear1" gradientUnits="userSpaceOnUse" x1="838.184448" y1="237.59491" x2="816.422668" y2="1117.260498" gradientTransform="matrix(0.0287081,0,0,0.0287081,0,0)">
<stop offset="0" style="stop-color:rgb(98.823529%,32.941176%,10.588235%);stop-opacity:1;"/>
<stop offset="1" style="stop-color:rgb(87.058824%,8.627451%,43.137255%);stop-opacity:1;"/>
</linearGradient>
</defs>
<g id="surface1">
<path style=" stroke:none;fill-rule:nonzero;fill:url(#linear0);" d="M 8.175781 6.4375 C 8.167969 5.828125 8.109375 5.238281 8.410156 4.679688 C 8.824219 3.902344 9.492188 3.632812 10.34375 3.625 L 12.804688 3.625 C 13.34375 3.621094 14.320312 3.582031 14.816406 3.707031 C 15.132812 3.792969 15.421875 3.957031 15.65625 4.1875 C 16.308594 4.820312 16.289062 5.652344 16.257812 6.492188 C 16.285156 7.355469 16.257812 8.335938 16.257812 9.210938 L 16.257812 29.855469 C 16.253906 30.914062 15.746094 31.828125 14.65625 32.035156 C 14.125 32.132812 13.371094 32.074219 12.808594 32.082031 C 12 32.09375 11.183594 32.078125 10.371094 32.085938 C 9.765625 32.089844 9.15625 31.925781 8.726562 31.480469 C 8.425781 31.167969 8.234375 30.761719 8.191406 30.328125 C 8.160156 30.058594 8.171875 29.59375 8.171875 29.308594 L 8.175781 27.589844 L 8.171875 21.976562 L 8.175781 11.726562 L 8.171875 8.3125 C 8.171875 7.695312 8.164062 7.050781 8.175781 6.4375 Z M 8.175781 6.4375 "/>
<path style=" stroke:none;fill-rule:nonzero;fill:rgb(99.215686%,39.215687%,5.882353%);fill-opacity:1;" d="M 8.175781 6.4375 C 8.167969 5.828125 8.109375 5.238281 8.410156 4.679688 C 8.824219 3.902344 9.492188 3.632812 10.34375 3.625 L 12.804688 3.625 C 13.34375 3.621094 14.320312 3.582031 14.816406 3.707031 C 15.132812 3.792969 15.421875 3.957031 15.65625 4.1875 C 16.308594 4.820312 16.289062 5.652344 16.257812 6.492188 C 16.214844 6.625 16.25 7.019531 16.207031 7.214844 L 16.191406 7.222656 C 16.175781 7.148438 16.1875 7.121094 16.140625 7.085938 L 16.101562 7.144531 C 15.964844 7.191406 15.992188 7.199219 15.882812 7.265625 C 15.8125 7.265625 15.441406 6.984375 15.324219 6.96875 C 15.234375 6.949219 15.039062 7.113281 14.949219 7.085938 C 14.695312 7.011719 14.765625 6.980469 14.515625 7.125 L 14.503906 7.078125 L 14.476562 7.066406 C 14.367188 7.226562 14.273438 6.972656 14.203125 7.042969 C 14.113281 7.128906 13.4375 7.121094 13.390625 7.082031 C 12.96875 6.714844 12.984375 7.042969 12.691406 7.054688 C 12.628906 7.03125 12.527344 6.972656 12.488281 6.921875 L 12.539062 6.859375 L 12.523438 6.828125 L 12.480469 6.828125 C 12.214844 6.804688 12.253906 6.785156 12.058594 6.964844 C 11.960938 7.042969 11.867188 6.960938 11.769531 6.945312 C 11.648438 6.925781 11.621094 7.105469 11.503906 7.085938 C 11.492188 7.054688 11.484375 7.039062 11.472656 7.011719 C 11.238281 6.980469 11.179688 7.023438 10.976562 7.023438 C 10.675781 7.023438 10.390625 7.042969 10.097656 7.042969 C 9.976562 7.007812 9.894531 7.070312 9.816406 7.082031 C 9.636719 7.113281 9.535156 6.746094 9.304688 6.785156 C 9.082031 6.992188 8.890625 6.878906 8.613281 6.980469 C 8.566406 6.996094 8.554688 6.925781 8.503906 6.917969 C 8.476562 6.96875 8.472656 6.980469 8.433594 7.015625 C 8.300781 6.917969 8.25 6.589844 8.175781 6.4375 Z M 8.175781 6.4375 "/>
<path style=" stroke:none;fill-rule:nonzero;fill:url(#linear1);" d="M 19.742188 6.175781 C 19.722656 5.433594 19.757812 4.796875 20.296875 4.222656 C 20.65625 3.839844 21.210938 3.625 21.730469 3.625 C 22.835938 3.617188 23.953125 3.628906 25.054688 3.621094 C 25.886719 3.617188 26.550781 3.550781 27.207031 4.171875 C 27.898438 4.820312 27.839844 5.625 27.824219 6.492188 C 27.820312 6.664062 27.820312 6.847656 27.820312 7.019531 L 27.828125 28.332031 L 27.824219 29.40625 C 27.828125 30.25 27.859375 30.878906 27.21875 31.519531 C 26.539062 32.203125 25.613281 32.082031 24.746094 32.082031 L 22.429688 32.082031 C 21.609375 32.082031 20.929688 32.125 20.304688 31.496094 C 19.6875 30.878906 19.742188 30.152344 19.742188 29.363281 L 19.742188 22.585938 L 19.738281 11.96875 C 19.738281 10.050781 19.71875 8.089844 19.742188 6.175781 Z M 19.742188 6.175781 "/>
<path style=" stroke:none;fill-rule:nonzero;fill:rgb(99.215686%,39.215687%,5.882353%);fill-opacity:1;" d="M 19.742188 6.175781 C 19.722656 5.433594 19.757812 4.796875 20.296875 4.222656 C 20.65625 3.839844 21.210938 3.625 21.730469 3.625 C 22.835938 3.617188 23.953125 3.628906 25.054688 3.621094 C 25.886719 3.617188 26.550781 3.550781 27.207031 4.171875 C 27.898438 4.820312 27.839844 5.625 27.824219 6.492188 C 27.820312 6.664062 27.820312 6.847656 27.820312 7.019531 C 27.789062 7.132812 27.800781 7.363281 27.800781 7.488281 L 27.792969 7.492188 C 27.800781 7.402344 27.765625 7.203125 27.671875 7.183594 C 27.65625 7.226562 27.65625 7.234375 27.625 7.269531 C 27.589844 7.242188 27.601562 7.246094 27.578125 7.195312 L 27.550781 7.195312 C 27.535156 7.222656 27.519531 7.25 27.507812 7.277344 C 27.414062 7.292969 27.445312 7.238281 27.316406 7.199219 C 27.3125 7.199219 27.246094 7.214844 27.238281 7.214844 C 26.902344 7.253906 26.539062 7.167969 26.203125 7.144531 C 26.132812 7.171875 26.015625 7.050781 25.972656 7.054688 C 25.6875 7.097656 25.40625 7.152344 25.125 7.210938 C 25.058594 7.226562 24.84375 7.128906 24.761719 7.132812 C 24.648438 7.136719 24.5625 7.179688 24.457031 7.195312 C 24.292969 7.214844 24.070312 7.136719 23.90625 7.128906 C 23.722656 7.125 23.542969 7.152344 23.359375 7.136719 C 23.289062 7.128906 23.246094 7.074219 23.179688 7.042969 L 23.164062 7.082031 C 23.0625 7.109375 23 7.074219 22.9375 7.007812 C 22.777344 6.988281 22.617188 6.964844 22.457031 6.972656 C 22.335938 7.054688 22.070312 7.1875 21.921875 7.144531 C 21.871094 7.128906 21.695312 7.046875 21.664062 7.042969 C 21.484375 7.019531 21.257812 6.992188 21.078125 6.972656 C 21.003906 6.964844 20.800781 7.085938 20.734375 7.09375 C 20.527344 7.109375 20.082031 7.074219 19.910156 6.960938 C 19.738281 6.851562 19.789062 6.367188 19.742188 6.175781 Z M 19.742188 6.175781 "/>
</g>
</svg>
