<?xml version="1.0" encoding="UTF-8"?>
<svg xmlns="http://www.w3.org/2000/svg" xmlns:xlink="http://www.w3.org/1999/xlink" width="22px" height="22px" viewBox="0 0 22 22" version="1.1">
<defs>
<linearGradient id="linear0" gradientUnits="userSpaceOnUse" x1="582.093628" y1="592.975708" x2="989.387329" y2="600.917114" gradientTransform="matrix(0.0175439,0,0,0.0175439,0,0)">
<stop offset="0" style="stop-color:rgb(97.647059%,36.470588%,24.705882%);stop-opacity:1;"/>
<stop offset="1" style="stop-color:rgb(91.764706%,4.313725%,42.352941%);stop-opacity:1;"/>
</linearGradient>
<linearGradient id="linear1" gradientUnits="userSpaceOnUse" x1="268.763397" y1="713.768066" x2="595.142639" y2="702.55896" gradientTransform="matrix(0.0175439,0,0,0.0175439,0,0)">
<stop offset="0" style="stop-color:rgb(100%,59.215686%,10.196078%);stop-opacity:1;"/>
<stop offset="1" style="stop-color:rgb(97.254902%,34.901961%,25.490196%);stop-opacity:1;"/>
</linearGradient>
<linearGradient id="linear2" gradientUnits="userSpaceOnUse" x1="267.527557" y1="477.966339" x2="592.928101" y2="497.441895" gradientTransform="matrix(0.0175439,0,0,0.0175439,0,0)">
<stop offset="0" style="stop-color:rgb(100%,59.607843%,9.803922%);stop-opacity:1;"/>
<stop offset="1" style="stop-color:rgb(97.254902%,35.294118%,25.098039%);stop-opacity:1;"/>
</linearGradient>
</defs>
<g id="surface1">
<path style=" stroke:none;fill-rule:nonzero;fill:url(#linear0);" d="M 16.074219 6.980469 C 15.875 6.746094 15.625 6.546875 15.449219 6.296875 C 15.210938 5.953125 15.667969 5.550781 15.972656 5.789062 C 16.171875 5.941406 16.375 6.179688 16.550781 6.367188 C 16.699219 6.523438 16.847656 6.683594 16.996094 6.84375 C 17.042969 6.894531 17.101562 6.964844 17.148438 7.011719 C 17.582031 7.421875 17.117188 7.730469 16.832031 8.027344 C 16.644531 8.222656 16.460938 8.417969 16.273438 8.609375 C 16.183594 8.699219 15.988281 8.921875 15.871094 8.953125 C 15.503906 9.050781 15.226562 8.675781 15.476562 8.351562 C 15.648438 8.132812 15.863281 7.953125 16.042969 7.746094 C 15.683594 7.738281 15.324219 7.734375 14.964844 7.734375 C 14.6875 7.734375 14.382812 7.722656 14.113281 7.757812 C 13.03125 7.898438 12.4375 8.773438 11.886719 9.609375 C 11.683594 9.910156 11.46875 10.195312 11.277344 10.511719 C 11.539062 10.898438 11.808594 11.320312 12.066406 11.710938 C 12.570312 12.472656 13.035156 13.121094 14 13.304688 C 14.308594 13.363281 14.566406 13.34375 14.878906 13.347656 C 15.273438 13.347656 15.679688 13.335938 16.074219 13.347656 C 15.910156 13.15625 15.714844 12.980469 15.542969 12.789062 C 15.378906 12.605469 15.292969 12.371094 15.511719 12.183594 C 15.59375 12.113281 15.703125 12.082031 15.816406 12.09375 C 15.863281 12.097656 15.90625 12.113281 15.945312 12.144531 C 16.230469 12.382812 16.484375 12.671875 16.742188 12.9375 C 16.902344 13.109375 17.074219 13.269531 17.222656 13.449219 C 17.285156 13.523438 17.339844 13.679688 17.324219 13.777344 C 17.308594 13.847656 17.273438 13.9375 17.222656 13.996094 C 17.082031 14.160156 16.914062 14.308594 16.761719 14.460938 L 16.308594 14.917969 C 16.085938 15.144531 15.742188 15.570312 15.425781 15.109375 C 15.265625 14.878906 15.511719 14.628906 15.667969 14.476562 C 15.78125 14.367188 15.921875 14.207031 16.039062 14.109375 C 15.40625 14.078125 14.761719 14.132812 14.132812 14.089844 C 12.925781 14 12.0625 13.140625 11.46875 12.160156 C 11.277344 11.847656 11.035156 11.496094 10.828125 11.1875 C 10.679688 11.390625 10.546875 11.632812 10.410156 11.816406 L 10.394531 11.804688 C 10.386719 11.746094 10.425781 11.773438 10.421875 11.707031 C 10.390625 11.703125 10.378906 11.742188 10.320312 11.761719 C 10.183594 11.679688 10.34375 11.09375 10.328125 11.050781 L 10.296875 11.054688 C 10.28125 11.011719 10.328125 10.976562 10.316406 10.929688 C 10.296875 10.949219 10.304688 10.949219 10.277344 10.960938 C 10.257812 10.910156 10.230469 10.828125 10.273438 10.78125 C 10.28125 10.808594 10.277344 10.8125 10.296875 10.824219 C 10.308594 10.777344 10.289062 10.710938 10.292969 10.644531 C 10.3125 10.609375 10.355469 10.550781 10.378906 10.515625 C 10.316406 10.429688 10.261719 10.339844 10.207031 10.25 C 10.21875 10.226562 10.210938 10.238281 10.230469 10.21875 L 10.265625 10.273438 L 10.285156 10.273438 C 10.28125 10.203125 10.28125 10.273438 10.316406 10.226562 C 10.332031 10.074219 10.25 9.820312 10.289062 9.636719 C 10.308594 9.558594 10.351562 9.398438 10.335938 9.328125 C 10.328125 9.28125 10.304688 9.292969 10.324219 9.226562 C 10.347656 9.203125 10.347656 9.199219 10.382812 9.1875 C 10.515625 9.382812 10.691406 9.664062 10.832031 9.84375 C 10.996094 9.597656 11.191406 9.328125 11.347656 9.085938 C 11.976562 8.128906 12.621094 7.285156 13.816406 7.042969 C 14.226562 6.960938 14.570312 6.976562 14.984375 6.976562 Z M 16.074219 6.980469 "/>
<path style=" stroke:none;fill-rule:nonzero;fill:url(#linear1);" d="M 10.410156 11.816406 C 10.390625 11.855469 10.355469 11.902344 10.332031 11.941406 C 10.074219 12.339844 9.804688 12.753906 9.480469 13.097656 C 8.898438 13.714844 8.128906 14.105469 7.269531 14.101562 C 6.542969 14.101562 5.820312 14.113281 5.089844 14.097656 C 4.804688 14.105469 4.644531 13.746094 4.789062 13.519531 C 4.945312 13.28125 5.414062 13.339844 5.65625 13.34375 L 6.78125 13.34375 C 7.078125 13.34375 7.378906 13.359375 7.671875 13.300781 C 8.429688 13.152344 8.957031 12.644531 9.375 12.027344 C 9.6875 11.570312 9.984375 11.101562 10.292969 10.644531 C 10.289062 10.710938 10.308594 10.777344 10.296875 10.824219 C 10.277344 10.8125 10.28125 10.808594 10.273438 10.78125 C 10.230469 10.828125 10.257812 10.910156 10.277344 10.960938 C 10.304688 10.949219 10.296875 10.949219 10.316406 10.929688 C 10.328125 10.976562 10.28125 11.011719 10.296875 11.054688 L 10.328125 11.050781 C 10.34375 11.09375 10.183594 11.679688 10.320312 11.761719 C 10.378906 11.742188 10.390625 11.703125 10.421875 11.707031 C 10.425781 11.773438 10.386719 11.746094 10.394531 11.804688 Z M 10.410156 11.816406 "/>
<path style=" stroke:none;fill-rule:nonzero;fill:url(#linear2);" d="M 10.207031 10.25 C 10.152344 10.203125 9.96875 9.90625 9.914062 9.828125 C 9.320312 8.992188 8.789062 7.972656 7.671875 7.78125 C 7.386719 7.734375 7.128906 7.734375 6.84375 7.734375 C 6.5 7.734375 6.15625 7.734375 5.816406 7.742188 C 5.585938 7.746094 5.339844 7.753906 5.113281 7.734375 C 4.992188 7.722656 4.890625 7.691406 4.8125 7.59375 C 4.75 7.511719 4.726562 7.40625 4.742188 7.304688 C 4.769531 7.136719 4.914062 6.992188 5.089844 6.984375 C 5.386719 6.96875 5.714844 6.964844 6.011719 6.972656 C 6.863281 6.992188 7.761719 6.867188 8.542969 7.285156 C 9.417969 7.730469 9.84375 8.414062 10.382812 9.1875 C 10.347656 9.199219 10.347656 9.203125 10.324219 9.226562 C 10.304688 9.292969 10.328125 9.28125 10.335938 9.328125 C 10.351562 9.398438 10.308594 9.558594 10.289062 9.636719 C 10.25 9.820312 10.332031 10.074219 10.316406 10.226562 C 10.28125 10.273438 10.28125 10.203125 10.285156 10.273438 L 10.265625 10.273438 L 10.230469 10.21875 C 10.210938 10.238281 10.21875 10.226562 10.207031 10.25 Z M 10.207031 10.25 "/>
</g>
</svg>
