<?xml version="1.0" encoding="UTF-8"?>
<svg xmlns="http://www.w3.org/2000/svg" xmlns:xlink="http://www.w3.org/1999/xlink" width="36px" height="36px" viewBox="0 0 36 36" version="1.1">
<defs>
<linearGradient id="linear0" gradientUnits="userSpaceOnUse" x1="228.574722" y1="626.553589" x2="1041.274048" y2="635.436401" gradientTransform="matrix(0.0287081,0,0,0.0287081,0,0)">
<stop offset="0" style="stop-color:rgb(99.607843%,47.843137%,8.627451%);stop-opacity:1;"/>
<stop offset="1" style="stop-color:rgb(98.039216%,0%,40.392157%);stop-opacity:1;"/>
</linearGradient>
</defs>
<g id="surface1">
<path style=" stroke:none;fill-rule:nonzero;fill:url(#linear0);" d="M 28.71875 20.851562 C 28.574219 20.972656 28.152344 21.242188 27.980469 21.355469 C 27.441406 21.722656 26.902344 22.089844 26.355469 22.449219 C 24.664062 23.589844 22.96875 24.71875 21.261719 25.839844 L 14.421875 30.355469 L 12.285156 31.753906 C 11.855469 32.035156 11.355469 32.382812 10.921875 32.640625 C 10.628906 32.8125 10.308594 32.9375 9.972656 33.003906 C 8.421875 33.308594 6.996094 32.347656 6.71875 30.78125 C 6.648438 30.378906 6.675781 29.933594 6.675781 29.523438 L 6.675781 7.027344 C 6.675781 6.46875 6.648438 5.851562 6.6875 5.300781 C 6.765625 4.164062 7.640625 3.203125 8.746094 3.019531 C 9.285156 2.933594 9.839844 3.015625 10.332031 3.257812 C 10.605469 3.386719 11.035156 3.671875 11.300781 3.839844 L 12.894531 4.84375 L 17.695312 7.867188 L 25.636719 12.886719 L 27.71875 14.207031 C 28.070312 14.429688 28.515625 14.695312 28.847656 14.933594 C 29.007812 15.007812 29.222656 15.167969 29.378906 15.261719 C 30.054688 15.660156 30.535156 16.125 30.8125 16.882812 C 31.066406 17.589844 31.027344 18.371094 30.703125 19.046875 C 30.363281 19.773438 29.890625 20.089844 29.242188 20.503906 C 29.132812 20.574219 28.820312 20.808594 28.71875 20.851562 Z M 28.71875 20.851562 "/>
<path style=" stroke:none;fill-rule:nonzero;fill:rgb(98.039216%,4.705882%,44.705883%);fill-opacity:1;" d="M 28.847656 14.933594 C 29.007812 15.007812 29.222656 15.167969 29.378906 15.261719 C 30.054688 15.660156 30.535156 16.125 30.8125 16.882812 C 31.066406 17.589844 31.027344 18.371094 30.703125 19.046875 C 30.363281 19.773438 29.890625 20.089844 29.242188 20.503906 C 29.132812 20.574219 28.820312 20.808594 28.71875 20.851562 C 28.703125 20.730469 29.128906 20.628906 29.25 20.398438 L 29.242188 20.375 C 29.195312 20.367188 29.175781 20.367188 29.132812 20.34375 C 29.121094 20.273438 29.21875 20.050781 29.328125 20.074219 C 29.351562 20.113281 29.351562 20.125 29.359375 20.171875 C 29.375 20.089844 29.394531 19.976562 29.363281 19.902344 C 29.308594 19.875 29.300781 19.894531 29.222656 19.921875 L 29.195312 19.902344 L 29.1875 19.847656 C 29.222656 19.789062 29.261719 19.730469 29.335938 19.726562 C 29.355469 19.769531 29.351562 19.769531 29.351562 19.820312 C 29.375 19.667969 29.375 19.011719 29.347656 18.855469 L 29.335938 18.847656 C 29.320312 18.90625 29.296875 18.964844 29.277344 19.023438 L 29.253906 19.03125 C 29.171875 18.898438 29.238281 18.589844 29.203125 18.519531 C 29.035156 18.152344 29.253906 18.261719 29.3125 18 L 29.34375 18.121094 L 29.359375 18.125 C 29.386719 18.035156 29.351562 17.9375 29.371094 17.84375 C 29.386719 17.757812 29.449219 17.746094 29.453125 17.652344 C 29.457031 17.589844 29.414062 17.378906 29.425781 17.335938 C 29.46875 17.175781 29.597656 16.972656 29.613281 16.804688 C 29.621094 16.675781 29.558594 16.5 29.546875 16.363281 C 29.628906 16.277344 29.699219 16.34375 29.785156 16.261719 C 29.769531 16.160156 29.730469 16.191406 29.726562 16.128906 C 29.746094 16.128906 29.761719 16.128906 29.78125 16.125 C 29.816406 16.140625 29.796875 16.136719 29.835938 16.128906 C 29.835938 16.050781 29.816406 16.101562 29.777344 16.019531 C 29.839844 16.007812 29.8125 16.003906 29.863281 16.027344 L 29.839844 16.035156 L 29.863281 16.039062 L 29.835938 16.027344 L 29.847656 16.042969 L 29.855469 16.015625 L 29.828125 16.011719 C 29.824219 15.988281 29.820312 15.957031 29.816406 15.929688 C 29.851562 15.957031 29.867188 15.964844 29.90625 15.988281 L 29.925781 15.972656 C 29.921875 15.910156 29.925781 15.863281 29.894531 15.8125 L 29.855469 15.824219 C 29.792969 15.773438 29.882812 15.808594 29.824219 15.753906 C 29.816406 15.804688 29.824219 15.792969 29.800781 15.835938 L 29.769531 15.765625 C 29.734375 15.800781 29.730469 15.855469 29.714844 15.914062 L 29.699219 15.917969 C 29.65625 15.8125 29.71875 15.828125 29.699219 15.734375 C 29.644531 15.71875 29.582031 15.671875 29.5625 15.617188 C 29.585938 15.535156 29.597656 15.5625 29.652344 15.488281 C 29.570312 15.414062 28.992188 15.066406 28.847656 14.96875 Z M 28.847656 14.933594 "/>
</g>
</svg>
