<?xml version="1.0" encoding="utf-8" ?><svg xmlns="http://www.w3.org/2000/svg" xmlns:xlink="http://www.w3.org/1999/xlink" width="1254" height="1254" viewBox="0 0 1254 1254"><defs><linearGradient id="gradient_0" gradientUnits="userSpaceOnUse" x1="377.78528" y1="354.9993" x2="822.33948" y2="823.66785"><stop offset="0" stop-color="#FFA400"/><stop offset="1" stop-color="#FE1F5B"/></linearGradient></defs><path fill="url(#gradient_0)" d="M630.209 977.82C625.349 977.865 620.206 977.882 615.419 977.946C591.138 978.27 570.226 980.856 557.685 955.66C549.117 938.446 559.347 906.689 550.316 892.567C548.233 889.336 545.36 886.691 541.969 884.881C535.024 881.088 526.588 879.239 519.216 876.254C511.297 873.046 503.478 867.629 495.114 865.837C490.394 864.826 485.675 865.445 481.353 867.595C469.214 873.634 453.864 893.854 440.597 902.14C432.109 907.442 422.193 909.247 412.413 906.855C407.892 905.749 403.186 903.942 399.397 901.202C391.512 895.5 346.294 850.398 341.812 842.839C324.082 812.931 349.01 793.806 367.746 774.004C372.393 769.091 377.431 764.147 378.975 757.303C379.821 753.553 379.622 749.757 378.573 746.068C376.815 739.884 373.026 733.853 370.515 727.908C367.005 719.596 365.057 709.389 360.037 701.961C357.037 697.52 352.633 694.691 347.525 693.224C333.247 689.122 309.966 694.109 294.159 691.152C284.575 689.358 275.774 684 270.302 675.868C266.964 670.908 264.965 665.138 264.061 659.249C261.974 645.652 263.537 627.238 263.586 613.197C263.629 600.745 261.904 586.293 264.51 574.119C266.095 566.717 269.64 559.71 275.147 554.459C297.461 533.184 335.771 552.396 354.492 539.691C357.269 537.792 359.579 535.287 361.248 532.364C363.264 528.788 366.739 518.156 368.265 513.904C372.142 502.106 384.594 485.67 377.248 473.141C364.333 451.115 330.45 435.864 336.603 405.778C337.819 400.076 340.252 394.704 343.735 390.029C355.228 374.352 377.413 357.583 390.209 342.132C392.358 339.537 396.844 335.696 399.766 333.949C430.807 315.371 448.792 339.973 470.031 359.031C477.338 365.589 485.527 372.86 496.333 369.198C503.861 366.648 511.802 362.695 519.149 359.34C530.783 354.026 548.989 351.685 552.67 337.399C558.926 311.854 543.869 273.428 570.698 256.319C575.45 253.344 580.774 251.403 586.326 250.623C599.394 248.716 616.593 250.093 630.244 250.032C658.222 249.909 690.062 244.423 698.868 279.118C703.529 297.482 695.549 330.152 704.719 343.668C706.615 346.488 709.177 348.797 712.178 350.391C716.508 352.729 726.063 356.155 730.939 357.795C742.589 361.387 760.051 374.804 772.083 367.941C794.706 355.035 808.957 322.663 839.327 327.973C844.812 328.934 850.033 331.042 854.648 334.158C860.778 338.339 906.005 383.652 910.6 390.275C914.615 396.063 917.243 403.003 917.799 410.04C920.343 442.208 878.051 457.149 874.608 479.914C874.096 483.299 874.73 486.795 875.678 490.047C877.004 494.595 893.156 532.931 894.98 535.243C898.066 539.155 902.213 541.743 907.021 542.995C919.557 546.258 943.47 542.343 958.496 544.644C968.328 546.149 977.506 551.169 983.334 559.345C986.683 564.043 988.903 569.743 989.812 575.432C991.843 588.133 990.507 602.279 990.54 615.164C990.575 628.998 991.941 648.35 989.821 661.392C985.219 686.008 964.036 693.295 941.68 692.004C909.273 692.977 895.979 685.516 885.3 723.133C882.545 732.838 873.788 744.083 874.223 755.212C874.76 764.549 882.702 769.007 887.231 775.626C898.125 784.282 916.086 803.769 917.735 818.3C921.06 847.614 888.306 864.641 872.224 884.719C863.115 895.872 850.042 906.773 835.878 907.93C805.01 911.496 790.043 870.843 765.357 864.983C757.219 865.034 755.526 866.132 748.158 870.009C742.69 872.728 737.103 875.2 731.414 877.417C702.708 888.485 699.394 886.398 699.696 920.259C699.853 937.997 701.973 953.682 688.302 967.207C677.533 977.861 664.535 978.296 650.367 977.977C644.013 977.834 637.375 977.997 630.958 977.843L630.209 977.82ZM635.875 742.105C704.823 737.162 756.491 676.913 750.866 608.017C745.241 539.121 684.484 488.051 615.647 494.357C547.766 500.576 497.559 560.306 503.106 628.246C508.653 696.185 567.884 746.98 635.875 742.105Z"/><path fill="#FC1960" d="M759.806 863.821C760.79 863.081 761.762 862.327 762.724 861.559C763.289 858.558 765.52 850.823 767.161 848.789C772.944 841.618 784.071 836.604 791.781 832.045C794.618 830.367 801.966 817.932 806.444 817.846C811.479 817.75 815.032 810.761 819.431 808.151C819.444 808.143 824.999 807.543 825.005 807.538C831.779 801.841 838.081 794.369 844.792 788.747C848.977 785.242 854.932 783.785 857.105 780.902C860.355 776.59 865.451 774.464 865.41 769.929L865.394 768.793C867.745 768.227 868.618 770.034 870.758 769.94L870.874 766.94C873.12 767.705 874.145 770.711 875.537 770.748C877.942 770.812 878.843 770.365 881.561 771.118C883.645 773.227 884.529 774.32 887.231 775.626C898.125 784.282 916.086 803.769 917.735 818.3C921.06 847.614 888.306 864.641 872.224 884.719C863.115 895.872 850.042 906.773 835.878 907.93C805.01 911.496 790.043 870.843 765.357 864.983L765.24 864.536C764.025 863.61 761.652 863.88 759.806 863.821Z"/><path fill="#FC1960" d="M630.209 977.82L630.661 977.151L629.86 976.349C630.965 974.308 633.003 975.609 634.63 973.479L633.94 970.774C635.007 969.268 641.09 960.177 641.613 959.744C644.88 957.039 651.008 954.996 654.947 951.409C665.142 942.123 672.961 929.683 685.19 922.871C689.778 920.316 690.774 914.898 694.607 914.081C696.18 916.424 697.442 918.509 699.696 920.259C699.853 937.997 701.973 953.682 688.302 967.207C677.533 977.861 664.535 978.296 650.367 977.977C644.013 977.834 637.375 977.997 630.958 977.843L630.209 977.82Z"/><path fill="#FC1960" d="M941.68 692.004C944.87 688.284 948.231 690.016 949.986 687.199C946.35 679.835 954.471 680.178 954.896 673.14C954.472 668.354 957.956 670.458 960.327 668.213C963.68 665.038 973.083 653.002 977.218 651.269C985.141 647.951 980.253 644.672 982.704 641.575L985.009 643.238L985.778 642.729L986.347 638.572L986.8 638.355C987.653 645.229 988.102 653.562 989.576 660.311L989.821 661.392C985.219 686.008 964.036 693.295 941.68 692.004Z"/><path fill="#FC1960" d="M748.158 870.009L746.554 869.28C746.742 865.117 756.143 864.017 759.244 863.855L759.806 863.821C761.652 863.88 764.025 863.61 765.24 864.536L765.357 864.983C757.219 865.034 755.526 866.132 748.158 870.009Z"/></svg>