<?xml version="1.0" encoding="UTF-8"?>
<svg xmlns="http://www.w3.org/2000/svg" xmlns:xlink="http://www.w3.org/1999/xlink" width="22px" height="22px" viewBox="0 0 22 22" version="1.1">
<defs>
<linearGradient id="linear0" gradientUnits="userSpaceOnUse" x1="306.067047" y1="432.57605" x2="797.619202" y2="793.684448" gradientTransform="matrix(0.0175439,0,0,0.0175439,0,0)">
<stop offset="0" style="stop-color:rgb(100%,52.941176%,14.509804%);stop-opacity:1;"/>
<stop offset="1" style="stop-color:rgb(93.333333%,10.588235%,45.882353%);stop-opacity:1;"/>
</linearGradient>
<linearGradient id="linear1" gradientUnits="userSpaceOnUse" x1="202.140701" y1="461.960693" x2="269.445679" y2="521.958496" gradientTransform="matrix(0.0175439,0,0,0.0175439,0,0)">
<stop offset="0" style="stop-color:rgb(100%,60%,5.882353%);stop-opacity:1;"/>
<stop offset="1" style="stop-color:rgb(100%,52.156863%,13.72549%);stop-opacity:1;"/>
</linearGradient>
<linearGradient id="linear2" gradientUnits="userSpaceOnUse" x1="801.776428" y1="515.483459" x2="1057.29834" y2="803.275757" gradientTransform="matrix(0.0175439,0,0,0.0175439,0,0)">
<stop offset="0" style="stop-color:rgb(100%,42.352941%,24.313725%);stop-opacity:1;"/>
<stop offset="1" style="stop-color:rgb(93.72549%,15.294118%,40.784314%);stop-opacity:1;"/>
</linearGradient>
<linearGradient id="linear3" gradientUnits="userSpaceOnUse" x1="867.935974" y1="329.755096" x2="943.830933" y2="400.426758" gradientTransform="matrix(0.0175439,0,0,0.0175439,0,0)">
<stop offset="0" style="stop-color:rgb(100%,49.411765%,19.215686%);stop-opacity:1;"/>
<stop offset="1" style="stop-color:rgb(100%,41.960784%,25.098039%);stop-opacity:1;"/>
</linearGradient>
</defs>
<g id="surface1">
<path style=" stroke:none;fill-rule:nonzero;fill:url(#linear0);" d="M 6.683594 7.621094 C 6.839844 7.453125 7.167969 7.171875 7.351562 7.003906 L 8.707031 5.769531 L 9.769531 4.796875 C 9.960938 4.617188 10.167969 4.417969 10.378906 4.261719 C 10.476562 4.1875 10.652344 4.140625 10.78125 4.136719 C 11.007812 4.125 11.234375 4.207031 11.402344 4.363281 C 11.609375 4.558594 11.703125 4.820312 11.703125 5.101562 C 11.707031 5.386719 11.703125 5.671875 11.703125 5.957031 L 11.699219 7.4375 L 11.6875 12.457031 L 11.679688 15.410156 L 11.679688 16.355469 C 11.679688 16.53125 11.683594 16.714844 11.671875 16.890625 C 11.636719 17.339844 11.28125 17.734375 10.816406 17.746094 C 10.425781 17.753906 10.226562 17.542969 9.957031 17.300781 L 9.433594 16.828125 C 8.507812 16.007812 7.589844 15.152344 6.667969 14.324219 C 6.148438 14.308594 5.613281 14.332031 5.09375 14.324219 C 4.515625 14.316406 4.046875 14.40625 3.609375 13.941406 C 3.457031 13.773438 3.347656 13.570312 3.300781 13.347656 C 3.261719 13.164062 3.273438 12.429688 3.277344 12.203125 C 3.285156 11.71875 3.261719 11.179688 3.277344 10.703125 C 3.269531 10.316406 3.28125 9.925781 3.277344 9.539062 C 3.269531 8.914062 3.195312 8.308594 3.75 7.878906 C 3.90625 7.761719 4.082031 7.683594 4.273438 7.644531 C 4.472656 7.605469 4.777344 7.613281 4.992188 7.617188 C 5.222656 7.617188 5.449219 7.617188 5.679688 7.617188 L 6.308594 7.617188 C 6.410156 7.617188 6.585938 7.609375 6.683594 7.621094 Z M 6.683594 7.621094 "/>
<path style=" stroke:none;fill-rule:nonzero;fill:url(#linear1);" d="M 3.277344 10.703125 C 3.269531 10.316406 3.28125 9.925781 3.277344 9.539062 C 3.269531 8.914062 3.195312 8.308594 3.75 7.878906 C 3.90625 7.761719 4.082031 7.683594 4.273438 7.644531 C 4.472656 7.605469 4.777344 7.613281 4.992188 7.617188 C 5.222656 7.617188 5.449219 7.617188 5.679688 7.617188 L 6.308594 7.617188 C 6.410156 7.617188 6.585938 7.609375 6.683594 7.621094 L 6.679688 7.636719 C 6.644531 7.648438 6.609375 7.636719 6.5625 7.640625 C 6.386719 7.648438 6.167969 7.625 5.996094 7.652344 C 5.964844 7.65625 5.875 7.777344 5.824219 7.792969 C 5.816406 7.792969 5.707031 7.855469 5.703125 7.859375 C 5.644531 7.941406 5.511719 8.03125 5.464844 8.101562 C 5.449219 8.109375 5.339844 8.15625 5.335938 8.160156 C 5.222656 8.269531 5.046875 8.445312 4.976562 8.578125 C 4.921875 8.6875 4.828125 8.667969 4.777344 8.789062 C 4.734375 8.890625 4.722656 8.945312 4.628906 8.980469 C 4.617188 8.984375 4.609375 8.988281 4.601562 8.992188 C 4.472656 9.175781 4.332031 9.285156 4.1875 9.449219 C 4.109375 9.535156 4.078125 9.691406 4.007812 9.785156 C 3.949219 9.894531 3.832031 9.953125 3.761719 10.042969 C 3.699219 10.125 3.660156 10.285156 3.601562 10.371094 C 3.539062 10.46875 3.484375 10.542969 3.433594 10.648438 C 3.4375 10.613281 3.441406 10.578125 3.453125 10.546875 C 3.4375 10.558594 3.421875 10.566406 3.402344 10.578125 L 3.394531 10.550781 C 3.371094 10.5625 3.375 10.558594 3.355469 10.574219 C 3.332031 10.519531 3.324219 10.429688 3.304688 10.363281 C 3.304688 10.449219 3.320312 10.644531 3.277344 10.703125 Z M 3.277344 10.703125 "/>
<path style=" stroke:none;fill-rule:nonzero;fill:url(#linear2);" d="M 15.945312 7.390625 C 15.898438 7.363281 15.679688 7.085938 15.609375 7.007812 C 15.351562 6.730469 15.003906 6.554688 15.054688 6.121094 C 15.097656 5.734375 15.519531 5.476562 15.878906 5.582031 C 16.203125 5.675781 16.714844 6.226562 16.925781 6.507812 C 17.195312 6.820312 17.453125 7.246094 17.640625 7.613281 C 18.265625 8.839844 18.539062 10.21875 18.433594 11.589844 C 18.320312 13.003906 17.789062 14.355469 16.90625 15.464844 C 16.699219 15.726562 16.46875 15.976562 16.21875 16.199219 C 16.082031 16.324219 15.890625 16.390625 15.703125 16.375 C 15.53125 16.363281 15.371094 16.28125 15.261719 16.144531 C 15.15625 16.015625 15.109375 15.867188 15.125 15.699219 C 15.15625 15.394531 15.441406 15.207031 15.644531 14.992188 C 15.773438 14.847656 15.894531 14.699219 16.011719 14.546875 C 17.304688 12.816406 17.492188 10.457031 16.613281 8.503906 C 16.488281 8.226562 16.339844 7.960938 16.171875 7.710938 C 16.101562 7.609375 16.003906 7.488281 15.945312 7.390625 Z M 15.945312 7.390625 "/>
<path style=" stroke:none;fill-rule:nonzero;fill:url(#linear3);" d="M 15.945312 7.390625 C 15.898438 7.363281 15.679688 7.085938 15.609375 7.007812 C 15.351562 6.730469 15.003906 6.554688 15.054688 6.121094 C 15.097656 5.734375 15.519531 5.476562 15.878906 5.582031 C 16.203125 5.675781 16.714844 6.226562 16.925781 6.507812 C 16.882812 6.605469 16.902344 6.550781 16.910156 6.644531 C 16.910156 6.671875 16.726562 6.746094 16.710938 6.765625 C 16.695312 6.789062 16.691406 6.816406 16.6875 6.84375 C 16.605469 6.941406 16.421875 7.039062 16.328125 7.128906 C 16.289062 7.164062 16.28125 7.300781 16.210938 7.328125 L 16.148438 7.316406 C 16.113281 7.347656 16.148438 7.375 16.105469 7.414062 C 16.066406 7.40625 15.984375 7.394531 15.960938 7.378906 Z M 15.945312 7.390625 "/>
<path style=" stroke:none;fill-rule:nonzero;fill:rgb(98.431373%,33.333334%,29.019609%);fill-opacity:1;" d="M 13.84375 7.84375 C 14.207031 7.824219 14.394531 8.019531 14.621094 8.269531 C 15.097656 8.785156 15.425781 9.421875 15.570312 10.113281 C 15.8125 11.199219 15.609375 12.339844 14.996094 13.269531 C 14.84375 13.511719 14.578125 13.871094 14.351562 14.050781 C 14.28125 14.105469 14.167969 14.144531 14.082031 14.164062 C 13.90625 14.1875 13.75 14.167969 13.601562 14.066406 C 13.460938 13.964844 13.363281 13.808594 13.335938 13.636719 C 13.277344 13.253906 13.601562 13.039062 13.816406 12.738281 C 14.546875 11.734375 14.554688 10.378906 13.839844 9.367188 C 13.792969 9.300781 13.695312 9.167969 13.636719 9.109375 C 13.46875 8.933594 13.3125 8.832031 13.273438 8.570312 C 13.25 8.40625 13.292969 8.242188 13.394531 8.109375 C 13.507812 7.953125 13.65625 7.871094 13.84375 7.84375 Z M 13.84375 7.84375 "/>
</g>
</svg>
