<?xml version="1.0" encoding="UTF-8"?>
<svg xmlns="http://www.w3.org/2000/svg" xmlns:xlink="http://www.w3.org/1999/xlink" width="22px" height="22px" viewBox="0 0 22 22" version="1.1">
<defs>
<linearGradient id="linear0" gradientUnits="userSpaceOnUse" x1="358.166321" y1="551.906677" x2="648.503662" y2="854.240723" gradientTransform="matrix(0.0175439,0,0,0.0175439,0,0)">
<stop offset="0" style="stop-color:rgb(100%,43.529412%,14.509804%);stop-opacity:1;"/>
<stop offset="1" style="stop-color:rgb(98.039216%,14.117647%,34.901961%);stop-opacity:1;"/>
</linearGradient>
<linearGradient id="linear1" gradientUnits="userSpaceOnUse" x1="572.956726" y1="385.332123" x2="708.327332" y2="529.984497" gradientTransform="matrix(0.0175439,0,0,0.0175439,0,0)">
<stop offset="0" style="stop-color:rgb(100%,42.745098%,14.509804%);stop-opacity:1;"/>
<stop offset="1" style="stop-color:rgb(100%,24.705882%,26.666667%);stop-opacity:1;"/>
</linearGradient>
<linearGradient id="linear2" gradientUnits="userSpaceOnUse" x1="384.734955" y1="315.384949" x2="592.834656" y2="608.983826" gradientTransform="matrix(0.0175439,0,0,0.0175439,0,0)">
<stop offset="0" style="stop-color:rgb(100%,54.117647%,5.882353%);stop-opacity:1;"/>
<stop offset="1" style="stop-color:rgb(100%,27.45098%,24.705882%);stop-opacity:1;"/>
</linearGradient>
</defs>
<g id="surface1">
<path style=" stroke:none;fill-rule:nonzero;fill:url(#linear0);" d="M 8.078125 8.609375 L 10.445312 11.070312 C 10.800781 11.441406 11.21875 11.847656 11.558594 12.222656 L 11.558594 13.886719 C 11.558594 14.054688 11.566406 14.59375 11.542969 14.734375 C 11.519531 14.84375 11.464844 14.945312 11.382812 15.027344 C 11.269531 15.140625 11.140625 15.191406 10.980469 15.191406 C 10.722656 15.195312 10.558594 15.011719 10.375 14.851562 L 8.726562 13.402344 C 8.539062 13.238281 8.347656 13.066406 8.160156 12.902344 C 7.953125 12.71875 7.847656 12.726562 7.585938 12.726562 L 7.019531 12.730469 C 6.671875 12.730469 6.390625 12.753906 6.128906 12.476562 C 6.023438 12.363281 5.953125 12.222656 5.921875 12.070312 C 5.886719 11.90625 5.902344 11.5 5.90625 11.304688 C 5.914062 11.003906 5.890625 10.65625 5.910156 10.359375 C 5.902344 10.132812 5.910156 9.902344 5.90625 9.675781 C 5.894531 9.414062 5.972656 9.175781 6.160156 8.988281 C 6.445312 8.703125 6.898438 8.765625 7.273438 8.765625 C 7.539062 8.769531 7.859375 8.828125 8.054688 8.632812 C 8.0625 8.625 8.070312 8.617188 8.078125 8.609375 Z M 8.078125 8.609375 "/>
<path style=" stroke:none;fill-rule:nonzero;fill:rgb(99.607843%,45.882353%,11.764706%);fill-opacity:1;" d="M 5.910156 10.359375 C 5.902344 10.132812 5.910156 9.902344 5.90625 9.675781 C 5.894531 9.414062 5.972656 9.175781 6.160156 8.988281 C 6.445312 8.703125 6.898438 8.765625 7.273438 8.765625 C 7.277344 8.804688 7.28125 8.847656 7.285156 8.886719 C 7.074219 9.125 6.804688 9.285156 6.570312 9.496094 C 6.527344 9.535156 6.46875 9.5625 6.425781 9.605469 C 6.304688 9.71875 6.167969 9.984375 6.011719 10.03125 C 5.992188 10.039062 5.964844 10.011719 5.929688 10.042969 C 5.902344 10.136719 5.941406 10.246094 5.910156 10.359375 Z M 5.910156 10.359375 "/>
<path style=" stroke:none;fill-rule:nonzero;fill:rgb(97.647059%,19.607843%,37.254903%);fill-opacity:1;" d="M 10.488281 10.675781 C 10.457031 10.644531 10.425781 10.621094 10.410156 10.578125 C 10.417969 10.558594 10.417969 10.550781 10.441406 10.542969 C 10.515625 10.511719 10.597656 10.507812 10.675781 10.496094 C 10.683594 10.492188 10.703125 10.433594 10.703125 10.429688 C 10.738281 10.402344 10.75 10.398438 10.792969 10.382812 C 10.859375 10.277344 10.882812 10.125 10.984375 10.074219 C 11.070312 10.082031 11.71875 10.867188 11.8125 10.878906 C 12.089844 11.132812 12.417969 11.496094 12.6875 11.773438 L 14.324219 13.464844 L 15.261719 14.457031 C 15.414062 14.621094 15.574219 14.785156 15.71875 14.960938 C 15.84375 15.109375 15.835938 15.347656 15.699219 15.492188 C 15.621094 15.574219 15.511719 15.621094 15.398438 15.621094 C 15.308594 15.621094 15.21875 15.601562 15.152344 15.539062 C 14.910156 15.320312 14.691406 15.058594 14.46875 14.820312 C 14.121094 14.453125 13.773438 14.089844 13.417969 13.726562 L 11.875 12.128906 L 11.394531 11.636719 C 11.316406 11.550781 11.203125 11.441406 11.132812 11.359375 C 11.101562 11.339844 10.957031 11.1875 10.925781 11.152344 L 10.480469 10.691406 Z M 10.488281 10.675781 "/>
<path style=" stroke:none;fill-rule:nonzero;fill:rgb(98.431373%,22.352941%,29.019609%);fill-opacity:1;" d="M 10.488281 10.675781 C 10.570312 10.765625 10.597656 10.824219 10.726562 10.804688 L 10.75 10.820312 C 10.753906 10.855469 10.75 10.875 10.714844 10.898438 C 10.855469 11.054688 10.992188 11.191406 11.140625 11.339844 L 11.132812 11.359375 C 11.101562 11.339844 10.957031 11.1875 10.925781 11.152344 L 10.480469 10.691406 Z M 10.488281 10.675781 "/>
<path style=" stroke:none;fill-rule:nonzero;fill:rgb(98.431373%,22.352941%,29.019609%);fill-opacity:1;" d="M 14.050781 6.878906 C 14.351562 6.847656 14.574219 7.117188 14.765625 7.316406 C 15.410156 7.980469 15.839844 8.824219 16.003906 9.734375 C 16.203125 10.796875 16.066406 11.894531 15.605469 12.875 C 15.539062 13.011719 15.472656 13.140625 15.398438 13.273438 C 15.300781 13.441406 15.234375 13.539062 15.03125 13.578125 C 14.839844 13.589844 14.742188 13.5 14.636719 13.355469 C 14.457031 13.121094 14.675781 12.90625 14.789062 12.699219 C 15.546875 11.300781 15.445312 9.4375 14.445312 8.171875 C 14.332031 8.03125 14.207031 7.898438 14.074219 7.773438 C 13.992188 7.695312 13.875 7.613281 13.804688 7.527344 C 13.597656 7.277344 13.738281 6.953125 14.050781 6.878906 Z M 14.050781 6.878906 "/>
<path style=" stroke:none;fill-rule:nonzero;fill:url(#linear1);" d="M 10.964844 6.105469 C 10.972656 6.105469 10.976562 6.105469 10.984375 6.105469 C 11.132812 6.105469 11.28125 6.164062 11.386719 6.269531 C 11.597656 6.476562 11.558594 6.769531 11.558594 7.042969 L 11.558594 10.183594 C 11.4375 10.074219 11.300781 9.929688 11.1875 9.808594 L 10.632812 9.234375 L 9.089844 7.644531 C 9.1875 7.539062 9.335938 7.410156 9.445312 7.3125 L 10.089844 6.71875 C 10.230469 6.589844 10.375 6.460938 10.515625 6.332031 C 10.667969 6.195312 10.753906 6.128906 10.964844 6.105469 Z M 10.964844 6.105469 "/>
<path style=" stroke:none;fill-rule:nonzero;fill:url(#linear2);" d="M 10.480469 10.691406 C 9.507812 9.714844 8.53125 8.683594 7.574219 7.6875 C 7.289062 7.394531 7.003906 7.101562 6.714844 6.808594 C 6.578125 6.667969 6.394531 6.496094 6.273438 6.339844 C 6.074219 6.085938 6.320312 5.660156 6.648438 5.699219 C 6.808594 5.714844 6.875 5.78125 6.980469 5.890625 C 7.289062 6.203125 7.597656 6.515625 7.898438 6.832031 C 8.644531 7.59375 9.382812 8.355469 10.117188 9.125 L 11.289062 10.332031 C 11.4375 10.488281 11.679688 10.722656 11.8125 10.878906 C 11.71875 10.867188 11.070312 10.082031 10.984375 10.074219 C 10.882812 10.125 10.859375 10.277344 10.792969 10.382812 C 10.75 10.398438 10.738281 10.402344 10.703125 10.429688 C 10.703125 10.433594 10.683594 10.492188 10.675781 10.496094 C 10.597656 10.507812 10.515625 10.511719 10.441406 10.542969 C 10.417969 10.550781 10.417969 10.558594 10.410156 10.578125 C 10.425781 10.621094 10.457031 10.644531 10.488281 10.675781 Z M 10.480469 10.691406 "/>
<path style=" stroke:none;fill-rule:nonzero;fill:rgb(98.431373%,22.352941%,29.019609%);fill-opacity:1;" d="M 12.933594 8.402344 C 13.023438 8.410156 13.121094 8.425781 13.195312 8.484375 C 14.117188 9.207031 14.441406 10.464844 14.109375 11.574219 C 14.015625 11.882812 13.886719 12.128906 13.710938 12.402344 L 13.644531 12.335938 C 13.496094 12.167969 13.289062 11.957031 13.132812 11.796875 C 13.582031 11.0625 13.535156 10.125 13.011719 9.4375 C 12.855469 9.230469 12.574219 9.074219 12.542969 8.855469 C 12.53125 8.753906 12.558594 8.648438 12.621094 8.566406 C 12.707031 8.457031 12.800781 8.417969 12.933594 8.402344 Z M 12.933594 8.402344 "/>
</g>
</svg>
