<?xml version="1.0" encoding="UTF-8"?>
<svg xmlns="http://www.w3.org/2000/svg" xmlns:xlink="http://www.w3.org/1999/xlink" width="22px" height="22px" viewBox="0 0 22 22" version="1.1">
<defs>
<linearGradient id="linear0" gradientUnits="userSpaceOnUse" x1="432.156891" y1="405.635345" x2="650.203674" y2="615.330444" gradientTransform="matrix(0.0175439,0,0,0.0175439,0,0)">
<stop offset="0" style="stop-color:rgb(100%,49.411765%,15.686275%);stop-opacity:1;"/>
<stop offset="1" style="stop-color:rgb(96.862745%,21.568627%,27.058824%);stop-opacity:1;"/>
</linearGradient>
<linearGradient id="linear1" gradientUnits="userSpaceOnUse" x1="603.2276" y1="606.38916" x2="825.693665" y2="811.824646" gradientTransform="matrix(0.0175439,0,0,0.0175439,0,0)">
<stop offset="0" style="stop-color:rgb(96.862745%,27.45098%,22.745098%);stop-opacity:1;"/>
<stop offset="1" style="stop-color:rgb(92.54902%,11.372549%,40%);stop-opacity:1;"/>
</linearGradient>
</defs>
<g id="surface1">
<path style=" stroke:none;fill-rule:nonzero;fill:url(#linear0);" d="M 13.050781 6.230469 C 13.175781 6.226562 13.261719 6.246094 13.359375 6.335938 C 13.484375 6.449219 13.613281 6.589844 13.734375 6.710938 L 14.109375 7.085938 C 14.191406 7.164062 14.269531 7.238281 14.339844 7.332031 C 14.449219 7.457031 14.441406 7.679688 14.328125 7.804688 C 14.082031 8.058594 13.824219 8.308594 13.574219 8.5625 C 13.496094 8.644531 13.394531 8.753906 13.304688 8.816406 C 13.253906 8.855469 13.191406 8.875 13.125 8.878906 C 13.03125 8.882812 12.9375 8.847656 12.867188 8.785156 C 12.800781 8.722656 12.757812 8.632812 12.757812 8.539062 C 12.757812 8.300781 13.027344 8.109375 13.195312 7.9375 L 8.824219 7.9375 C 8.253906 7.9375 7.839844 7.910156 7.394531 8.355469 C 6.9375 8.816406 6.972656 9.277344 6.972656 9.875 L 6.972656 11.664062 C 6.972656 11.84375 7.007812 12.121094 6.894531 12.261719 C 6.828125 12.34375 6.734375 12.390625 6.632812 12.398438 C 6.535156 12.40625 6.441406 12.363281 6.367188 12.292969 C 6.257812 12.1875 6.261719 12.054688 6.261719 11.910156 L 6.261719 10.222656 C 6.261719 9.933594 6.265625 9.644531 6.261719 9.355469 C 6.261719 8.796875 6.503906 8.199219 6.902344 7.800781 C 7.191406 7.511719 7.554688 7.308594 7.953125 7.21875 C 8.25 7.152344 8.578125 7.164062 8.882812 7.164062 L 13.183594 7.164062 C 12.984375 6.960938 12.632812 6.722656 12.804688 6.40625 C 12.863281 6.300781 12.941406 6.261719 13.050781 6.230469 Z M 13.050781 6.230469 "/>
<path style=" stroke:none;fill-rule:nonzero;fill:url(#linear1);" d="M 15.359375 8.941406 C 15.75 8.964844 15.714844 9.296875 15.71875 9.578125 L 15.71875 10.152344 L 15.714844 12.082031 C 15.710938 12.671875 15.46875 13.265625 15.042969 13.679688 C 14.742188 13.96875 14.371094 14.167969 13.964844 14.257812 C 13.695312 14.316406 13.386719 14.304688 13.113281 14.304688 L 12.257812 14.304688 C 11.132812 14.308594 9.980469 14.316406 8.859375 14.300781 C 9.007812 14.4375 9.285156 14.664062 9.296875 14.863281 C 9.304688 14.964844 9.273438 15.0625 9.203125 15.136719 C 9.140625 15.203125 9.050781 15.242188 8.960938 15.242188 C 8.75 15.242188 8.558594 14.988281 8.417969 14.84375 C 8.265625 14.683594 8.113281 14.523438 7.957031 14.363281 C 7.839844 14.25 7.671875 14.113281 7.667969 13.949219 C 7.667969 13.824219 7.703125 13.738281 7.785156 13.648438 C 7.949219 13.476562 8.113281 13.304688 8.28125 13.128906 C 8.433594 12.988281 8.605469 12.765625 8.769531 12.648438 C 9.007812 12.503906 9.300781 12.683594 9.300781 12.949219 C 9.296875 13.179688 9.015625 13.390625 8.855469 13.546875 L 13.125 13.546875 C 13.667969 13.546875 14.007812 13.585938 14.457031 13.214844 C 15.117188 12.667969 15.003906 11.941406 15.003906 11.175781 L 15 9.707031 C 15 9.382812 14.925781 8.992188 15.359375 8.941406 Z M 15.359375 8.941406 "/>
</g>
</svg>
