<?xml version="1.0" encoding="UTF-8"?>
<svg xmlns="http://www.w3.org/2000/svg" xmlns:xlink="http://www.w3.org/1999/xlink" width="36px" height="36px" viewBox="0 0 36 36" version="1.1">
<defs>
<linearGradient id="linear0" gradientUnits="userSpaceOnUse" x1="396.007141" y1="616.006592" x2="645.095886" y2="638.858398" gradientTransform="matrix(0.0287081,0,0,0.0287081,0,0)">
<stop offset="0" style="stop-color:rgb(99.215686%,54.509804%,12.54902%);stop-opacity:1;"/>
<stop offset="1" style="stop-color:rgb(97.254902%,17.647059%,30.196078%);stop-opacity:1;"/>
</linearGradient>
<linearGradient id="linear1" gradientUnits="userSpaceOnUse" x1="625.489502" y1="625.168274" x2="740.364746" y2="652.192993" gradientTransform="matrix(0.0287081,0,0,0.0287081,0,0)">
<stop offset="0" style="stop-color:rgb(97.647059%,21.176471%,28.627451%);stop-opacity:1;"/>
<stop offset="1" style="stop-color:rgb(96.078431%,8.627451%,36.862745%);stop-opacity:1;"/>
</linearGradient>
<linearGradient id="linear2" gradientUnits="userSpaceOnUse" x1="725.898376" y1="590.029846" x2="897.216125" y2="650.09668" gradientTransform="matrix(0.0287081,0,0,0.0287081,0,0)">
<stop offset="0" style="stop-color:rgb(96.862745%,17.254902%,28.627451%);stop-opacity:1;"/>
<stop offset="1" style="stop-color:rgb(93.333333%,0%,47.45098%);stop-opacity:1;"/>
</linearGradient>
</defs>
<g id="surface1">
<path style=" stroke:none;fill-rule:nonzero;fill:url(#linear0);" d="M 17.300781 21.105469 C 17.257812 21.160156 16.890625 21.390625 16.800781 21.449219 L 15.128906 22.550781 C 14.519531 22.953125 13.921875 23.363281 13.300781 23.761719 C 12.738281 24.121094 11.972656 23.882812 11.832031 23.191406 C 11.796875 23.011719 11.816406 22.78125 11.8125 22.59375 C 11.808594 22.375 11.8125 22.148438 11.8125 21.925781 L 11.8125 13.386719 C 11.8125 12.988281 11.75 12.4375 11.976562 12.105469 C 12.117188 11.898438 12.339844 11.757812 12.585938 11.71875 C 12.972656 11.65625 13.195312 11.8125 13.503906 12.007812 C 13.683594 12.121094 13.863281 12.234375 14.042969 12.347656 L 15.808594 13.460938 L 17.730469 14.667969 C 17.988281 14.828125 18.441406 15.097656 18.664062 15.265625 C 18.929688 15.414062 19.207031 15.597656 19.464844 15.761719 C 20.03125 16.121094 20.625 16.460938 21.164062 16.855469 C 21.277344 16.933594 21.421875 17.246094 21.460938 17.375 C 21.550781 17.683594 21.511719 18.011719 21.355469 18.292969 C 21.179688 18.609375 20.765625 18.832031 20.464844 19.027344 L 19.484375 19.667969 L 18.425781 20.367188 C 18.273438 20.464844 18.03125 20.636719 17.878906 20.722656 C 17.800781 20.78125 17.738281 20.824219 17.652344 20.875 C 17.53125 20.960938 17.429688 21.03125 17.300781 21.105469 Z M 17.300781 21.105469 "/>
<path style=" stroke:none;fill-rule:nonzero;fill:url(#linear1);" d="M 18.664062 15.265625 C 18.929688 15.414062 19.207031 15.597656 19.464844 15.761719 C 20.03125 16.121094 20.625 16.460938 21.164062 16.855469 C 21.277344 16.933594 21.421875 17.246094 21.460938 17.375 C 21.550781 17.683594 21.511719 18.011719 21.355469 18.292969 C 21.179688 18.609375 20.765625 18.832031 20.464844 19.027344 L 19.484375 19.667969 L 18.425781 20.367188 C 18.273438 20.464844 18.03125 20.636719 17.878906 20.722656 C 17.886719 20.636719 17.949219 20.617188 17.878906 20.554688 C 17.820312 20.558594 17.757812 20.605469 17.699219 20.636719 L 17.660156 20.609375 C 17.632812 20.5625 17.644531 20.53125 17.652344 20.476562 L 17.65625 20.453125 L 17.585938 20.378906 C 17.578125 20.113281 17.671875 19.875 17.6875 19.617188 C 17.691406 19.53125 17.648438 19.4375 17.664062 19.355469 C 17.671875 19.304688 17.707031 19.25 17.730469 19.207031 C 17.847656 18.996094 17.953125 17.949219 18.03125 17.875 C 18.207031 17.695312 18.117188 17.398438 18.160156 17.171875 C 18.191406 17.007812 18.285156 16.675781 18.34375 16.523438 C 18.402344 16.363281 18.484375 16.203125 18.527344 16.035156 C 18.5625 15.894531 18.519531 15.734375 18.542969 15.589844 C 18.542969 15.582031 18.546875 15.578125 18.546875 15.570312 C 18.550781 15.542969 18.554688 15.53125 18.570312 15.503906 C 18.597656 15.457031 18.640625 15.433594 18.695312 15.425781 C 18.730469 15.414062 18.765625 15.40625 18.800781 15.394531 C 18.730469 15.34375 18.710938 15.335938 18.664062 15.265625 Z M 18.664062 15.265625 "/>
<path style=" stroke:none;fill-rule:nonzero;fill:rgb(98.039216%,20%,27.450982%);fill-opacity:1;" d="M 17.449219 20.890625 C 17.515625 20.863281 17.5625 20.839844 17.632812 20.839844 L 17.652344 20.875 C 17.53125 20.960938 17.429688 21.03125 17.300781 21.105469 C 17.324219 21.003906 17.375 20.964844 17.449219 20.890625 Z M 17.449219 20.890625 "/>
<path style=" stroke:none;fill-rule:nonzero;fill:url(#linear2);" d="M 23.128906 11.695312 C 23.398438 11.671875 23.507812 11.683594 23.753906 11.804688 C 23.90625 11.878906 24.160156 12.171875 24.183594 12.328125 C 24.238281 12.707031 24.21875 13.222656 24.21875 13.609375 L 24.21875 22.265625 C 24.21875 23 24.367188 23.683594 23.464844 23.921875 C 22.476562 23.980469 22.335938 23.292969 22.382812 22.507812 C 22.402344 22.148438 22.378906 21.6875 22.378906 21.3125 L 22.378906 17.628906 L 22.382812 14.300781 C 22.386719 13.714844 22.378906 13.125 22.394531 12.542969 C 22.410156 12.09375 22.71875 11.808594 23.128906 11.695312 Z M 23.128906 11.695312 "/>
</g>
</svg>
