<?xml version="1.0" encoding="UTF-8"?>
<svg xmlns="http://www.w3.org/2000/svg" xmlns:xlink="http://www.w3.org/1999/xlink" width="22px" height="22px" viewBox="0 0 22 22" version="1.1">
<defs>
<linearGradient id="linear0" gradientUnits="userSpaceOnUse" x1="419.758423" y1="531.608337" x2="771.16748" y2="657.429504" gradientTransform="matrix(0.0175439,0,0,0.0175439,0,0)">
<stop offset="0" style="stop-color:rgb(100%,47.058824%,29.019608%);stop-opacity:1;"/>
<stop offset="1" style="stop-color:rgb(100%,20%,45.882353%);stop-opacity:1;"/>
</linearGradient>
<linearGradient id="linear1" gradientUnits="userSpaceOnUse" x1="260.688293" y1="559.432495" x2="404.30896" y2="618.949463" gradientTransform="matrix(0.0175439,0,0,0.0175439,0,0)">
<stop offset="0" style="stop-color:rgb(100%,61.568627%,20.392157%);stop-opacity:1;"/>
<stop offset="1" style="stop-color:rgb(100%,48.627451%,29.019608%);stop-opacity:1;"/>
</linearGradient>
<linearGradient id="linear2" gradientUnits="userSpaceOnUse" x1="744.304565" y1="581.788818" x2="887.759521" y2="665.021423" gradientTransform="matrix(0.0175439,0,0,0.0175439,0,0)">
<stop offset="0" style="stop-color:rgb(100%,45.882353%,30.196078%);stop-opacity:1;"/>
<stop offset="1" style="stop-color:rgb(98.823529%,16.470588%,48.235294%);stop-opacity:1;"/>
</linearGradient>
</defs>
<g id="surface1">
<path style=" stroke:none;fill-rule:nonzero;fill:url(#linear0);" d="M 8.039062 8.128906 L 10.121094 6.40625 L 10.683594 5.941406 C 10.824219 5.824219 10.964844 5.699219 11.121094 5.605469 C 11.398438 5.441406 11.757812 5.527344 11.964844 5.761719 C 12.195312 6.027344 12.140625 6.386719 12.140625 6.714844 L 12.140625 7.699219 L 12.144531 10.925781 L 12.140625 13.945312 L 12.144531 14.886719 C 12.144531 15.042969 12.152344 15.292969 12.136719 15.445312 C 12.117188 15.625 12.027344 15.789062 11.890625 15.902344 C 11.746094 16.019531 11.5625 16.074219 11.375 16.054688 C 11.089844 16.019531 10.894531 15.828125 10.679688 15.660156 L 10.175781 15.269531 L 8.519531 13.988281 C 7.707031 13.363281 7.871094 13.402344 6.839844 13.40625 L 6.039062 13.40625 C 5.949219 13.40625 5.84375 13.40625 5.753906 13.398438 C 5.484375 13.378906 5.234375 13.25 5.0625 13.042969 C 4.953125 12.910156 4.882812 12.75 4.855469 12.582031 C 4.832031 12.441406 4.84375 12.136719 4.84375 11.984375 L 4.84375 9.84375 C 4.84375 9.65625 4.832031 9.40625 4.851562 9.230469 C 4.890625 8.789062 5.214844 8.421875 5.65625 8.351562 C 5.863281 8.316406 6.148438 8.328125 6.367188 8.328125 L 7.292969 8.328125 C 7.671875 8.328125 7.722656 8.382812 8.039062 8.128906 Z M 8.039062 8.128906 "/>
<path style=" stroke:none;fill-rule:nonzero;fill:url(#linear1);" d="M 6.039062 13.40625 C 5.949219 13.40625 5.84375 13.40625 5.753906 13.398438 C 5.484375 13.378906 5.234375 13.25 5.0625 13.042969 C 4.953125 12.910156 4.882812 12.75 4.855469 12.582031 C 4.832031 12.441406 4.84375 12.136719 4.84375 11.984375 L 4.84375 9.84375 C 4.84375 9.65625 4.832031 9.40625 4.851562 9.230469 C 4.890625 8.789062 5.214844 8.421875 5.65625 8.351562 C 5.863281 8.316406 6.148438 8.328125 6.367188 8.328125 L 7.292969 8.328125 C 7.671875 8.328125 7.722656 8.382812 8.039062 8.128906 C 8.074219 8.171875 8.140625 8.152344 8.132812 8.261719 C 8.15625 8.269531 8.144531 8.265625 8.167969 8.269531 C 8.15625 8.351562 8.085938 8.34375 8.085938 8.449219 C 8.082031 8.5 8.078125 8.515625 8.042969 8.550781 C 7.980469 8.613281 7.980469 8.710938 7.949219 8.792969 C 7.878906 8.957031 7.769531 9.105469 7.699219 9.269531 C 7.621094 9.4375 7.585938 9.621094 7.496094 9.785156 C 7.472656 9.835938 7.292969 10.085938 7.292969 10.125 C 7.296875 10.144531 7.304688 10.164062 7.304688 10.1875 C 7.285156 10.367188 6.933594 10.996094 6.933594 11.121094 C 6.933594 11.136719 6.933594 11.152344 6.933594 11.164062 C 6.898438 11.230469 6.847656 11.273438 6.820312 11.332031 C 6.777344 11.425781 6.792969 11.632812 6.714844 11.703125 C 6.625 11.792969 6.617188 11.960938 6.554688 12.074219 C 6.53125 12.136719 6.355469 12.316406 6.359375 12.371094 C 6.378906 12.511719 6.289062 12.585938 6.25 12.710938 C 6.207031 12.832031 6.175781 12.933594 6.125 13.050781 C 6.070312 13.167969 6.097656 13.144531 5.980469 13.222656 C 5.980469 13.230469 6.011719 13.378906 6.011719 13.378906 L 6.058594 13.386719 L 6.046875 13.398438 C 6.042969 13.398438 6.039062 13.402344 6.039062 13.40625 Z M 6.039062 13.40625 "/>
<path style=" stroke:none;fill-rule:nonzero;fill:url(#linear2);" d="M 14.3125 8.5 C 14.617188 8.511719 14.730469 8.714844 14.871094 8.945312 C 15.625 10.160156 15.605469 11.832031 14.8125 13.023438 C 14.671875 13.242188 14.570312 13.367188 14.289062 13.378906 C 14.066406 13.363281 13.859375 13.191406 13.832031 12.964844 C 13.804688 12.734375 13.917969 12.640625 14.03125 12.472656 C 14.644531 11.589844 14.636719 10.347656 14.0625 9.445312 C 13.972656 9.308594 13.851562 9.207031 13.832031 9.035156 C 13.800781 8.714844 14.023438 8.53125 14.3125 8.5 Z M 14.3125 8.5 "/>
</g>
</svg>
