<?xml version="1.0" encoding="UTF-8"?>
<svg xmlns="http://www.w3.org/2000/svg" xmlns:xlink="http://www.w3.org/1999/xlink" width="26px" height="26px" viewBox="0 0 26 26" version="1.1">
<defs>
<linearGradient id="linear0" gradientUnits="userSpaceOnUse" x1="284.372009" y1="603.441467" x2="445.467041" y2="604.036804" gradientTransform="matrix(0.0207337,0,0,0.0207337,0,0)">
<stop offset="0" style="stop-color:rgb(100%,49.803922%,7.45098%);stop-opacity:1;"/>
<stop offset="1" style="stop-color:rgb(100%,37.647059%,16.078431%);stop-opacity:1;"/>
</linearGradient>
<linearGradient id="linear1" gradientUnits="userSpaceOnUse" x1="796.569519" y1="589.394287" x2="968.622681" y2="616.999512" gradientTransform="matrix(0.0207337,0,0,0.0207337,0,0)">
<stop offset="0" style="stop-color:rgb(93.333333%,21.176471%,32.54902%);stop-opacity:1;"/>
<stop offset="1" style="stop-color:rgb(91.764706%,15.294118%,45.098039%);stop-opacity:1;"/>
</linearGradient>
</defs>
<g id="surface1">
<path style=" stroke:none;fill-rule:nonzero;fill:rgb(96.862745%,26.666668%,25.098041%);fill-opacity:1;" d="M 12.953125 4.953125 C 13.292969 4.933594 13.636719 5.175781 13.664062 5.527344 C 13.6875 5.839844 13.671875 6.1875 13.671875 6.503906 L 13.660156 8.503906 L 13.636719 15.121094 L 13.683594 15.117188 C 14.546875 15.109375 14.78125 15.785156 14.664062 16.527344 C 14.628906 16.757812 14.496094 16.960938 14.3125 17.09375 C 14.085938 17.257812 13.886719 17.269531 13.625 17.265625 L 13.621094 18.78125 C 13.621094 19.027344 13.628906 19.28125 13.609375 19.523438 C 13.585938 19.824219 13.378906 20.027344 13.09375 20.097656 C 12.738281 20.144531 12.429688 19.925781 12.375 19.574219 C 12.339844 19.335938 12.355469 19.019531 12.355469 18.777344 L 12.355469 17.265625 C 11.628906 17.277344 11.292969 16.90625 11.292969 16.1875 C 11.296875 15.472656 11.640625 15.113281 12.351562 15.117188 L 12.355469 8.738281 L 12.351562 6.664062 C 12.351562 6.308594 12.347656 5.953125 12.359375 5.597656 C 12.371094 5.246094 12.617188 5.011719 12.953125 4.953125 Z M 12.953125 4.953125 "/>
<path style=" stroke:none;fill-rule:nonzero;fill:url(#linear0);" d="M 7.496094 4.953125 C 7.691406 4.9375 7.867188 4.984375 8.011719 5.121094 C 8.074219 5.183594 8.183594 5.328125 8.191406 5.417969 C 8.253906 6.039062 8.210938 6.691406 8.222656 7.316406 C 8.234375 8.078125 8.207031 8.84375 8.21875 9.605469 C 8.242188 9.605469 8.269531 9.605469 8.292969 9.605469 C 8.980469 9.601562 9.308594 10.078125 9.28125 10.722656 C 9.269531 11.066406 9.21875 11.339844 8.929688 11.570312 C 8.703125 11.757812 8.488281 11.761719 8.210938 11.757812 L 8.199219 16.855469 L 8.199219 18.570312 C 8.199219 18.867188 8.207031 19.175781 8.195312 19.472656 C 8.183594 19.789062 7.996094 20.011719 7.691406 20.09375 C 7.648438 20.101562 7.609375 20.105469 7.566406 20.105469 C 7.402344 20.105469 7.246094 20.042969 7.132812 19.925781 C 6.933594 19.726562 6.945312 19.511719 6.945312 19.25 C 6.945312 19.074219 6.945312 18.898438 6.945312 18.722656 L 6.941406 17.070312 L 6.933594 11.761719 C 6.640625 11.765625 6.390625 11.730469 6.167969 11.519531 C 5.773438 11.140625 5.777344 10.246094 6.160156 9.863281 C 6.382812 9.636719 6.632812 9.601562 6.933594 9.601562 C 6.921875 8.734375 6.933594 7.84375 6.933594 6.976562 L 6.933594 6.089844 C 6.933594 5.605469 6.871094 5.074219 7.496094 4.953125 Z M 7.496094 4.953125 "/>
<path style=" stroke:none;fill-rule:nonzero;fill:url(#linear1);" d="M 18.359375 4.957031 C 18.554688 4.949219 18.707031 4.992188 18.855469 5.125 C 19.097656 5.34375 19.054688 5.683594 19.054688 5.980469 L 19.054688 6.738281 L 19.046875 8.785156 C 19.046875 9.183594 19.039062 9.601562 19.050781 10 L 19.113281 10 C 19.964844 10 20.210938 10.667969 20.089844 11.414062 C 20.050781 11.640625 19.90625 11.855469 19.726562 11.988281 C 19.503906 12.152344 19.304688 12.15625 19.042969 12.148438 L 19.042969 18.6875 C 19.042969 18.765625 19.042969 18.84375 19.042969 18.921875 C 19.035156 19.429688 19.140625 19.960938 18.488281 20.105469 C 18.160156 20.136719 17.835938 19.898438 17.804688 19.566406 C 17.777344 19.277344 17.789062 18.976562 17.789062 18.683594 L 17.785156 17.105469 C 17.78125 15.480469 17.753906 13.78125 17.777344 12.160156 C 17.6875 12.160156 17.597656 12.160156 17.507812 12.148438 C 16.785156 12.058594 16.621094 11.328125 16.746094 10.714844 C 16.804688 10.414062 17.007812 10.164062 17.296875 10.058594 C 17.460938 9.996094 17.601562 10 17.777344 10.003906 C 17.769531 9.675781 17.773438 9.324219 17.773438 8.992188 L 17.773438 6.085938 C 17.773438 5.683594 17.710938 5.234375 18.132812 5.015625 C 18.210938 4.972656 18.273438 4.964844 18.359375 4.957031 Z M 18.359375 4.957031 "/>
</g>
</svg>
