<?xml version="1.0" encoding="UTF-8"?>
<svg xmlns="http://www.w3.org/2000/svg" xmlns:xlink="http://www.w3.org/1999/xlink" width="26px" height="26px" viewBox="0 0 26 26" version="1.1">
<defs>
<linearGradient id="linear0" gradientUnits="userSpaceOnUse" x1="621.986816" y1="486.618774" x2="630.56366" y2="656.388916" gradientTransform="matrix(0.0207337,0,0,0.0207337,0,0)">
<stop offset="0" style="stop-color:rgb(99.215686%,46.666667%,0.392157%);stop-opacity:1;"/>
<stop offset="1" style="stop-color:rgb(96.470588%,16.862745%,12.941176%);stop-opacity:1;"/>
</linearGradient>
<linearGradient id="linear1" gradientUnits="userSpaceOnUse" x1="620.549316" y1="659.891846" x2="630.627502" y2="819.53717" gradientTransform="matrix(0.0207337,0,0,0.0207337,0,0)">
<stop offset="0" style="stop-color:rgb(96.078431%,15.686275%,12.156863%);stop-opacity:1;"/>
<stop offset="1" style="stop-color:rgb(88.235294%,3.137255%,34.117647%);stop-opacity:1;"/>
</linearGradient>
<linearGradient id="linear2" gradientUnits="userSpaceOnUse" x1="619.92749" y1="644.436829" x2="634.648926" y2="886.150208" gradientTransform="matrix(0.0207337,0,0,0.0207337,0,0)">
<stop offset="0" style="stop-color:rgb(96.862745%,16.862745%,11.372549%);stop-opacity:1;"/>
<stop offset="1" style="stop-color:rgb(85.490196%,0%,41.960784%);stop-opacity:1;"/>
</linearGradient>
<linearGradient id="linear3" gradientUnits="userSpaceOnUse" x1="622.900818" y1="223.139038" x2="627.051331" y2="297.505676" gradientTransform="matrix(0.0207337,0,0,0.0207337,0,0)">
<stop offset="0" style="stop-color:rgb(98.431373%,47.058824%,0%);stop-opacity:1;"/>
<stop offset="1" style="stop-color:rgb(97.647059%,25.098039%,6.666667%);stop-opacity:1;"/>
</linearGradient>
<linearGradient id="linear4" gradientUnits="userSpaceOnUse" x1="624.373474" y1="282.254486" x2="626.690002" y2="338.332886" gradientTransform="matrix(0.0207337,0,0,0.0207337,0,0)">
<stop offset="0" style="stop-color:rgb(97.254902%,26.27451%,7.843137%);stop-opacity:1;"/>
<stop offset="1" style="stop-color:rgb(94.901961%,11.764706%,17.254902%);stop-opacity:1;"/>
</linearGradient>
<linearGradient id="linear5" gradientUnits="userSpaceOnUse" x1="625.152771" y1="340.818573" x2="626.519165" y2="379.898315" gradientTransform="matrix(0.0207337,0,0,0.0207337,0,0)">
<stop offset="0" style="stop-color:rgb(92.156863%,10.588235%,20.392157%);stop-opacity:1;"/>
<stop offset="1" style="stop-color:rgb(89.411765%,4.313725%,32.54902%);stop-opacity:1;"/>
</linearGradient>
</defs>
<g id="surface1">
<path style=" stroke:none;fill-rule:nonzero;fill:url(#linear0);" d="M 9.796875 10.171875 C 9.792969 10.007812 9.816406 9.898438 9.890625 9.753906 C 10.144531 9.269531 10.703125 9.367188 11.148438 9.367188 L 14.539062 9.367188 C 14.871094 9.363281 15.214844 9.355469 15.542969 9.371094 C 15.804688 9.386719 16.089844 9.65625 16.148438 9.910156 C 16.199219 10.066406 16.183594 10.566406 16.183594 10.75 L 16.183594 11.664062 C 16.179688 12.285156 16.191406 12.9375 16.179688 13.554688 L 16.179688 16.421875 C 16.179688 16.660156 16.179688 16.898438 16.183594 17.136719 C 16.183594 17.449219 16.21875 17.78125 15.980469 18.03125 C 15.808594 18.207031 15.613281 18.261719 15.375 18.261719 C 15.039062 18.261719 14.703125 18.257812 14.367188 18.257812 L 12.058594 18.261719 L 10.992188 18.265625 C 10.632812 18.265625 10.292969 18.320312 10.015625 18.046875 C 9.753906 17.789062 9.796875 17.484375 9.796875 17.144531 L 9.796875 16.359375 L 9.800781 13.347656 Z M 14.160156 13.554688 C 13.367188 13.03125 12.328125 13.09375 11.601562 13.699219 C 10.894531 14.292969 10.648438 15.273438 10.988281 16.132812 C 11.328125 16.992188 12.179688 17.535156 13.101562 17.480469 C 14.023438 17.429688 14.808594 16.792969 15.046875 15.902344 C 15.289062 15.007812 14.929688 14.0625 14.160156 13.554688 Z M 13.332031 10.40625 C 13.039062 10.308594 12.78125 10.328125 12.503906 10.46875 C 12.488281 10.476562 12.472656 10.484375 12.453125 10.492188 C 12.296875 10.613281 12.1875 10.714844 12.09375 10.894531 C 11.96875 11.140625 11.945312 11.425781 12.035156 11.6875 C 12.125 11.945312 12.308594 12.15625 12.554688 12.277344 C 13.0625 12.519531 13.660156 12.28125 13.890625 11.773438 C 14.003906 11.53125 14.011719 11.25 13.917969 11 C 13.800781 10.695312 13.621094 10.535156 13.332031 10.40625 Z M 13.332031 10.40625 "/>
<path style=" stroke:none;fill-rule:nonzero;fill:url(#linear1);" d="M 12.847656 13.671875 C 13.769531 13.601562 14.574219 14.289062 14.648438 15.207031 C 14.722656 16.128906 14.039062 16.9375 13.121094 17.015625 C 12.195312 17.09375 11.382812 16.40625 11.308594 15.480469 C 11.230469 14.554688 11.921875 13.746094 12.847656 13.671875 Z M 13.042969 16.160156 C 13.5 16.125 13.839844 15.726562 13.800781 15.273438 C 13.765625 14.820312 13.367188 14.480469 12.914062 14.515625 C 12.457031 14.550781 12.121094 14.949219 12.15625 15.40625 C 12.191406 15.859375 12.589844 16.199219 13.042969 16.160156 Z M 13.042969 16.160156 "/>
<path style=" stroke:none;fill-rule:nonzero;fill:rgb(99.215686%,47.450981%,1.176471%);fill-opacity:1;" d="M 12.886719 10.824219 C 13.183594 10.773438 13.46875 10.972656 13.515625 11.269531 C 13.566406 11.566406 13.367188 11.847656 13.070312 11.894531 C 12.773438 11.945312 12.496094 11.746094 12.445312 11.449219 C 12.394531 11.15625 12.59375 10.875 12.886719 10.824219 Z M 12.886719 10.824219 "/>
<path style=" stroke:none;fill-rule:nonzero;fill:url(#linear2);" d="M 14.160156 13.554688 L 14.164062 13.53125 C 14.128906 13.507812 14.113281 13.492188 14.078125 13.476562 C 14.144531 13.46875 14.207031 13.46875 14.273438 13.460938 C 14.714844 13.421875 15.144531 13.367188 15.589844 13.371094 C 15.71875 13.371094 15.878906 13.351562 16.003906 13.363281 C 16.046875 13.367188 16.085938 13.382812 16.117188 13.410156 C 16.171875 13.453125 16.164062 13.484375 16.164062 13.546875 L 16.179688 13.554688 L 16.179688 16.421875 C 16.179688 16.660156 16.179688 16.898438 16.183594 17.136719 C 16.183594 17.449219 16.21875 17.78125 15.980469 18.03125 C 15.808594 18.207031 15.613281 18.261719 15.375 18.261719 C 15.039062 18.261719 14.703125 18.257812 14.367188 18.257812 L 12.058594 18.261719 L 10.992188 18.265625 C 10.632812 18.265625 10.292969 18.320312 10.015625 18.046875 C 9.753906 17.789062 9.796875 17.484375 9.796875 17.144531 L 9.796875 16.359375 L 9.800781 13.347656 C 9.84375 13.464844 9.820312 13.628906 9.929688 13.699219 C 9.984375 13.707031 10.128906 13.722656 10.175781 13.710938 C 10.191406 13.691406 10.207031 13.671875 10.222656 13.652344 C 10.28125 13.648438 10.347656 13.660156 10.40625 13.65625 C 10.605469 13.648438 10.808594 13.652344 11.007812 13.652344 C 11.09375 13.652344 11.257812 13.585938 11.363281 13.601562 C 11.425781 13.613281 11.449219 13.628906 11.496094 13.671875 C 11.503906 13.679688 11.515625 13.6875 11.523438 13.695312 C 11.546875 13.699219 11.582031 13.699219 11.601562 13.699219 C 10.894531 14.292969 10.648438 15.273438 10.988281 16.132812 C 11.328125 16.992188 12.179688 17.535156 13.101562 17.480469 C 14.023438 17.429688 14.808594 16.792969 15.046875 15.902344 C 15.289062 15.007812 14.929688 14.0625 14.160156 13.554688 Z M 14.160156 13.554688 "/>
<path style=" stroke:none;fill-rule:nonzero;fill:rgb(99.215686%,47.450981%,1.176471%);fill-opacity:1;" d="M 9.796875 10.171875 C 9.792969 10.007812 9.816406 9.898438 9.890625 9.753906 C 10.144531 9.269531 10.703125 9.367188 11.148438 9.367188 L 14.539062 9.367188 C 14.871094 9.363281 15.214844 9.355469 15.542969 9.371094 C 15.804688 9.386719 16.089844 9.65625 16.148438 9.910156 C 16.140625 10.027344 16.164062 10.136719 16.160156 10.25 C 16.136719 10.226562 16.070312 10.125 16.046875 10.125 C 15.734375 10.128906 15.414062 10.027344 15.105469 10.101562 C 15.003906 10.125 14.839844 10.105469 14.734375 10.121094 C 14.414062 10.152344 14.089844 10.1875 13.769531 10.238281 C 13.734375 10.242188 13.675781 10.335938 13.648438 10.335938 C 13.550781 10.332031 13.550781 10.296875 13.476562 10.382812 C 13.429688 10.390625 13.425781 10.390625 13.378906 10.382812 L 13.332031 10.40625 C 13.039062 10.308594 12.78125 10.328125 12.503906 10.46875 C 12.488281 10.476562 12.472656 10.484375 12.453125 10.492188 C 12.40625 10.492188 12.394531 10.507812 12.351562 10.496094 C 12.34375 10.460938 12.34375 10.449219 12.332031 10.414062 C 11.992188 10.246094 11.597656 10.328125 11.234375 10.3125 C 10.8125 10.292969 10.367188 10.402344 9.941406 10.363281 C 9.886719 10.359375 9.8125 10.21875 9.796875 10.171875 Z M 9.796875 10.171875 "/>
<path style=" stroke:none;fill-rule:nonzero;fill:url(#linear3);" d="M 12.867188 4.613281 L 12.878906 4.613281 C 13.6875 4.59375 14.484375 4.816406 15.164062 5.257812 C 15.320312 5.355469 15.429688 5.4375 15.582031 5.5625 C 15.84375 5.75 15.675781 6.125 15.386719 6.050781 C 15.28125 6.027344 15.03125 5.796875 14.925781 5.726562 C 14.363281 5.351562 13.800781 5.1875 13.125 5.144531 C 12.335938 5.125 11.617188 5.328125 10.96875 5.78125 C 10.859375 5.855469 10.773438 5.949219 10.664062 6.019531 C 10.496094 6.121094 10.277344 6.011719 10.257812 5.820312 C 10.25 5.75 10.292969 5.65625 10.34375 5.613281 C 11.050781 4.96875 11.929688 4.671875 12.867188 4.613281 Z M 12.867188 4.613281 "/>
<path style=" stroke:none;fill-rule:nonzero;fill:url(#linear4);" d="M 12.789062 5.84375 C 12.84375 5.835938 13.019531 5.835938 13.078125 5.839844 C 13.613281 5.855469 14.132812 6.027344 14.578125 6.324219 C 14.765625 6.449219 15.113281 6.671875 14.8125 6.929688 C 14.625 7.089844 14.4375 6.863281 14.285156 6.761719 C 13.957031 6.542969 13.625 6.425781 13.230469 6.375 C 12.648438 6.316406 12.15625 6.460938 11.660156 6.78125 C 11.558594 6.84375 11.476562 6.957031 11.351562 6.980469 C 11.210938 7.003906 11.0625 6.882812 11.054688 6.742188 C 11.039062 6.550781 11.257812 6.421875 11.394531 6.328125 C 11.8125 6.042969 12.285156 5.886719 12.789062 5.84375 Z M 12.789062 5.84375 "/>
<path style=" stroke:none;fill-rule:nonzero;fill:url(#linear5);" d="M 12.90625 7.050781 C 13.3125 7.03125 13.726562 7.15625 14.042969 7.421875 C 14.101562 7.472656 14.136719 7.550781 14.132812 7.628906 C 14.128906 7.703125 14.09375 7.777344 14.035156 7.824219 C 13.839844 7.984375 13.621094 7.734375 13.4375 7.660156 C 13.289062 7.597656 13.25 7.589844 13.089844 7.570312 C 12.882812 7.535156 12.5625 7.613281 12.394531 7.734375 C 12.316406 7.773438 12.207031 7.863281 12.121094 7.871094 C 11.875 7.886719 11.75 7.617188 11.921875 7.4375 C 11.996094 7.355469 12.074219 7.320312 12.167969 7.265625 C 12.40625 7.125 12.628906 7.066406 12.90625 7.050781 Z M 12.90625 7.050781 "/>
<path style=" stroke:none;fill-rule:nonzero;fill:rgb(87.058824%,1.960784%,36.078432%);fill-opacity:1;" d="M 12.9375 8.175781 C 13.121094 8.148438 13.289062 8.277344 13.316406 8.457031 C 13.34375 8.640625 13.214844 8.808594 13.03125 8.835938 C 12.851562 8.859375 12.683594 8.734375 12.660156 8.550781 C 12.632812 8.371094 12.757812 8.203125 12.9375 8.175781 Z M 12.9375 8.175781 "/>
</g>
</svg>
