<?xml version="1.0" encoding="UTF-8"?>
<svg xmlns="http://www.w3.org/2000/svg" xmlns:xlink="http://www.w3.org/1999/xlink" width="22px" height="22px" viewBox="0 0 22 22" version="1.1">
<defs>
<linearGradient id="linear0" gradientUnits="userSpaceOnUse" x1="259.044067" y1="402.577057" x2="718.802673" y2="854.05896" gradientTransform="matrix(0.0175439,0,0,0.0175439,0,0)">
<stop offset="0" style="stop-color:rgb(100%,52.941176%,13.333333%);stop-opacity:1;"/>
<stop offset="1" style="stop-color:rgb(99.215686%,29.019608%,41.176471%);stop-opacity:1;"/>
</linearGradient>
<linearGradient id="linear1" gradientUnits="userSpaceOnUse" x1="719.429504" y1="413.397736" x2="1148.410278" y2="836.646973" gradientTransform="matrix(0.0175439,0,0,0.0175439,0,0)">
<stop offset="0" style="stop-color:rgb(99.215686%,36.470588%,27.45098%);stop-opacity:1;"/>
<stop offset="1" style="stop-color:rgb(97.647059%,21.176471%,55.686275%);stop-opacity:1;"/>
</linearGradient>
<linearGradient id="linear2" gradientUnits="userSpaceOnUse" x1="678.458374" y1="450.776093" x2="988.575439" y2="804.762512" gradientTransform="matrix(0.0175439,0,0,0.0175439,0,0)">
<stop offset="0" style="stop-color:rgb(99.215686%,39.215686%,25.882353%);stop-opacity:1;"/>
<stop offset="1" style="stop-color:rgb(98.823529%,26.666667%,47.843137%);stop-opacity:1;"/>
</linearGradient>
<linearGradient id="linear3" gradientUnits="userSpaceOnUse" x1="637.757019" y1="514.1521" x2="837.414368" y2="742.183838" gradientTransform="matrix(0.0175439,0,0,0.0175439,0,0)">
<stop offset="0" style="stop-color:rgb(99.607843%,40%,25.490196%);stop-opacity:1;"/>
<stop offset="1" style="stop-color:rgb(99.607843%,32.156863%,38.823529%);stop-opacity:1;"/>
</linearGradient>
</defs>
<g id="surface1">
<path style=" stroke:none;fill-rule:nonzero;fill:url(#linear0);" d="M 10.191406 4.933594 C 10.546875 4.917969 10.820312 5.136719 10.855469 5.5 C 10.871094 5.652344 10.863281 5.828125 10.863281 5.984375 L 10.863281 6.890625 L 10.859375 9.953125 L 10.859375 14.371094 L 10.863281 15.835938 C 10.863281 16.082031 10.863281 16.335938 10.859375 16.585938 C 10.855469 16.730469 10.800781 16.851562 10.714844 16.960938 C 10.519531 17.203125 10.175781 17.242188 9.917969 17.082031 C 9.773438 16.992188 9.632812 16.863281 9.5 16.753906 L 8.839844 16.199219 L 6.503906 14.246094 C 6.371094 14.140625 6.21875 14 6.082031 13.890625 C 5.496094 13.871094 4.894531 13.898438 4.304688 13.886719 C 3.789062 13.878906 3.25 13.996094 2.980469 13.421875 C 2.917969 13.292969 2.902344 13.167969 2.902344 13.023438 C 2.90625 12.089844 2.902344 11.152344 2.902344 10.21875 L 2.902344 9.382812 C 2.902344 9.03125 2.871094 8.738281 3.140625 8.464844 C 3.246094 8.363281 3.378906 8.289062 3.523438 8.261719 C 3.691406 8.226562 4.199219 8.242188 4.394531 8.242188 L 6.078125 8.238281 C 6.875 7.550781 7.714844 6.859375 8.523438 6.175781 L 9.40625 5.433594 C 9.648438 5.230469 9.875 4.980469 10.191406 4.933594 Z M 10.191406 4.933594 "/>
<path style=" stroke:none;fill-rule:nonzero;fill:url(#linear1);" d="M 16.292969 3.6875 C 16.59375 3.65625 16.777344 3.789062 16.980469 3.996094 C 17.101562 4.121094 17.210938 4.246094 17.328125 4.378906 C 18.210938 5.410156 18.871094 6.613281 19.265625 7.910156 C 20.070312 10.535156 19.796875 13.375 18.507812 15.796875 C 18.125 16.507812 17.660156 17.167969 17.128906 17.769531 C 16.9375 17.980469 16.796875 18.160156 16.519531 18.246094 C 15.960938 18.34375 15.535156 17.78125 15.847656 17.285156 C 15.957031 17.113281 16.210938 16.882812 16.351562 16.714844 C 16.601562 16.414062 16.832031 16.101562 17.039062 15.773438 C 19.136719 12.503906 18.792969 8.046875 16.257812 5.148438 C 16.136719 5.011719 15.96875 4.855469 15.867188 4.710938 C 15.816406 4.632812 15.777344 4.546875 15.757812 4.457031 C 15.679688 4.074219 15.921875 3.761719 16.292969 3.6875 Z M 16.292969 3.6875 "/>
<path style=" stroke:none;fill-rule:nonzero;fill:url(#linear2);" d="M 14.535156 5.71875 C 14.960938 5.671875 15.203125 6.015625 15.441406 6.3125 C 16.144531 7.195312 16.636719 8.230469 16.871094 9.335938 C 17.308594 11.367188 16.917969 13.488281 15.785156 15.234375 C 15.59375 15.527344 15.28125 15.964844 15.011719 16.195312 C 14.9375 16.257812 14.8125 16.296875 14.71875 16.316406 C 14.574219 16.34375 14.402344 16.304688 14.277344 16.226562 C 14.132812 16.128906 14.03125 15.980469 13.996094 15.808594 C 13.925781 15.433594 14.183594 15.222656 14.390625 14.960938 C 15.984375 12.957031 16.203125 10.042969 14.90625 7.835938 C 14.753906 7.574219 14.585938 7.328125 14.402344 7.089844 C 14.304688 6.964844 14.1875 6.847656 14.101562 6.714844 C 13.828125 6.3125 14.066406 5.804688 14.535156 5.71875 Z M 14.535156 5.71875 "/>
<path style=" stroke:none;fill-rule:nonzero;fill:url(#linear3);" d="M 12.910156 7.671875 C 13.273438 7.667969 13.429688 7.871094 13.625 8.144531 C 14.039062 8.738281 14.316406 9.414062 14.4375 10.125 C 14.664062 11.484375 14.34375 12.878906 13.546875 14.003906 C 13.398438 14.214844 13.28125 14.332031 13.015625 14.375 C 12.855469 14.390625 12.703125 14.351562 12.574219 14.257812 C 12.46875 14.183594 12.394531 14.082031 12.351562 13.964844 C 12.226562 13.632812 12.421875 13.375 12.601562 13.121094 C 12.660156 13.035156 12.757812 12.855469 12.804688 12.757812 C 12.976562 12.414062 13.097656 12.042969 13.164062 11.664062 C 13.324219 10.753906 13.148438 9.816406 12.664062 9.027344 C 12.441406 8.667969 12.117188 8.375 12.441406 7.921875 C 12.5625 7.753906 12.714844 7.699219 12.910156 7.671875 Z M 12.910156 7.671875 "/>
</g>
</svg>
